FluxischElse-Bold.sfdir
StartChar: uni0023
Encoding: 35 35 4
Width: 507
GlyphClass: 2
Flags: W
LayerCount: 2
Fore
SplineSet
309 397 m 0
 306 399 302 399.999 292 399.999 c 1
 285 398.999 274 397.999 268 396.999 c 0
 262 395.999 253 393.999 247 393.999 c 2
 239 391.999 236 391.999 232 393.999 c 1
 228 394.999 224 394.999 222 394.999 c 1
 220 393.999 217 390.999 214 387.999 c 1
 211 382.999 210 379.999 209 368.999 c 0
 209 361.999 207 352.999 206 349.999 c 0
 204 345.999 202 335.999 200 326.999 c 0
 199 317.999 196 307.999 195 302.999 c 1
 193 298.999 192 293.999 192 290.999 c 0
 192 288.999 194 282.999 196 277.999 c 0
 200 269.999 202 267.999 206 265.999 c 1
 209.535 265.292 214.57 264.585 228.53 264.585 c 0
 234.312 264.585 241.626 264.706 250.999 264.999 c 0
 287.999 264.999 289.999 264.999 293.999 268.999 c 0
 296.999 270.999 299.999 274.999 301.999 279.999 c 0
 303.999 283.999 304.999 290.999 304.999 293.999 c 0
 304.999 296.999 305.999 303.999 307.999 307.999 c 1
 308.999 312.999 310.999 321.999 310.999 328.999 c 1
 311.999 334.999 312.999 341.999 313.999 344.999 c 1
 315.999 347.999 316.999 354.999 317.999 359.999 c 0
 318.999 365.999 319.999 373.999 321.999 377.999 c 0
 322.898 380.696 323.394 382.181 323.394 383.361 c 0
 323.394 384.808 322.651 385.798 321 388 c 0
 320 390 317 392 316 393 c 1
 314 394 311 396 309 397 c 0
178 654.999 m 0
 183 656.999 188 657.999 189 657.999 c 0
 191 657.999 203 656.999 216 654.999 c 0
 229 653.999 242 650.999 244 649.999 c 0
 247 648.999 251 645.999 254 642.999 c 0
 258 637.999 259 636.999 258 630.999 c 0
 258 626.999 257 620.999 255 617.999 c 0
 253 613.999 251 606.999 250 600.999 c 0
 249 594.999 248 585.999 247 580.999 c 0
 246 574.999 244 562.999 244 552.999 c 0
 243 534.999 243 533.999 238 523.999 c 0
 233 512.999 233 512.999 234 501.999 c 0
 235 495.999 237 488.999 238 486.999 c 1
 240 484.999 242 482.999 247 482.999 c 2
 251 481.999 259 481.999 265 481.999 c 2
 294 481.999 l 2
 304 481.999 314 481.999 317 482.999 c 2
 320 482.999 327 486.999 333 490.999 c 0
 339 494.999 345 498.999 345 500.999 c 2
 346 501.999 347 514.999 348 528.999 c 0
 348 546.999 349 557.999 351 563.999 c 0
 353 569.999 356 579.999 359 586.999 c 0
 363 597.999 364 601.999 365 616.999 c 0
 365 625.999 366 635.999 367 638.999 c 0
 368 640.999 372 644.999 376 647.999 c 1
 380 651.999 385 653.999 393 655.999 c 0
 402 657.999 404 657.999 409 655.999 c 0
 412 654.999 417 653.999 420 653.999 c 0
 423 653.999 428 654.999 431 655.999 c 0
 435 656.999 440 657.999 443 657.999 c 0
 446 657.999 451 656.999 456 653.999 c 0
 460 651.999 465 647.999 466 645.999 c 0
 467 643.999 468 639.999 469 635.999 c 0
 470 630.999 469 627.999 466 620.999 c 0
 464 615.999 462 607.999 461 602.999 c 0
 460 597.999 459 587.999 458 579.999 c 0
 457 571.999 455 558.999 453 551.999 c 0
 451 544.999 448 531.999 447 523.999 c 2
 445 516.999 444 506.999 445 503.999 c 2
 445 499.999 447 493.999 449 489.999 c 0
 451 485.999 453 482.999 456 481.999 c 0
 458 480.999 463 479.999 467 478.999 c 0
 473 477.999 474 477.999 479 479.999 c 0
 483 481.999 488 482.999 496 482.999 c 0
 506 482.999 506 481.999 511 477.999 c 0
 514 474.999 517 469.999 519 466.999 c 1
 520 462.999 521 452.999 521 439.999 c 0
 521.366 433.776 521.599 429.43 521.599 426.174 c 0
 521.599 420.535 520.902 418.169 519 414.999 c 2
 518 411.999 515 406.999 513 404.999 c 0
 511 402.999 506 399.999 503 397.999 c 0
 499 395.999 492 394.999 488 394.999 c 0
 483 394.999 471 394.999 461 395.999 c 0
 448 396.999 440 396.999 436 395.999 c 1
 432 393.999 429 391.999 425 385.999 c 0
 422 381.999 418 374.999 417 371.999 c 0
 416 367.999 414 362.999 413 360.999 c 0
 411 357.999 411 355.999 412 349.999 c 0
 413 344.999 413 340.999 411 334.999 c 0
 410 330.999 409 322.999 409 316.999 c 0
 409 311.999 409 306.999 408 305.999 c 1
 407 305.999 406 302.999 405 298.999 c 0
 404 295.999 404 290.999 404 287.999 c 1
 405 285.999 408 279.999 413 275.999 c 2
 417 270.999 422 266.999 424 265.999 c 0
 427 264.999 436 263.999 445 263.999 c 0
 458 263.999 463 263.999 466 261.999 c 0
 468 260.999 471 257.999 472 254.999 c 2
 474 252.999 475 246.999 476 242.999 c 1
 476 237.999 478 231.999 480 227.999 c 0
 482 224.999 484 217.999 485 212.999 c 0
 486 205.999 486 203.999 484 198.999 c 1
 482 196.999 481 193.999 481 192.999 c 0
 481 191.999 479 189.999 477 186.999 c 0
 475 184.999 470 181.999 467 179.999 c 1
 463 178.999 457 176.999 453 175.999 c 0
 449 174.999 444 174.999 441 174.999 c 1
 437 175.999 432 177.999 429 178.999 c 0
 424 180.999 420 181.999 417 181.999 c 1
 415 180.999 409 179.999 403 178.999 c 0
 395 177.999 393 176.999 388 171.999 c 0
 385 168.999 383 163.999 382 160.999 c 1
 382 158.999 381 154.999 380 152.999 c 1
 379 151.999 376 145.999 374 139.999 c 2
 371 134.999 369 127.999 370 125.999 c 1
 370 113.999 l 2
 370 109.999 369 97.999 368 87.999 c 0
 367 72.999 366 66.999 362 56.999 c 0
 360 49.999 358 41.999 358 39.999 c 0
 358 36.999 356 30.999 354 26.999 c 0
 352 22.999 349 17.999 347 16.999 c 0
 345 15.999 340 13.999 337 12.999 c 0
 333 11.999 329 10.999 329 9.99902 c 0
 329 8.99902 323 8.99902 317 8.99902 c 0
 310 8.99902 305 8.99902 302 10.999 c 0
 298 12.999 293 13.999 283 13.999 c 0
 273 13.999 269 13.999 266 16.999 c 1
 264 17.999 260 22.999 258 27.999 c 0
 256 31.999 254 37.999 254 40.999 c 2
 253 42.999 254 45.999 255 46.999 c 1
 255 47.999 256 50.999 257 52.999 c 0
 258 54.999 259 61.999 259 68.999 c 0
 260 77.999 262 82.999 265 89.999 c 1
 268 93.999 270 98.999 270 99.999 c 0
 270 100.999 271 103.999 272 107.999 c 1
 274 110.999 276 116.999 277 121.999 c 0
 278 125.999 278 133.999 278 139.999 c 0
 278 144.999 279 150.999 280 154.999 c 1
 282 158.999 282 161.999 281 164.999 c 0
 280 166.999 277 170.999 274 172.999 c 0
 271 175.999 267 177.999 260 177.999 c 1
 255 178.999 239 178.999 224 178.999 c 0
 202 178.999 196 178.999 191 175.999 c 1
 188 174.999 183 172.999 181 172.999 c 1
 178 171.999 176 169.999 174 165.999 c 1
 173 161.999 171 155.999 170 150.999 c 0
 170 146.999 168 139.999 166 135.999 c 1
 165 131.999 163 124.999 162 120.999 c 1
 162 116.999 160 109.999 159 105.999 c 0
 157 100.999 156 94.999 156 90.999 c 0
 156 86.999 155 80.999 154 77.999 c 0
 153 74.999 151 64.999 151 55.999 c 0
 150 45.999 149 35.999 148 32.999 c 0
 147 30.999 145 25.999 143 22.999 c 0
 140 19.999 136 16.999 134 14.999 c 1
 131 13.999 126 12.999 122 11.999 c 1
 119 11.999 106 11.999 94 13.999 c 0
 81 14.999 68 15.999 65 14.999 c 0
 59 13.999 58 14.999 52 19.999 c 0
 47 24.999 46 27.999 45 31.999 c 1
 45 34.999 45 40.999 46 45.999 c 0
 47 49.999 49 53.999 49 54.999 c 1
 50 55.999 52 60.999 53 66.999 c 0
 55 73.999 57 80.999 58 83.999 c 0
 59 87.999 59 96.999 59 106.999 c 0
 58 122.999 58 123.999 62 131.999 c 0
 64 135.999 66 141.999 67 143.999 c 0
 68 145.999 69 152.999 69 158.999 c 0
 69 169.999 68 170.999 65 174.999 c 1
 61 177.999 61 177.999 36 177.999 c 0
 15 177.999 11 178.999 6 180.999 c 1
 4 182.999 -1 185.999 -3 187.999 c 1
 -8 190.999 -8 190.999 -8 206.999 c 0
 -8 215.999 -8 222.999 -6 224.999 c 1
 -6 226.999 -5 233.999 -5 239.999 c 1
 -4 246.999 -4 253.999 -2 255.999 c 1
 -1 257.999 1 260.999 4 261.999 c 1
 7 263.999 12 263.999 37 263.999 c 0
 54 263.999 70 264.999 73 265.999 c 0
 77 266.999 82 269.999 86 273.999 c 0
 90 278.999 92 281.999 95 290.999 c 1
 96 296.999 99 306.999 101 312.999 c 1
 102 318.999 104 326.999 104 330.999 c 0
 104 334.999 105 342.999 107 348.999 c 2
 108 354.999 110 361.999 111 364.999 c 0
 112 369.999 112 372.999 110 376.999 c 0
 109 378.999 107 383.999 105 387.999 c 0
 103 390.999 100 393.999 97 394.999 c 0
 95 395.999 89 396.999 85 396.999 c 0
 80 396.999 72 395.999 66 394.999 c 0
 57 393.999 55 393.999 49 396.999 c 0
 46 398.999 41 401.999 39 403.999 c 0
 35 406.999 35 406.999 35 436.999 c 0
 35 458.999 35 467.999 37 470.999 c 1
 38 473.999 41 476.999 43 478.999 c 0
 47 482.999 48 482.999 64 483.999 c 0
 73 483.999 87 482.999 94 482.999 c 0
 104 481.999 110 481.999 115 483.999 c 0
 118 484.999 124 487.999 127 490.999 c 0
 131 493.999 133 497.999 134 502.999 c 0
 135 505.999 136 512.999 136 517.999 c 0
 136 522.999 137 529.999 139 534.999 c 0
 140 538.999 142 544.999 142 547.999 c 0
 142 549.999 143 553.999 143 555.999 c 1
 144 557.999 145 565.999 146 574.999 c 0
 146 584.999 147 593.999 148 597.999 c 0
 149 601.999 152 610.999 154 617.999 c 0
 156 624.999 158 632.999 158 634.999 c 0
 158 636.999 159 640.999 160 643.999 c 0
 161 645.999 164 648.999 166 649.999 c 2
 167 650.999 173 652.999 178 654.999 c 0
EndSplineSet
Validated: 33
EndChar
StartChar: uni0026
Encoding: 38 38 7
Width: 673
GlyphClass: 2
Flags: W
LayerCount: 2
Fore
SplineSet
235 313 m 0
 232 314 227.998 314 225.998 314 c 0
 224.998 314 219.998 313 214.998 311 c 0
 210.998 310 205.998 308 203.998 308 c 1
 202.998 307 199.998 306 198.998 304 c 1
 196.998 303 193.998 299 190.998 295 c 0
 187.998 290 179.998 281 172.998 273 c 0
 162.998 263 159.998 258 158.998 254 c 0
 157.998 251 155.998 246 152.998 241 c 0
 150.998 237 148.998 232 148.998 228 c 0
 148.998 225 147.998 219 145.998 214 c 0
 144.534 209.607 143.606 205.751 143.606 202.038 c 0
 143.606 197.03 146.056 184.543 146.999 176.999 c 0
 147.999 164.999 149.999 159.999 152.999 153.999 c 1
 155.999 149.999 157.999 145.999 157.999 145.999 c 1
 157.999 145.999 159.999 140.999 162.999 134.999 c 0
 165.999 128.999 170.999 120.999 173.999 116.999 c 1
 177.999 112.999 182.999 106.999 185.999 103.999 c 0
 189.999 100.999 195.999 96.999 198.999 94.999 c 0
 202.999 92.999 207.999 89.999 209.999 88.999 c 0
 212.999 86.999 217.999 83.999 221.999 82.999 c 1
 225.999 82.999 232.999 80.999 236.999 78.999 c 2
 240.999 77.999 247.999 75.999 250.999 74.999 c 0
 254.999 73.999 257.999 73.999 261.999 75.999 c 0
 264.999 76.999 269.999 77.999 273.999 77.999 c 0
 277.999 77.999 283.999 76.999 285.999 75.999 c 0
 288.999 73.999 293.999 72.999 297.999 72.999 c 0
 300.999 72.999 306.999 74.999 311.999 75.999 c 1
 316.999 77.999 321.999 80.999 325.999 84.999 c 0
 329.999 88.999 332.999 90.999 337.999 91.999 c 0
 341.999 92.999 350.999 96.999 358.999 100.999 c 2
 383.999 111.999 l 2
 389.999 114.999 396.999 118.999 399.999 120.999 c 1
 401.999 123.999 404.999 128.999 405.999 131.999 c 0
 406.898 134.696 407.394 136.383 407.394 137.695 c 0
 407.394 139.303 406.651 140.349 405 142 c 2
 404 144 401 147 398 148 c 0
 396 149 390 154 385 159 c 0
 381 164 377 168 377 169 c 0
 377 170 374 175 370 180 c 0
 366 185 363 190 362 190 c 1
 362 190 354 196 346 204 c 0
 337 212 327 220 323 223 c 0
 318 226 314 230 309 238 c 0
 305 244 299 251 294 254 c 0
 290 257 284 263 281 268 c 0
 278 272 272 278 268 281 c 0
 265 283 260 287 259 288 c 1
 258 290 255 293 254 296 c 0
 253 299 250 303 247 306 c 0
 244 309 239 312 235 313 c 0
292.998 612 m 0
 286.998 613 275.998 614 267.998 614 c 0
 256.998 614 251.998 613 242.998 611 c 0
 236.998 609 231.998 607 229.998 607 c 0
 228.998 607 224.998 605 221.998 603 c 0
 217.998 601 213.998 597 211.998 595 c 0
 209.998 593 206.998 589 205.998 586 c 1
 205.998 583 204.998 579 204.998 577 c 0
 204.998 574 202.998 568 200.998 563 c 0
 197.998 554 197.998 553 198.998 539 c 0
 199.998 531 200.998 523 201.998 521 c 0
 202.998 519 206.998 513 209.998 507 c 0
 212.998 501 216.998 494 217.998 492 c 0
 218.998 490 223.998 484 226.998 478 c 1
 230.998 473 234.998 467 235.998 466 c 2
 236.998 464 241.998 461 245.998 458 c 0
 250.998 455 254.998 452 255.998 451 c 1
 255.998 450 259.998 447 263.998 444 c 0
 268.998 440 272.998 438 275.998 438 c 0
 277.998 438 281.998 440 284.998 442 c 0
 287.998 444 290.998 445 291.998 445 c 1
 291.998 445 294.998 447 297.998 450 c 0
 300.998 452 304.998 458 306.998 462 c 0
 309.998 469 312.998 472 318.998 475 c 0
 323.998 478 326.998 482 329.998 487 c 0
 331.998 491 333.998 496 335.998 498 c 1
 336.998 500 341.998 509 345.998 517 c 0
 352.998 530 353.998 534 354.998 542 c 0
 354.998 549 353.998 553 349.998 566 c 0
 346.998 574 343.998 584 341.998 586 c 2
 340.998 589 337.998 593 335.998 595 c 0
 333.998 597 329.998 600 327.998 601 c 0
 324.998 603 319.998 605 316.998 607 c 0
 312.998 609 308.998 610 306.998 610 c 0
 304.998 610 297.998 611 292.998 612 c 0
253.998 689 m 2
 257.998 690 266.998 690 273.998 691 c 1
 282.998 691 290.998 690 300.998 687 c 0
 308.998 685 318.998 683 322.998 683 c 0
 326.998 683 332.998 682 336.998 680 c 0
 341.998 678 347.998 677 360.998 676 c 0
 372.998 676 378.998 675 381.998 673 c 0
 384.998 671 387.998 670 387.998 669 c 0
 387.998 668 390.998 666 392.998 665 c 0
 395.998 664 398.998 662 401.998 661 c 0
 403.998 660 409.998 655 415.998 650 c 0
 420.998 646 427.998 639 430.998 635 c 0
 433.998 630 439.998 623 444.998 619 c 0
 449.998 614 453.998 609 453.998 609 c 1
 453.998 608 454.998 605 455.998 602 c 1
 457.998 599 458.998 595 458.998 593 c 0
 458.998 592 460.998 586 461.998 580 c 1
 463.998 574 465.998 566 467.998 562 c 1
 468.998 558 469.998 550 470.998 545 c 1
 470.998 537 470.998 534 467.998 529 c 1
 466.998 526 464.998 520 463.998 515 c 1
 463.998 510 461.998 506 458.998 501 c 1
 455.998 498 452.998 493 452.998 490 c 1
 451.998 488 450.998 483 448.998 480 c 1
 444.998 468 l 2
 442.998 463 437.998 457 421.998 440 c 0
 402.998 421 400.998 418 387.998 412 c 0
 380.998 408 371.998 402 367.998 399 c 1
 363.998 395 358.998 391 355.998 390 c 0
 351.998 388 347.998 385 346.998 384 c 2
 344.998 383 342.998 379 341.998 376 c 0
 340.998 373 340.998 370 340.998 368 c 1
 341.998 366 344.998 361 348.998 355 c 0
 351.998 350 358.998 342 363.998 338 c 0
 367.998 334 372.998 331 372.998 331 c 1
 373.998 331 375.998 329 378.998 327 c 0
 380.998 325 384.998 323 385.998 321 c 2
 387.998 319 390.998 315 393.998 310 c 0
 396.998 306 403.998 298 409.998 293 c 2
 414.998 287 421.998 281 424.998 278 c 2
 447.998 254 l 2
 462.998 238 466.998 235 471.998 234 c 0
 475.998 233 480.998 232 483.998 232 c 0
 488.998 232 490.998 232 493.998 235 c 0
 495.998 237 498.998 241 499.998 243 c 0
 500.998 245 502.998 252 503.998 257 c 0
 504.998 263 506.998 271 508.998 275 c 0
 510.998 279 512.998 286 513.998 290 c 1
 513.998 295 515.998 302 516.998 305 c 0
 518.998 311 517.998 312 515.998 318 c 0
 513.998 325 513.998 325 515.998 330 c 0
 517.998 335 518.998 342 518.998 367 c 0
 519.998 391 519.998 400 521.998 404 c 0
 522.998 406 525.998 410 528.998 411 c 2
 532.998 414 535.998 414 545.998 414 c 0
 551.998 414 558.998 415 561.998 416 c 0
 564.998 417 570.998 417 574.998 417 c 0
 578.998 417 585.998 416 589.998 415 c 0
 593.998 414 601.998 413 608.998 412 c 0
 615.998 411 622.998 409 627.998 407 c 1
 632.998 404 635.998 402 637.998 397 c 1
 640.998 392 641.998 388 641.998 379 c 0
 641.998 371 640.998 367 637.998 363 c 0
 634.998 358 634.998 355 634.998 339 c 0
 633.998 325 632.998 320 630.998 315 c 0
 629.998 311 627.998 307 627.998 304 c 0
 627.998 302 626.998 297 625.998 294 c 0
 624.998 291 622.998 286 622.998 282 c 0
 621.998 277 619.998 269 618.998 262 c 0
 617.998 256 615.998 248 613.998 245 c 0
 612.998 243 610.998 237 610.998 233 c 0
 609.998 226 609.998 224 602.998 216 c 0
 596.998 210 594.998 206 593.998 201 c 0
 592.998 197 590.998 193 585.998 187 c 0
 579.998 181 576.998 176 572.998 166 c 0
 569.998 158 567.998 150 566.998 148 c 1
 566.998 146 567.998 141 568.998 137 c 1
 571.998 131 576.998 125 593.998 108 c 0
 605.998 96 617.998 81 621.998 76 c 0
 626.998 69 630.998 64 639.998 58 c 0
 645.998 53 653.998 46 657.998 43 c 1
 660.998 39 665.998 34 666.998 32 c 0
 667.998 30 669.998 26 669.998 24 c 0
 669.998 21 667.998 18 664.998 15 c 0
 661.998 12 656.998 8 652.998 6 c 0
 648.998 4 643.998 3 640.998 3 c 0
 637.998 3 633.998 4 631.998 4 c 1
 630.998 5 625.998 7 620.998 8 c 0
 616.998 9 607.998 10 600.998 10 c 0
 594.998 10 580.998 10 571.998 9 c 0
 555.998 8 552.998 9 545.998 11 c 0
 540.998 13 534.998 16 532.998 17 c 1
 530.998 19 527.998 21 526.998 23 c 1
 524.998 24 521.998 29 519.998 32 c 0
 517.998 36 511.998 43 506.998 48 c 0
 501.998 53 495.998 59 492.998 60 c 2
 489.998 62 484.998 64 481.998 65 c 0
 475.998 66 475.998 66 467.998 61 c 0
 463.998 58 457.998 53 454.998 50 c 0
 450.998 47 445.998 44 442.998 43 c 0
 439.998 42 434.998 39 430.998 38 c 1
 427.998 36 421.998 32 417.998 30 c 1
 414.998 27 408.998 24 405.998 23 c 0
 401.998 22 395.998 19 390.998 17 c 0
 386.998 15 381.998 13 381.998 13 c 1
 380.998 13 368.998 10 355.998 5 c 0
 342.998 1 328.998 -3 324.998 -4 c 0
 320.998 -5 310.998 -6 301.998 -6 c 0
 292.998 -6 284.998 -7 281.998 -8 c 0
 276.998 -10 272.998 -10 257.998 -10 c 0
 245.998 -9 237.998 -8 233.998 -6 c 0
 230.998 -5 221.996 -4.0498 200.998 -3 c 0
 180.998 -2 171.998 -1 167.998 0 c 1
 164.998 2 158.998 5 155.998 7 c 0
 151.998 10 146.998 13 143.998 14 c 2
 140.998 16 135.998 18 131.998 19 c 0
 128.998 20 123.998 22 120.998 23 c 0
 117.998 24 112.998 26 109.998 28 c 0
 106.998 30 102.998 32 101.998 33 c 0
 100.998 34 97.998 35 95.998 37 c 2
 93.998 38 88.998 42 85.998 45 c 0
 81.998 49 70.998 61 60.998 72 c 0
 42.998 90 40.998 92 34.998 105 c 0
 29.998 117 28.998 121 28.998 129 c 0
 28.998 136 27.998 140 23.998 147 c 0
 19.998 156 19.998 156 19.998 181 c 0
 19.998 195 20.998 212 20.998 219 c 1
 21.998 226 22.998 235 23.998 239 c 0
 24.998 243 28.998 253 32.998 261 c 0
 36.998 269 40.998 279 42.998 282 c 2
 43.998 286 49.998 293 59.998 303 c 0
 69.998 314 75.998 321 78.998 327 c 0
 81.998 334 86.998 340 101.998 354 c 0
 117.998 370 121.998 373 128.998 376 c 0
 133.998 378 139.998 381 141.998 383 c 0
 144.998 385 147.998 389 149.998 391 c 1
 150.998 393 151.998 396 150.998 400 c 2
 150.998 403 148.998 407 147.998 410 c 0
 146.998 412 143.998 418 139.998 422 c 2
 136.998 426 130.998 432 126.998 435 c 0
 122.998 437 117.998 442 115.998 445 c 0
 113.998 449 111.998 452 111.998 452 c 1
 111.998 453 110.998 455 109.998 456 c 0
 107.998 458 104.998 463 100.998 468 c 0
 97.998 473 93.998 479 92.998 481 c 0
 90.998 484 88.998 490 86.998 495 c 0
 84.998 500 81.998 509 80.998 514 c 2
 77.998 521 77.998 526 77.998 541 c 0
 77.998 557 78.998 561 82.998 572 c 0
 85.998 580 88.998 588 90.998 591 c 0
 93.998 595 94.998 599 95.998 605 c 0
 96.998 613 96.998 614 112.998 631 c 0
 121.998 640 130.998 649 132.998 650 c 0
 134.998 651 141.998 655 147.998 659 c 0
 154.998 663 162.998 667 164.998 668 c 0
 167.998 669 174.998 670 179.998 671 c 0
 185.998 672 191.998 674 198.998 677 c 0
 205.998 681 210.998 682 219.998 683 c 0
 226.998 683 234.998 685 238.998 686 c 0
 242.998 687 249.998 689 253.998 689 c 2
EndSplineSet
Validated: 33
EndChar
StartChar: uni0029
Encoding: 41 41 10
Width: 267
GlyphClass: 2
Flags: W
LayerCount: 2
Fore
SplineSet
73 762 m 1
 73.5 762.5 75.501 762.749 78.376 762.749 c 0
 81.251 762.749 85.001 762.499 89.001 761.999 c 0
 97.001 761.999 106.001 760.999 109.001 759.999 c 0
 113.001 758.999 117.001 755.999 125.001 747.999 c 0
 131.001 740.999 136.001 734.999 137.001 732.999 c 0
 138.001 730.999 140.001 725.999 140.001 721.999 c 1
 141.001 717.999 143.001 708.999 146.001 703.999 c 0
 149.001 697.999 153.001 688.999 154.001 684.999 c 2
 156.001 680.999 157.001 673.999 157.001 670.999 c 0
 157.001 665.999 159.001 657.999 162.001 649.999 c 2
 171.001 626.999 l 1
 178.001 608.999 l 1
 179.001 603.999 181.001 595.999 181.001 590.999 c 1
 182.001 584.999 184.001 578.999 187.001 571.999 c 0
 191.001 564.999 193.001 559.999 193.001 554.999 c 0
 193.001 551.999 195.001 542.999 197.001 535.999 c 0
 199.001 527.999 202.001 520.999 203.001 518.999 c 0
 204.001 516.999 204.001 511.999 204.001 503.999 c 0
 203.001 493.999 203.001 491.999 206.001 482.999 c 0
 209.001 474.999 210.001 467.999 211.001 452.999 c 0
 211.001 441.999 212.001 425.999 212.001 416.999 c 0
 212.001 408.999 213.001 394.999 214.001 386.999 c 0
 215.001 378.999 216.001 370.999 217.001 370.999 c 1
 217.001 352.999 l 1
 217.001 323.999 l 2
 217.001 316.999 215.001 306.999 214.001 300.999 c 0
 213.001 295.999 211.001 286.999 211.001 281.999 c 1
 210.001 275.999 209.001 267.999 208.001 263.999 c 0
 207.001 260.999 205.001 246.999 205.001 232.999 c 0
 204.001 211.999 203.001 206.999 201.001 202.999 c 0
 199.001 199.999 197.001 195.999 196.001 192.999 c 0
 195.001 190.999 193.001 182.999 193.001 173.999 c 0
 192.001 165.999 190.001 156.999 189.001 152.999 c 0
 188.001 149.999 185.001 142.999 183.001 139.999 c 1
 181.001 134.999 179.001 126.999 177.001 116.999 c 0
 176.001 107.999 172.001 93.999 170.001 85.999 c 0
 167.001 77.999 163.001 67.999 162.001 63.999 c 2
 160.001 59.999 158.001 52.999 158.001 47.999 c 1
 157.001 42.999 156.001 36.999 155.001 34.999 c 0
 154.001 32.999 152.001 28.999 150.001 26.999 c 1
 149.001 23.999 147.001 18.999 146.001 15.999 c 1
 146.001 11.999 143.001 4.99902 140.001 -1.00098 c 0
 138.001 -6.00098 134.001 -15.001 133.001 -19.001 c 0
 132.001 -24.001 129.001 -31.001 127.001 -35.001 c 0
 124.001 -40.001 120.001 -44.001 115.001 -47.001 c 0
 110.417 -50.0566 108.168 -51.3613 104.24 -51.3613 c 0
 103.026 -51.3613 101.652 -51.2363 100 -51 c 0
 95 -51 88 -51 83 -50 c 0
 78 -49 71 -48 67 -48 c 0
 63 -48 58 -47 56 -47 c 0
 54 -47 52 -46 51 -43 c 1
 49 -40 48 -35 48 -31 c 0
 48 -27 49 -23 50 -22 c 1
 50 -21 52 -17 53 -13 c 0
 54 -10 55 -5 57 -2 c 0
 58 0 59 5 59 8 c 1
 60 11 62 18 63 24 c 1
 65 30 67 36 69 39 c 0
 70 41 72 45 73 48 c 1
 76 51 76 54 76 62 c 0
 76 70 77 74 82 83 c 0
 85 90 87 99 88 102 c 0
 89 106 90 112 92 115 c 0
 94 118 95 124 95 133 c 0
 96 141 97 149 99 154 c 0
 100 158 101 163 101 165 c 0
 101 167 103 172 104 176 c 2
 107 182 107 187 107 200 c 0
 107 212 108 219 110 223 c 1
 111 227 112 237 113 246 c 0
 114 255 115 265 117 268 c 1
 118 273 119 280 119 300 c 0
 119 321 118 327 116 334 c 0
 115 338 113 345 113 349 c 0
 113 353 114 359 116 362 c 1
 117 366 119 372 119 378 c 1
 120 383 121 389 121 392 c 0
 121 394 119.959 405.996 119 417 c 0
 117.955 428.996 117 441 116 444 c 0
 115 447 114 458 113 468 c 0
 112 482 111 489 110 492 c 0
 108 496 107.099 503.01 106 514 c 0
 105 524 104 533 104 535 c 1
 103 537 101 544 99 550 c 0
 97 556 95 565 93 571 c 1
 92 577 90 584 90 588 c 1
 89 591 86 599 83 605 c 0
 78 614 78 616 78 631 c 0
 77 641 76 648 75 651 c 1
 73 654 72 661 72 666 c 0
 71 674 70 678 63 692 c 0
 56 706 54 710 54 716 c 0
 54 720 53 728 52 732 c 0
 51 736 49 743 49 746 c 0
 48 751 49 752 52 755 c 0
 54 757 58 759 64 760 c 0
 69 761 73 762 73 762 c 1
EndSplineSet
Validated: 33
EndChar
StartChar: uni002F
Encoding: 47 47 16
Width: 363
GlyphClass: 2
Flags: W
LayerCount: 2
Fore
SplineSet
287 664 m 2
 290 665 297.001 666 301.001 666 c 0
 307.001 666 311.001 665 321.001 660 c 0
 327.001 657 334.001 652 336.001 650 c 0
 338.001 648 339.001 644 339.001 642 c 0
 339.001 640 338.001 634 335.001 629 c 1
 333.001 624 331.001 619 331.001 617 c 0
 331.001 616 329.001 612 327.001 609 c 0
 325.001 605 323.001 599 322.001 592 c 0
 321.001 583 319.001 578 314.001 568 c 0
 310.001 562 306.001 553 305.001 549 c 0
 304.001 545 302.001 539 301.001 536 c 1
 299.001 533 298.001 530 297.001 530 c 1
 296.001 529 295.001 526 294.001 521 c 0
 293.001 517 292.001 513 291.001 512 c 0
 290.001 511 289.001 506 288.001 501 c 2
 286.001 497 283.001 489 281.001 484 c 1
 278.001 479 276.001 473 275.001 469 c 1
 275.001 464 272.001 456 270.001 450 c 1
 267.001 444 263.001 438 262.001 436 c 1
 260.001 434 258.001 429 258.001 426 c 1
 257.001 423 255.001 414 252.001 406 c 0
 249.001 398 247.001 390 247.001 387 c 0
 247.001 385 244.001 377 240.001 370 c 0
 237.001 363 233.001 356 232.001 353 c 1
 230.001 351 229.001 348 229.001 346 c 0
 229.001 344 227.001 339 224.001 335 c 0
 221.001 331 218.001 322 215.001 315 c 1
 213.001 307 212.001 300 212.001 299 c 0
 212.001 297 211.001 295 210.001 293 c 1
 208.001 291 207.001 289 206.001 287 c 1
 206.001 284 204.001 280 203.001 277 c 0
 201.001 273 199.001 267 199.001 263 c 1
 198.001 259 196.001 251 193.001 246 c 0
 190.001 240 188.001 235 188.001 234 c 0
 188.001 232 186.001 227 183.001 222 c 1
 181.001 217 177.001 208 175.001 203 c 1
 174.001 198 170.001 191 168.001 188 c 0
 166.001 185 164.001 179 163.001 175 c 1
 163.001 170 161.001 164 160.001 161 c 1
 158.001 158 157.001 153 157.001 151 c 0
 157.001 149 156.001 144 154.001 140 c 2
 153.001 136 149.001 130 146.001 126 c 0
 142.001 120 140.001 115 140.001 108 c 1
 138.001 98 l 2
 138.001 97 136.001 93 134.001 89 c 0
 132.001 86 129.001 79 128.001 75 c 0
 127.001 71 124.001 65 122.001 62 c 0
 120.001 59 118.001 53 117.001 48 c 0
 117.001 44 115.001 37 114.001 33 c 1
 112.001 29 110.001 24 109.001 22 c 1
 107.001 20 106.001 18 106.001 17 c 0
 106.001 16 104.001 13 102.001 11 c 0
 99.001 8 94.001 5 89.001 4 c 0
 84.6084 2.53613 80.2158 1.6084 70.3311 1.6084 c 0
 66.7129 1.6084 62.3594 1.74512 57 2.00098 c 0
 35.002 3.05078 31 4.00098 28 6.00098 c 0
 26 8.00098 25 11.001 24 21.001 c 0
 23.707 23.9297 23.5859 26.2578 23.5859 28.1865 c 0
 23.5859 32.8438 24.293 35.1719 25 38 c 1
 27 40 30 48 32 56 c 2
 35 63 37 71 37 73 c 0
 37 75 39 82 42 88 c 0
 45 94 48 100 49 101 c 1
 50 103 52 108 54 114 c 0
 55 119 57 125 58 127 c 1
 59 128 62 133 64 137 c 0
 67 141 70 147 70 150 c 1
 71 154 73 159 74 161 c 0
 75 164 77 169 77 173 c 1
 78 177 81 186 84 193 c 0
 87 200 90 207 91 208 c 1
 96 218 l 1
 97 222 100 230 102 235 c 1
 103 240 105 249 106 253 c 0
 107 258 109 265 110 267 c 0
 112 270 115 277 118 283 c 0
 121 289 123 294 123 295 c 0
 123 296 125 300 127 304 c 0
 129 308 132 316 134 323 c 0
 135 329 137 335 137 337 c 0
 137 338 139 342 142 346 c 0
 145 350 147 355 148 360 c 0
 149 364 152 373 155 378 c 0
 158 384 161 389 162 390 c 1
 162 391 164 396 165 401 c 2
 167 406 168 414 169 417 c 0
 170 421 174 428 177 434 c 0
 180 439 183 447 183 451 c 1
 184 455 186 462 189 467 c 1
 191 473 194 480 195 484 c 0
 196 488 198 495 200 500 c 0
 201 504 204 512 207 517 c 0
 209 521 214 533 218 543 c 0
 222 555 225 564 225 568 c 0
 225 572 226 576 227 579 c 0
 228 581 230 585 232 587 c 0
 234 589 235 592 235 593 c 0
 235 595 237 600 240 606 c 0
 243 612 247 621 249 627 c 0
 251 632 255 641 257 645 c 0
 259 650 262 655 265 657 c 1
 268 658 271 660 272 660 c 0
 274 660 276 661 278 661 c 1
 280 662 284 664 287 664 c 2
EndSplineSet
Validated: 1
EndChar
StartChar: uni0033
Encoding: 51 51 20
Width: 572
GlyphClass: 2
Flags: W
LayerCount: 2
Fore
SplineSet
248 744 m 1
 254 746 264 746 279 747 c 0
 298 747 302 746 307 744 c 1
 310 742 315 742 320 742 c 0
 325 742 333 742 337 743 c 0
 343 744 347 743 357 740 c 0
 364 738 376 733 384 729 c 0
 391 726 398 722 399 722 c 1
 400 721 408 717 417 713 c 0
 432.959 705.907 434 704 448 690 c 0
 456 682 463 674 464 673 c 0
 465 672 470 667 476 662 c 0
 482 656 487 650 490 643 c 0
 492 638 495 633 496 633 c 1
 497 632 498 630 499 627 c 1
 501 625 502 618 503 612 c 1
 503 607 504 600 505 597 c 1
 507 594 508 589 508 585 c 1
 509 582 510 577 511 575 c 0
 513 571 514 565 514 552 c 0
 514 538 513 533 511 526 c 0
 509 522 508 516 508 512 c 0
 508 507 506 502 503 494 c 0
 500 488 495 480 492 476 c 0
 489 471 484 465 481 462 c 0
 477 459 473 453 471 451 c 0
 469 448 459.973 439.031 452 432 c 0
 442.969 424.035 435 417 433 416 c 0
 431 415 425 414 421 412 c 1
 415 411 410 410 407 411 c 2
 405 411 401 412 399 412 c 0
 397 412 392 410 389 408 c 0
 386 406 381 402 378 399 c 1
 376 395 374 392 374 389 c 0
 374 385 375 382 378 379 c 0
 380 376 384 373 386 371 c 0
 388 369 392 366 395 364 c 0
 399 362 404 360 408 359 c 1
 411 359 419 357 425 355 c 0
 431 353 438 350 440 349 c 0
 442 348 444 347 445 347 c 1
 445 346 448 344 450 342 c 0
 453 340 461 333 468 326 c 0
 475 319 481 312 482 310 c 0
 483 308 485 305 486 303 c 1
 486 301 491 298 495 295 c 0
 500 292 504 288 505 286 c 0
 506 284 507 278 508 273 c 1
 508 267 510 260 511 257 c 0
 512 254 515 248 517 243 c 0
 520 235 521 230 522 215 c 0
 522 203 522 194 521 188 c 0
 520 184 517 176 515 171 c 0
 513 166 509 157 507 151 c 0
 505 144 502 138 502 137 c 1
 501 137 500 132 498 127 c 1
 497 122 493 114 491 108 c 1
 488 102 482 93 477 88 c 2
 473 82 464 73 459 68 c 0
 453 63 445 57 441 55 c 0
 436 53 430 48 426 44 c 1
 422 41 415 36 410 33 c 0
 405 30 400 27 400 26 c 1
 399 26 397 24 394 23 c 0
 392 22 385 20 380 18 c 1
 375 17 367 15 362 15 c 1
 358 14 349 11 342 8 c 0
 333 5 328 4 315 3 c 0
 305 2 298 1 295 -1 c 0
 291 -3 285 -3 261 -3 c 0
 242 -3 232 -2 228 -1 c 0
 224 0 217 1 211 1 c 0
 205 1 199 2 195 4 c 0
 192 6 182 8 173 9 c 0
 163 11 155 13 151 15 c 0
 148 17 143 19 140 20 c 1
 138 20 132 23 127 25 c 0
 123 27 118 29 116 30 c 1
 114 30 108 34 103 38 c 0
 98 41 91 47 87 51 c 1
 83 54 77 59 72 61 c 0
 68 63 63 67 61 69 c 1
 60 71 58 75 57 78 c 1
 57 81 54 86 51 89 c 0
 48 92 44 97 42 100 c 0
 40 103 37 111 34 118 c 0
 30 127 28 134 28 142 c 1
 27 148 26 157 25 162 c 0
 24 166 23 173 23 177 c 0
 23 183 23 184 30 192 c 0
 38 199 38 199 51 200 c 0
 54 200.5 59.5 200.75 65.875 200.75 c 0
 72.25 200.75 79.5 200.5 86 200 c 0
 98.0059 199.076 118 199 129 199 c 0
 146 200 149 200 153 197 c 0
 155 196 159 193 161 191 c 0
 163 188 165 185 166 183 c 1
 166 181 167 176 168 172 c 0
 169 167 171 161 173 157 c 0
 175 154 178 150 178 148 c 1
 179 147 180 143 181 140 c 0
 183 135 185 132 189 129 c 0
 193 126 198 122 200 119 c 0
 202 117 206 113 209 111 c 1
 212 110 219 105 225 101 c 0
 235 95 235 95 260 94 c 0
 282 94 286 94 294 97 c 2
 299 98 306 100 309 101 c 1
 314 101 317 103 323 109 c 1
 329 113 334 116 339 118 c 0
 345 120 349 122 354 127 c 0
 360 133 361 137 365 149 c 0
 368 157 371 168 373 172 c 1
 374 177 375 182 375 184 c 0
 375 186 376 190 378 192 c 1
 379 195 380 199 381 202 c 1
 381 205 380 209 379 214 c 1
 376 220 375 226 375 234 c 0
 375 241 375 248 374 251 c 0
 373 254 371 258 369 260 c 0
 366 263 363 269 361 273 c 1
 360 277 356 282 354 285 c 0
 352 289 350 292 350 292 c 1
 350 293 348 296 345 298 c 0
 343 300 337 304 332 305 c 1
 328 307 323 309 321 310 c 1
 320 311 315 313 311 315 c 0
 306 317 298 319 293 320 c 0
 287 321 282 322 280 323 c 1
 278 325 269 326 257 326 c 0
 243 326 235 326 227 324 c 0
 217 322 215 322 210 324 c 0
 207 325 203 328 202 330 c 2
 200 331 198 335 196 338 c 0
 194 342 193 348 193 361 c 0
 192 375 191 383 189 389 c 0
 187 394 186 402 186 406 c 0
 186 410 186 413 187 414 c 1
 188 414 191 418 193 423 c 1
 196 427 199 432 201 434 c 0
 202 435 205 438 207 439 c 0
 210 440 215 441 219 441 c 0
 222 441 226 441 227 440 c 0
 228 439 232 437 237 436 c 2
 241 434 247 433 251 433 c 0
 255 433 259 434 263 437 c 0
 268 440 271 441 282 441 c 1
 289 442 296 443 299 444 c 0
 301 445 306 447 311 448 c 0
 318 450 320 451 332 462 c 0
 339 469 348 479 352 484 c 0
 356 490 363 498 368 502 c 0
 376 510 376 510 376 551 c 0
 376 574 375 594 374 596 c 0
 373 599 372 601 371 601 c 1
 361 613 l 2
 355 620 349 627 347 630 c 0
 344 633 340 635 336 636 c 0
 332 637 327 639 325 640 c 0
 323 641 321 642 320 643 c 2
 318 644 314 647 310 649 c 0
 305 652 301 653 294 653 c 2
 274 653 l 2
 265 654 261 654 258 652 c 0
 256 651 252 649 249 647 c 0
 246 645 241 644 239 643 c 0
 236 642 228 639 220 635 c 0
 213 632 205 627 203 625 c 0
 201 623 197 617 195 611 c 1
 192 606 188 599 185 595 c 0
 182 591 180 586 179 582 c 1
 179 578 177 573 176 571 c 0
 175 569 173 565 171 563 c 0
 169 561 166 558 164 557 c 0
 162 556 153 555 139 555 c 2
 110 555 l 1
 74 555 l 2
 45 555 45 555 39 561 c 0
 35 566 33 569 32 575 c 1
 30 581 30 584 32 590 c 0
 33 594 37 601 40 605 c 0
 42 609 46 617 48 624 c 1
 51 630 54 638 56 641 c 0
 59 644 62 648 63 651 c 0
 64 653 69 660 74 665 c 0
 79 671 85 678 87 681 c 0
 89 684 94 690 97 694 c 1
 101 698 105 701 105 701 c 1
 106 701 110 704 115 707 c 0
 119 710 128 715 133 717 c 0
 139 720 148 723 153 725 c 0
 159 727 165 729 167 730 c 1
 170 730 177 733 183 736 c 0
 194 741 194 741 217 742 c 0
 232 742 242 743 248 744 c 1
EndSplineSet
Validated: 33
EndChar
StartChar: uni0038
Encoding: 56 56 25
Width: 567
GlyphClass: 2
Flags: W
LayerCount: 2
Fore
SplineSet
315 323 m 1
 312 325 305 325 289 326 c 0
 268 326 266 326 256 323 c 0
 251 321 245 319 244 319 c 0
 242 319 237 317 231 315 c 0
 226 313 218 309 215 307 c 0
 212 305 207 300 204 297 c 0
 201 294 196 287 193 281 c 2
 189 276 186 269 185 266 c 0
 184 263 182 257 179 254 c 1
 177 250 174 245 173 242 c 0
 172 238 171 225 171 201 c 0
 171 167 171 167 175 156 c 0
 178 149 182 141 186 137 c 0
 190 133 195 125 199 120 c 0
 202 115 207 108 211 106 c 1
 214 103 219 98 223 96 c 2
 226 93 232 90 236 89 c 0
 240 88 246 87 249 86 c 0
 254 84 264 83 288 83 c 0
 319 83 322 83 331 86 c 0
 337 88 345 92 349 95 c 1
 360 106 l 2
 362 108 365 113 368 115 c 0
 370 117 373 119 374 120 c 1
 376 120 381 125 386 131 c 0
 391 136 396 143 397 145 c 1
 397 147 398 152 398 157 c 0
 398 162 399 169 401 172 c 1
 402 177 403 185 403 203 c 0
 403 221 403 230 401 233 c 0
 400 235 399 242 398 247 c 0
 397 253 395 261 393 265 c 0
 391 269 386 276 383 280 c 1
 379 283 372 289 368 292 c 0
 363 295 357 301 353 305 c 1
 350 310 345 314 341 316 c 0
 338 318 332 319 327 320 c 0
 323 320 318 322 315 323 c 1
297 643 m 0
 289 643 279.999 644 275.999 644 c 0
 274.827 644.293 273.57 644.414 272.277 644.414 c 0
 269.156 644.414 265.828 643.707 263 643 c 1
 259 641 254 639 250 637 c 0
 247 635 240 632 236 630 c 1
 232 629 226 626 223 625 c 0
 220 624 215 620 212 617 c 0
 208 614 203 610 200 607 c 0
 197 605 192 599 190 593 c 2
 187 588 184 578 182 571 c 0
 178 559 178 557 179 546 c 0
 180 539 181 533 182 532 c 1
 182 531 183 526 184 520 c 1
 184 515 186 506 187 500 c 0
 188 494 191 484 194 479 c 0
 198 471 202 466 210 458 c 0
 217 452 225 446 228 444 c 0
 232 442 237 441 241 441 c 0
 244 441 251 440 255 438 c 2
 260 437 268 434 272 433 c 0
 279 431 286 430 299 430 c 0
 315 430 318 431 325 434 c 0
 329 436 334 439 335 440 c 2
 337 441 344 445 351 449 c 0
 358 453 365 457 367 459 c 0
 369 461 372 465 375 469 c 0
 378 474 382 480 385 483 c 0
 388 486 391 491 392 494 c 0
 393 497 394 503 394 508 c 1
 395 514 397 521 398 524 c 0
 400 528 402 533 402 536 c 1
 403 539 401 547 396 561 c 0
 392 573 388 585 386 589 c 0
 384 593 380 599 377 603 c 0
 374 607 371 611 370 611 c 1
 369 612 363 616 358 622 c 0
 352 628 346 633 344 634 c 0
 341 635 336 637 331 637 c 1
 326 638 320 639 317 640 c 0
 314 641 306 642 297 643 c 0
323.999 738 m 0
 325.999 739 328.999 739 331.999 739 c 0
 335.999 739 339.999 738 343.999 735 c 0
 349.999 731 353.999 730 360.999 729 c 0
 366.999 728 374.999 727 380.999 725 c 0
 385.999 724 391.999 722 394.999 720 c 1
 397.999 719 404.999 716 410.999 714 c 0
 416.999 712 423.999 710 426.999 709 c 0
 428.999 708 436.999 702 444.999 696 c 0
 452.999 690 462.999 684 466.999 681 c 0
 470.999 679 475.999 676 477.999 674 c 0
 480.999 672 483.999 670 485.999 668 c 0
 487.999 666 489.999 663 490.999 660 c 1
 492.999 658 493.999 652 494.999 648 c 0
 495.999 642 497.999 638 502.999 633 c 0
 505.999 630 507.999 626 507.999 626 c 1
 507.999 625 509.999 620 512.999 616 c 1
 514.999 611 518.999 605 520.999 601 c 0
 522.999 597 525.999 592 527.999 589 c 1
 529.999 584 529.999 579 529.999 567 c 0
 529.999 558 530.999 547 531.999 542 c 0
 533.999 534 533.999 533 529.999 528 c 0
 526.999 523 525.999 520 524.999 513 c 1
 524.999 508 523.999 502 522.999 500 c 1
 521.999 499 519.999 494 518.999 491 c 0
 516.999 487 513.999 482 510.999 478 c 0
 508.999 475 503.999 468 500.999 462 c 1
 498.999 456 494.999 448 492.999 446 c 0
 490.999 443 486.999 439 483.999 438 c 1
 480.999 436 474.999 431 470.999 427 c 1
 465.999 424 459.999 419 455.999 417 c 1
 451.999 416 445.999 414 441.999 413 c 0
 436.999 412 431.999 411 427.999 410 c 0
 424.999 409 418.999 409 414.999 409 c 0
 411.999 409 405.999 408 402.999 406 c 1
 398.999 405 397.999 403 396.999 398 c 0
 395.999 394 393.999 390 393.999 389 c 1
 392.999 388 391.999 385 391.999 383 c 0
 391.999 380 394.999 377 400.999 372 c 0
 405.999 368 411.999 364 412.999 363 c 1
 414.999 362 419.999 360 424.999 358 c 0
 428.999 356 434.999 354 437.999 353 c 1
 440.999 353 443.999 352 444.999 351 c 0
 445.999 350 450.999 348 455.999 346 c 0
 461.999 343 465.999 340 469.999 334 c 1
 473.999 330 479.999 325 483.999 322 c 0
 487.999 319 492.999 315 494.999 313 c 0
 496.999 310 502.999 304 507.999 300 c 0
 511.999 296 516.999 291 517.999 289 c 0
 518.999 287 520.999 280 522.999 274 c 0
 524.999 268 526.999 259 527.999 254 c 0
 527.999 250 530.999 241 532.999 235 c 0
 534.999 229 536.999 219 537.999 214 c 0
 537.999 210 538.443 205.556 538.443 201.556 c 0
 538.443 199.556 538.332 197.667 537.999 196 c 0
 536.999 192 535.999 185 535.999 180 c 0
 535.999 175 534.999 168 532.999 163 c 0
 531.999 159 528.999 151 526.999 145 c 0
 525.999 140 522.999 131 521.999 126 c 1
 519.999 121 516.999 113 514.999 109 c 0
 512.999 105 507.999 97 502.999 92 c 0
 497.999 86 492.999 80 491.999 79 c 2
 490.999 77 488.999 74 486.999 71 c 0
 484.999 69 475.999 62 467.999 55 c 0
 458.999 49 450.999 42 448.999 40 c 1
 447.999 38 442.999 34 437.999 30 c 0
 432.999 27 427.999 23 426.999 23 c 2
 424.999 22 420.999 21 416.999 20 c 0
 412.999 19 405.999 17 400.999 15 c 0
 396.999 13 391.999 11 389.999 10 c 0
 387.999 9 383.999 7 378.999 6 c 2
 374.999 4 367.999 3 363.999 3 c 0
 359.999 3 353.999 1 348.999 0 c 1
 344.999 -2 339.999 -3 336.999 -3 c 0
 334.999 -3 327.999 -4 321.999 -6 c 0
 315.999 -8 308.999 -9 304.999 -9 c 0
 300.999 -9 295.999 -8 291.999 -7 c 1
 288.999 -5 283.999 -5 281.999 -5 c 1
 279.999 -6 273.999 -8 269.999 -11 c 1
 264.999 -13 258.999 -15 255.999 -15 c 0
 253.999 -15 249.999 -14 245.999 -13 c 0
 242.999 -12 238.999 -10 236.999 -9 c 1
 235.999 -7 231.999 -6 229.999 -5 c 0
 227.999 -4 222.999 -3 217.999 -3 c 0
 212.999 -3 206.999 -2 197.999 2 c 0
 190.999 5 182.999 8 176.999 8 c 1
 171.999 9 163.999 10 158.999 12 c 1
 152.999 13 146.999 15 144.999 15 c 1
 141.999 16 136.999 20 130.999 25 c 1
 125.999 31 119.999 36 115.999 39 c 0
 111.999 41 103.999 48 96.999 55 c 0
 89.999 62 84.999 68 84.999 69 c 1
 84.999 69 80.999 74 75.999 78 c 0
 70.999 82 66.999 86 66.999 87 c 0
 66.999 88 65.999 90 63.999 92 c 0
 62.999 93 57.999 102 52.999 111 c 0
 48.999 120 42.999 134 39.999 142 c 0
 36.999 151 33.999 162 32.999 167 c 0
 31.999 173 31.999 180 31.999 184 c 0
 31.999 188 31.999 198 32.999 206 c 0
 33.999 214 35.999 223 35.999 225 c 2
 36.999 228 37.999 235 38.999 241 c 1
 38.999 247 40.999 254 41.999 257 c 0
 42.999 260 45.999 266 47.999 270 c 0
 49.999 275 54.999 282 59.999 287 c 0
 63.999 292 68.999 296 68.999 297 c 1
 69.999 297 70.999 300 72.999 303 c 0
 74.999 306 76.999 311 78.999 314 c 0
 80.999 318 86.999 326 92.999 332 c 0
 99.999 339 107.999 345 112.999 348 c 1
 117.999 350 123.999 353 125.999 353 c 1
 128.999 354 132.999 355 134.999 355 c 0
 136.999 355 141.999 356 145.999 357 c 0
 149.999 358 155.999 359 157.999 360 c 0
 160.999 361 164.999 363 167.999 365 c 1
 169.999 368 171.999 372 172.999 375 c 0
 173.999 379 173.999 382 172.999 386 c 0
 171.999 390 169.999 393 164.999 396 c 2
 161.999 399 153.999 402 148.999 404 c 1
 142.999 405 135.999 409 131.999 411 c 0
 127.999 414 119.999 418 113.999 421 c 0
 103.999 425 99.999 429 84.999 443 c 2
 64.999 463 l 1
 63.999 465 60.999 469 59.999 472 c 0
 58.999 476 55.999 483 53.999 488 c 1
 52.999 493 49.999 501 48.999 505 c 0
 47.999 509 45.999 518 44.999 525 c 0
 43.999 532 42.999 541 41.999 545 c 0
 39.999 551 39.999 553 40.999 557 c 1
 42.999 559 43.999 563 44.999 566 c 1
 44.999 569 45.999 572 46.999 572 c 1
 46.999 573 49.999 579 51.999 585 c 0
 53.999 591 55.999 600 56.999 604 c 1
 56.999 607 58.999 613 59.999 615 c 0
 60.999 617 62.999 621 64.999 623 c 0
 66.999 625 68.999 629 69.999 631 c 1
 71.999 632 74.999 637 77.999 640 c 0
 80.999 643 84.999 650 87.999 655 c 0
 90.999 660 94.999 667 97.999 670 c 0
 100.999 674 103.999 677 104.999 677 c 1
 104.999 678 109.999 681 113.999 685 c 1
 118.999 688 125.999 694 130.999 697 c 0
 134.999 700 139.999 703 141.999 704 c 1
 143.999 704 148.999 706 152.999 706 c 1
 156.999 707 161.999 708 163.999 710 c 0
 164.999 711 167.999 713 169.999 715 c 1
 171.999 716 175.999 717 178.999 718 c 0
 181.999 719 187.999 721 192.999 724 c 0
 199.999 727 203.999 728 216.999 729 c 0
 224.999 730 233.999 731 236.999 732 c 0
 241.999 734 253.999 735 281.999 736 c 0
 302.999 736 321.999 737 323.999 738 c 0
EndSplineSet
Validated: 33
EndChar
StartChar: uni003D
Encoding: 61 61 30
Width: 538
GlyphClass: 2
Flags: W
LayerCount: 2
Fore
SplineSet
105 289 m 0
 108 291 111 291.999 111 291.999 c 1
 111 291.999 117 290.999 125 289.999 c 1
 132 287.999 140 285.999 142 284.999 c 0
 144 283.999 152 282.999 158 282.999 c 0
 164 282.999 173 283.999 178 285.999 c 1
 183 286.999 198 287.999 224 287.999 c 0
 234.5 288.499 246.5 288.749 257.25 288.749 c 0
 268 288.749 277.5 288.499 283 287.999 c 0
 290 287.499 296.75 287.249 303.375 287.249 c 0
 310 287.249 316.497 287.534 323 287.999 c 0
 337 288.999 345 288.999 350 287.999 c 0
 352.5 287.499 359 287.249 369.125 287.249 c 0
 379.25 287.249 393 287.499 410 287.999 c 0
 429.333 287.999 449.556 288.443 463.556 288.443 c 0
 470.556 288.443 476 288.332 479 287.999 c 0
 495 286.999 495 286.999 502 280.999 c 0
 506 276.999 510 272.999 510 271.999 c 2
 510.5 271.499 510.75 267.249 510.75 260.874 c 0
 510.75 254.499 510.5 245.999 510 236.999 c 0
 509 206.999 509 202.999 506 196.999 c 0
 504 193.999 501 189.999 500 187.999 c 1
 498 185.999 494 182.999 491 181.999 c 0
 488.929 181.585 487.372 181.343 485.69 181.343 c 0
 483.312 181.343 480.686 181.828 475.999 183 c 0
 467.999 185 452.999 185 306.999 185 c 2
 94.999 185 l 2
 57.999 185 40.999 185 37.999 187 c 0
 35.999 188 32.999 190 30.999 193 c 0
 28.999 196 25.999 200 24.999 203 c 0
 24.2354 204.91 23.9092 206.236 23.9092 207.48 c 0
 23.9092 209.493 24.7637 211.292 26 215 c 0
 28 221 28 226 28 245 c 0
 28 261 28 269 29 271 c 0
 30 273 34 277 37 279 c 0
 40 282 44 284 46 284 c 0
 47 284 53 285 58 286 c 0
 66 288 69 288 75 287 c 0
 79 286 86 285 90 285 c 0
 95 285 100 286 105 289 c 0
166 509.999 m 1
 167 510.999 171.001 510.999 174.001 510.999 c 0
 177.001 510.999 183.001 509.999 188.001 507.999 c 0
 196.001 505.999 199.001 504.999 243.001 504.999 c 0
 268.001 504.999 297.001 505.999 307.001 505.999 c 2
 392.001 505.999 l 2
 429.001 506.999 462.001 506.999 464.001 506.999 c 1
 466.001 507.999 471.001 508.999 474.001 509.999 c 0
 478.001 510.999 481.001 510.999 485.001 508.999 c 2
 488.001 508.999 493.001 505.999 495.001 503.999 c 2
 504.001 494.999 l 1
 507.001 490.999 509.001 485.999 510.001 480.999 c 0
 511.001 475.999 512.001 470.999 513.001 467.999 c 0
 514.001 465.999 515.001 461.999 515.001 458.999 c 0
 515.001 454.999 514.001 450.999 513.001 448.999 c 0
 512.001 445.999 511.001 437.999 511.001 429.999 c 0
 511.001 414.999 511.001 413.999 506.001 409.999 c 0
 504.001 407.999 500.001 404.999 497.001 404.999 c 0
 495.001 404.999 489.001 403.999 484.001 402.999 c 0
 479.001 401.999 472.001 399.999 469.001 398.999 c 0
 466.001 397.999 461.001 396.999 459.001 396.999 c 0
 457.001 396.999 452.001 397.999 447.001 399.999 c 0
 440.001 401.999 434.001 401.999 390.001 401.999 c 0
 363.001 401.999 317.001 401.999 288.001 402.999 c 0
 260.001 402.999 233.001 402.999 230.001 401.999 c 1
 226.001 401.999 219.001 400.999 214.001 400.999 c 0
 208.001 400.999 204.001 401.999 201.001 402.999 c 1
 199.001 404.999 196.001 404.999 191.001 404.999 c 1
 188.001 403.999 169.001 402.999 151.001 402.999 c 0
 132.001 401.999 114.001 400.999 110.001 400.999 c 0
 107.001 400.999 91.001 401.999 74.001 401.999 c 0
 52.001 402.999 44.001 403.999 40.001 405.999 c 0
 37.001 406.999 33.001 409.999 32.001 411.999 c 2
 30.001 413.999 28.001 416.999 27.001 419.999 c 0
 26.001 423.999 26.001 426.999 27.001 434.999 c 1
 29.001 439.999 30.001 448.999 30.001 455.999 c 0
 30.001 462.999 29.001 471.999 27.001 475.999 c 1
 26.001 479.999 25.001 484.999 26.001 486.999 c 2
 26.001 488.999 29.001 492.999 31.001 495.999 c 0
 34.001 498.999 38.001 501.999 42.001 502.999 c 0
 47.001 504.999 54.001 505.999 83.001 505.999 c 0
 90.9092 506.292 97.2734 506.413 102.47 506.413 c 0
 115.016 506.413 120.758 505.706 125 504.999 c 1
 130 502.999 136 502.999 138 502.999 c 1
 140 503.999 147 504.999 152 505.999 c 0
 158 506.999 164 508.999 166 509.999 c 1
EndSplineSet
Validated: 33
EndChar
StartChar: uni0041
Encoding: 65 65 34
Width: 747
GlyphClass: 2
Flags: W
LayerCount: 2
Fore
SplineSet
363 599 m 0
 362 600 360.001 599.999 358.001 599.999 c 0
 357.001 599.999 354.001 598.999 352.001 596.999 c 0
 350.001 594.999 348.001 590.999 347.001 587.999 c 1
 345.001 585.999 342.001 577.999 338.001 570.999 c 0
 335.001 563.999 332.001 554.999 331.001 550.999 c 0
 330.001 546.999 326.001 536.999 322.001 528.999 c 0
 317.001 518.999 315.001 511.999 314.001 505.999 c 1
 314.001 500.999 313.001 495.999 312.001 494.999 c 1
 311.001 492.999 309.001 488.999 307.001 483.999 c 0
 305.001 478.999 303.001 474.999 303.001 473.999 c 0
 303.001 472.999 302.001 471.999 301.001 470.999 c 0
 300.001 469.999 298.001 465.999 297.001 461.999 c 0
 296.001 457.999 294.001 451.999 292.001 448.999 c 2
 288.001 440.999 l 1
 286.001 438.999 285.001 434.999 285.001 430.999 c 1
 284.001 426.999 283.001 419.999 281.001 415.999 c 2
 280.001 411.999 277.001 404.999 274.001 399.999 c 0
 271.001 394.999 268.001 388.999 268.001 384.999 c 1
 267.001 381.999 265.001 376.999 264.001 373.999 c 0
 263.001 371.999 261.001 366.999 260.001 362.999 c 1
 260.001 358.999 257.001 349.999 254.001 343.999 c 0
 251.001 336.999 248.001 329.999 246.001 327.999 c 1
 245.001 324.999 244.001 319.999 243.001 315.999 c 1
 243.001 311.999 241.001 304.999 239.001 300.999 c 0
 237.001 296.999 235.001 290.999 235.001 288.999 c 0
 235.001 286.999 237.001 282.999 240.001 278.999 c 0
 243.001 275.999 247.001 271.999 249.001 270.999 c 0
 252.001 269.999 268.001 269.999 289.001 269.999 c 0
 320.001 269.999 325.001 269.999 332.001 272.999 c 0
 339.001 274.999 344.001 274.999 360.001 274.999 c 0
 376.001 274.999 381.001 274.999 390.001 271.999 c 0
 395.501 270.499 398.251 269.749 401.001 269.749 c 0
 403.751 269.749 406.501 270.499 412.001 271.999 c 0
 421.001 274.999 424.001 274.999 428.001 272.999 c 0
 431.001 271.999 439.001 271.999 447.001 271.999 c 0
 455.001 271.999 464.001 272.999 469.001 274.999 c 0
 473.001 275.999 479.001 278.999 480.001 280.999 c 1
 482.001 282.999 484.001 286.999 484.001 290.999 c 0
 484.415 292.656 484.657 294.142 484.657 295.526 c 0
 484.657 297.484 484.172 299.242 483 301 c 2
 482 304 479 308 478 310 c 1
 476 312 474 317 472 320 c 0
 471 322 469 328 469 332 c 0
 468 338 465 346 459 358 c 0
 454 368 450 377 450 378 c 0
 450 379 447 386 443 392 c 0
 439 399 436 405 435 406 c 1
 434 408 432 411 431 414 c 0
 429 418 428 424 427 429 c 1
 427 434 425 441 424 445 c 1
 422 448 420 453 419 456 c 2
 417 459 416 466 416 470 c 0
 415 475 413 483 411 488 c 0
 409 493 406 499 405 501 c 0
 404 504 403 507 403 508 c 0
 403 509 401 513 399 518 c 0
 397 522 395 527 394 529 c 1
 393 530 392 534 392 537 c 1
 391 541 389 547 387 551 c 0
 385 555 382 561 381 565 c 0
 379 570 375 578 372 585 c 0
 369 591 365 597 363 599 c 0
313.001 720.999 m 0
 314.001 721.999 318.001 721.999 321.001 721.999 c 1
 323.001 720.999 329.001 720.999 332.001 720.999 c 0
 336.001 720.999 342.001 720.999 346.001 721.999 c 1
 351.001 721.999 354.001 721.999 359.001 719.999 c 0
 365.001 717.999 366.001 717.999 372.001 719.999 c 0
 377.001 721.999 385.001 721.999 405.001 721.999 c 0
 423.001 721.999 432.001 721.999 434.001 720.999 c 0
 436.001 719.999 439.001 716.999 441.001 715.999 c 1
 443.001 713.999 445.001 710.999 446.001 708.999 c 2
 448.001 706.999 450.001 698.999 453.001 692.999 c 2
 455.001 685.999 458.001 677.999 459.001 675.999 c 0
 461.001 672.999 462.001 669.999 462.001 668.999 c 0
 462.001 667.999 463.001 664.999 465.001 661.999 c 0
 467.001 658.999 470.001 652.999 472.001 648.999 c 2
 479.001 631.999 l 2
 481.001 626.999 484.001 619.999 485.001 615.999 c 0
 486.001 611.999 487.001 607.999 488.001 606.999 c 0
 489.001 605.999 490.001 601.999 491.001 598.999 c 0
 492.001 594.999 494.001 588.999 496.001 585.999 c 2
 497.001 582.999 500.001 579.999 501.001 577.999 c 2
 502.001 576.999 504.001 570.999 506.001 565.999 c 0
 509.001 559.999 511.001 554.999 512.001 553.999 c 1
 512.001 552.999 513.001 548.999 514.001 545.999 c 1
 514.001 541.999 517.001 533.999 520.001 526.999 c 0
 523.001 520.999 526.001 513.999 527.001 511.999 c 0
 528.001 509.999 529.001 506.999 530.001 505.999 c 0
 531.001 504.999 533.001 500.999 534.001 497.999 c 0
 535.001 494.999 537.001 488.999 538.001 483.999 c 0
 539.001 478.999 542.001 469.999 545.001 463.999 c 0
 549.001 456.999 553.001 448.999 556.001 445.999 c 0
 559.001 441.999 560.001 438.999 561.001 432.999 c 0
 561.001 428.999 563.001 422.999 564.001 420.999 c 0
 565.001 417.999 568.001 412.999 569.001 408.999 c 0
 571.001 403.999 572.001 398.999 572.001 395.999 c 0
 572.001 392.999 573.001 387.999 573.001 384.999 c 1
 574.001 380.999 578.001 372.999 583.001 366.999 c 1
 587.001 359.999 592.001 352.999 593.001 349.999 c 0
 594.001 347.999 596.001 342.999 597.001 338.999 c 0
 598.001 335.999 600.001 330.999 602.001 328.999 c 2
 603.001 326.999 606.001 322.999 608.001 320.999 c 1
 610.001 319.999 613.001 314.999 614.001 310.999 c 2
 616.001 307.999 618.001 301.999 619.001 297.999 c 0
 620.001 294.999 623.001 285.999 626.001 278.999 c 0
 629.001 271.999 631.001 263.999 631.001 259.999 c 0
 631.001 256.999 631.001 251.999 632.001 247.999 c 0
 633.001 244.999 635.001 240.999 636.001 239.999 c 0
 637.001 238.999 640.001 232.999 642.001 225.999 c 0
 644.001 219.999 646.001 213.999 647.001 212.999 c 1
 647.001 211.999 648.001 208.999 649.001 205.999 c 0
 650.001 203.999 652.001 196.999 655.001 191.999 c 0
 657.001 187.999 661.001 180.999 663.001 176.999 c 1
 666.001 173.999 669.001 166.999 671.001 162.999 c 1
 672.001 158.999 673.001 153.999 673.001 151.999 c 0
 673.001 149.999 676.001 141.999 680.001 132.999 c 0
 684.001 122.999 688.001 112.999 690.001 109.999 c 2
 697.001 98.999 l 2
 700.001 94.999 701.001 91.999 702.001 83.999 c 0
 702.001 75.999 703.001 72.999 708.001 65.999 c 0
 711.001 61.999 715.001 52.999 717.001 46.999 c 0
 719.001 40.999 722.001 33.999 723.001 30.999 c 1
 725.001 27.999 725.001 21.999 726.001 15.999 c 1
 726.001 4.99902 725.001 4.99902 721.001 0.999023 c 0
 717.001 -3.00098 716.001 -3.00098 697.001 -4.00098 c 0
 686.001 -5.00098 663.001 -5.00098 647.001 -5.00098 c 0
 616.001 -5.00098 616.001 -5.00098 611.001 -0.000976562 c 0
 608.001 1.99902 602.001 5.99902 598.001 7.99902 c 0
 594.001 9.99902 590.001 13.999 589.001 15.999 c 2
 588.001 16.999 586.001 20.999 586.001 23.999 c 1
 585.001 26.999 583.001 32.999 580.001 37.999 c 0
 577.001 42.999 575.001 49.999 574.001 52.999 c 1
 574.001 55.999 572.001 60.999 570.001 64.999 c 0
 569.001 67.999 567.001 71.999 567.001 72.999 c 0
 567.001 73.999 566.001 76.999 564.001 78.999 c 0
 562.001 81.999 560.001 84.999 559.001 86.999 c 0
 558.001 88.999 555.001 97.999 553.001 105.999 c 0
 550.001 114.999 547.001 123.999 545.001 125.999 c 1
 544.001 128.999 541.001 134.999 540.001 140.999 c 1
 537.001 148.999 535.001 151.999 528.001 158.999 c 0
 523.001 162.999 518.001 166.999 517.001 166.999 c 2
 470.001 166.999 l 1
 394.001 166.999 l 2
 367.001 166.999 363.001 166.999 359.001 168.999 c 0
 354.001 170.999 350.001 171.999 334.001 171.999 c 0
 323.001 170.999 311.001 170.999 307.001 169.999 c 0
 302.001 167.999 280.001 166.999 249.001 166.999 c 0
 199.001 165.999 199.001 165.999 191.001 161.999 c 0
 184.001 157.999 181.001 155.999 180.001 151.999 c 1
 179.001 149.999 178.001 144.999 178.001 140.999 c 0
 178.001 135.999 177.001 130.999 173.001 125.999 c 1
 171.001 120.999 168.001 114.999 167.001 111.999 c 1
 167.001 107.999 165.001 102.999 164.001 100.999 c 0
 162.001 97.999 160.001 93.999 159.001 92.999 c 0
 158.001 91.999 156.001 86.999 155.001 81.999 c 0
 154.001 76.999 151.001 68.999 149.001 64.999 c 0
 146.001 59.999 141.001 45.999 137.001 33.999 c 0
 133.001 19.999 129.001 10.999 126.001 6.99902 c 0
 124.001 3.99902 119.001 0.999023 116.001 -1.00098 c 1
 111.001 -2.00098 104.001 -4.00098 93.001 -4.00098 c 0
 83.001 -5.00098 72.001 -6.00098 68.001 -7.00098 c 0
 63.001 -9.00098 57.001 -10.001 54.001 -10.001 c 0
 52.001 -10.001 46.001 -8.00098 41.001 -7.00098 c 1
 37.001 -5.00098 30.001 -4.00098 27.001 -4.00098 c 0
 22.001 -4.00098 20.001 -3.00098 14.001 1.99902 c 0
 11.001 4.99902 7.00098 9.99902 6.00098 11.999 c 0
 5.33398 13.332 5.00098 14.4434 5.00098 15.8135 c 0
 5.00098 18.5547 6.33398 22.332 9.00098 30.999 c 0
 12.001 38.999 16.001 48.999 17.001 52.999 c 0
 18.001 56.999 21.001 61.999 22.001 63.999 c 2
 26.001 71.999 l 2
 27.001 74.999 28.001 78.999 28.001 80.999 c 0
 28.001 82.999 30.001 89.999 33.001 96.999 c 0
 36.001 103.999 41.001 112.999 44.001 115.999 c 1
 47.001 120.999 50.001 125.999 52.001 133.999 c 0
 53.001 139.999 55.001 147.999 56.001 151.999 c 0
 57.001 154.999 58.001 158.999 59.001 159.999 c 1
 60.001 161.999 61.001 164.999 62.001 167.999 c 1
 64.001 170.999 66.001 177.999 68.001 183.999 c 2
 71.001 189.999 73.001 197.999 74.001 199.999 c 0
 75.001 202.999 77.001 207.999 78.001 209.999 c 0
 80.001 212.999 82.001 216.999 83.001 218.999 c 2
 84.001 219.999 86.001 225.999 86.001 230.999 c 1
 87.001 234.999 88.001 240.999 89.001 241.999 c 2
 89.001 243.999 91.001 246.999 93.001 247.999 c 1
 94.001 249.999 98.001 256.999 102.001 263.999 c 0
 106.001 271.999 109.001 279.999 110.001 282.999 c 1
 110.001 285.999 112.001 291.999 113.001 295.999 c 1
 115.001 299.999 117.001 304.999 118.001 306.999 c 1
 118.001 308.999 121.001 313.999 123.001 318.999 c 0
 125.001 323.999 128.001 328.999 129.001 329.999 c 1
 130.001 329.999 132.001 335.999 134.001 341.999 c 2
 137.001 347.999 140.001 354.999 141.001 358.999 c 2
 143.001 361.999 145.001 367.999 145.001 371.999 c 0
 145.001 375.999 146.001 379.999 147.001 381.999 c 0
 148.001 383.999 150.001 388.999 152.001 394.999 c 1
 155.001 399.999 157.001 404.999 158.001 405.999 c 1
 159.001 407.999 160.001 408.999 160.001 409.999 c 1
 160.001 409.999 162.001 412.999 163.001 414.999 c 0
 165.001 417.999 167.001 424.999 168.001 430.999 c 2
 170.001 436.999 172.001 445.999 173.001 449.999 c 0
 174.001 453.999 176.001 458.999 177.001 460.999 c 0
 178.001 462.999 180.001 465.999 182.001 467.999 c 0
 184.001 470.999 186.001 474.999 186.001 478.999 c 1
 187.001 482.999 188.001 487.999 189.001 490.999 c 0
 190.001 493.999 192.001 495.999 193.001 496.999 c 0
 194.001 497.999 197.001 503.999 198.001 508.999 c 0
 200.001 514.999 203.001 520.999 204.001 522.999 c 1
 206.001 524.999 208.001 528.999 209.001 532.999 c 0
 210.001 535.999 213.001 543.999 216.001 549.999 c 1
 218.001 555.999 221.001 563.999 222.001 567.999 c 1
 222.001 573.999 224.001 577.999 227.001 581.999 c 0
 229.001 584.999 234.001 593.999 237.001 600.999 c 0
 240.001 608.999 244.001 617.999 246.001 620.999 c 0
 248.001 623.999 250.001 627.999 251.001 629.999 c 1
 251.001 631.999 252.001 633.999 253.001 634.999 c 1
 253.001 635.999 255.001 639.999 256.001 643.999 c 0
 257.001 647.999 259.001 653.999 261.001 657.999 c 0
 262.001 660.999 267.001 668.999 271.001 673.999 c 2
 285.001 695.999 l 1
 288.001 702.999 292.001 709.999 295.001 711.999 c 0
 297.001 713.999 301.001 716.999 305.001 717.999 c 0
 308.001 718.999 312.001 719.999 313.001 720.999 c 0
EndSplineSet
Validated: 33
EndChar
StartChar: uni0049
Encoding: 73 73 42
Width: 269
GlyphClass: 2
Flags: W
LayerCount: 2
Fore
SplineSet
93 735 m 0
 94.333 735.333 97.1113 735.445 100.889 735.445 c 0
 108.444 735.445 120 735.001 132 735.001 c 0
 152 735.001 164 734.001 167 733.001 c 0
 169 732.001 173 730.001 176 730.001 c 1
 180 729.001 185 727.001 188 726.001 c 1
 191 724.001 195 721.001 198 718.001 c 0
 201 714.001 202 711.001 202 707.001 c 0
 202 705.001 203 699.001 205 694.001 c 0
 207 688.001 208 681.001 208 674.001 c 0
 208 665.001 208 661.001 206 657.001 c 0
 203 653.001 203 648.001 203 631.001 c 2
 203 488.001 l 2
 202.667 465.668 202.556 441.445 202.556 417.704 c 0
 202.556 370.223 203 324.667 203 300 c 0
 203 263 204 221 204 206 c 0
 205 192 205 178 206 175 c 0
 207 173 207 166 207 159 c 1
 206 153 206 142 207 134 c 2
 207 106 l 2
 207 97 207 80 206 67 c 0
 205 54 205 43 205 42 c 0
 205 41 205 37 206 33 c 1
 206 29 205 23 204 20 c 0
 203 17 201 13 199 10 c 0
 198 8 194 5 192 4 c 0
 189 3 180 1 171 1 c 0
 163 0 152 -1 148 -1 c 2
 144 -2 130 -3 118 -3 c 0
 104 -3 93 -2 90 -1 c 0
 86 0 81 2 79 4 c 0
 76 6 72 9 71 12 c 0
 70 15 67 19 66 22 c 0
 65 26 64 31 64 34 c 0
 64 38 65 42 66 45 c 0
 67 47 68 51 68 52 c 0
 68 54 67 58 66 61 c 0
 64 65 64 71 64 90 c 0
 65 103 66 120 67 128 c 0
 69 140 68 143 66 152 c 0
 65 159 64 168 64 193 c 0
 64 218 64 226 66 231 c 0
 68 237 68 239 66 247 c 0
 64 255 64 267 64 322 c 2
 64 431 l 2
 64 460 65 477 66 480 c 0
 67 484 67 486 66 490 c 0
 65 494 64 512 64 537 c 0
 64 572 63 580 61 587 c 0
 59 592 58 599 58 606 c 0
 58 612 59 619 61 625 c 0
 64 633 64 637 64 663 c 0
 64 679 64 695 63 699 c 0
 62 705 63 708 65 712 c 0
 66 715 71 721 77 726 c 0
 85 734 87 735 93 735 c 0
EndSplineSet
Validated: 33
EndChar
StartChar: uni004F
Encoding: 79 79 48
Width: 779
GlyphClass: 2
Flags: W
LayerCount: 2
Fore
SplineSet
433 641 m 0
 431 642 419 643 405 643 c 2
 377 643 l 1
 375 642 370 641 367 640 c 0
 364 639 355 638 348 637 c 1
 341 637 332 635 328 634 c 0
 324 633 317 630 313 628 c 0
 309 626 304 625 302 625 c 0
 300 625 293 622 286 618 c 0
 277 613 270 608 262 600 c 0
 255 594 248 585 245 581 c 0
 243 577 240 573 239 571 c 0
 238 569 237 566 235 564 c 2
 234 562 231 558 228 554 c 0
 225 550 222 545 220 542 c 0
 218 539 216 535 216 531 c 1
 215 528 213 523 210 520 c 0
 208 517 205 513 205 511 c 1
 204 509 203 505 203 503 c 0
 203 500 201 494 199 489 c 0
 196 483 193 476 192 472 c 0
 191 468 189 462 188 459 c 0
 186 453 185 445 185 396 c 0
 186 365 186 337 187 333 c 2
 187 329 188 323 189 321 c 0
 190 319 192 306 192 294 c 0
 193 278 194 268 196 262 c 0
 197 257 200 246 202 237 c 0
 204 224 206 218 209 213 c 1
 212 210 214 204 214 201 c 1
 215 199 216 194 217 191 c 0
 218 188 221 182 223 177 c 1
 226 172 231 165 235 161 c 1
 238 157 244 149 247 144 c 0
 251 139 257 132 260 128 c 1
 264 124 270 121 274 120 c 0
 277 119 284 116 288 113 c 0
 293 110 300 106 304 102 c 0
 307 99 313 96 316 95 c 1
 319 95 325 94 330 94 c 0
 336 94 340 93 349 88 c 0
 360 83 360 83 397 83 c 0
 431 83 434 83 443 86 c 0
 448 88 454 90 455 91 c 1
 457 92 460 94 463 95 c 1
 465 97 469 99 471 100 c 0
 473 101 477 104 480 105 c 1
 482 107 487 109 489 111 c 1
 492 112 497 116 500 118 c 0
 504 120 510 126 514 129 c 1
 530 145 l 2
 535 150 543 159 547 166 c 0
 551 173 557 182 559 187 c 2
 562 192 565 198 567 201 c 0
 569 204 572 209 573 214 c 0
 574 218 575 223 575 224 c 0
 575 225 577 229 578 233 c 0
 580 238 582 245 582 253 c 0
 582 260 584 268 585 271 c 0
 586 274 588 284 588 292 c 0
 588 301 590 310 591 312 c 0
 592 314 593 319 593 324 c 0
 593 328 592 334 591 338 c 1
 589 342 589 349 589 364 c 0
 589 375 589 398 587 414 c 0
 586 431 585 448 585 453 c 0
 585 457 584 464 583 468 c 2
 583 472 581 480 579 486 c 0
 578 491 576 498 575 500 c 0
 574 503 571 507 569 511 c 2
 565 517 l 1
 564 517 562 519 561 522 c 0
 560 524 559 528 559 532 c 0
 559 535 559 540 558 543 c 2
 558 546 556 549 555 551 c 1
 553 552 550 557 548 561 c 0
 546 565 541 572 537 577 c 0
 533 582 525 591 519 596 c 0
 513 602 508 607 507 607 c 0
 506 607 500 612 493 618 c 0
 482 628 480 629 469 632 c 0
 462 634 452 636 447 637 c 0
 442 638 436 640 433 641 c 0
373 741 m 0
 390 741 406.001 742 409.001 742 c 0
 412.001 742 421.001 741 430.001 739 c 0
 438.001 738 448.001 736 452.001 736 c 0
 456.001 736 461.001 735 465.001 733 c 0
 470.001 731 475.001 730 488.001 729 c 0
 501.995 727.924 505.001 727 513.001 723 c 0
 518.001 721 524.001 718 527.001 717 c 1
 529.001 715 538.001 712 545.001 710 c 0
 553.001 707 561.001 705 563.001 705 c 0
 565.001 705 570.001 704 572.001 702 c 1
 583.001 695 l 2
 586.001 693 593.001 688 599.001 683 c 0
 604.001 678 612.001 672 616.001 670 c 0
 620.001 667 627.001 661 632.001 656 c 0
 637.001 651 643.001 645 644.001 641 c 1
 646.001 638 648.001 634 649.001 633 c 0
 650.001 632 656.001 625 663.001 618 c 0
 670.001 611 675.001 605 675.001 604 c 0
 675.001 603 677.001 600 679.001 598 c 0
 681.001 595 682.001 592 682.001 592 c 1
 682.001 591 684.001 589 686.001 586 c 0
 688.001 583 691.001 578 694.001 575 c 1
 696.001 571 699.001 568 699.001 567 c 0
 699.001 566 700.001 563 701.001 561 c 0
 702.001 559 703.001 555 704.001 551 c 1
 704.001 548 706.001 542 707.001 538 c 1
 709.001 534 712.001 527 713.001 522 c 1
 715.001 518 718.001 512 719.001 509 c 0
 720.001 507 722.001 502 723.001 499 c 0
 725.001 495 726.001 487 726.001 475 c 0
 727.001 462 728.001 455 730.001 452 c 0
 732.001 448 732.001 441 733.001 420 c 0
 734.001 405 735.001 388 735.001 382 c 2
 736.001 377.5 736.501 374.5 736.501 372.25 c 0
 736.501 370 736.001 368.5 735.001 367 c 0
 734.001 365 733.001 354 732.001 328 c 0
 732.001 303 731.001 292 730.001 290 c 0
 729.001 288 727.001 280 726.001 272 c 0
 726.001 264 724.001 253 722.001 247 c 1
 718.001 224 l 2
 717.001 217 715.001 210 714.001 207 c 0
 713.001 205 710.001 200 708.001 195 c 0
 706.001 191 704.001 186 704.001 184 c 1
 703.001 182 699.001 173 695.001 165 c 0
 690.001 156 686.001 148 685.001 147 c 0
 684.001 146 682.001 142 680.001 140 c 1
 679.001 137 675.001 132 671.001 128 c 1
 668.001 124 663.001 118 661.001 113 c 2
 658.001 109 655.001 103 654.001 100 c 1
 648.001 94 l 1
 646.001 93 642.001 90 640.001 86 c 0
 637.001 82 631.001 75 627.001 71 c 0
 622.001 66 614.001 59 608.001 55 c 0
 603.001 51 596.001 45 593.001 43 c 0
 591.001 41 587.001 38 585.001 36 c 0
 582.001 34 577.001 32 573.001 31 c 0
 568.001 30 564.001 28 564.001 28 c 1
 564.001 27 560.001 26 555.001 25 c 1
 548.001 25 546.001 24 542.001 20 c 0
 539.001 17 535.001 14 533.001 13 c 0
 530.001 11 527.001 10 526.001 10 c 0
 525.001 10 521.001 9 517.001 7 c 0
 513.001 5 507.001 3 503.001 2 c 0
 499.001 1 494.001 0 492.001 -1 c 0
 489.001 -2 485.001 -3 482.001 -3 c 0
 480.001 -3 474.001 -4 470.001 -6 c 1
 462.001 -8 456.001 -9 429.001 -9 c 0
 402.001 -9 396.001 -9 391.001 -7 c 0
 388.001 -6 383.001 -5 380.001 -5 c 0
 377.001 -5 372.001 -6 368.001 -8 c 0
 363.608 -9.46387 361.359 -10.3916 355.762 -10.3916 c 0
 353.713 -10.3916 351.216 -10.2676 348 -10 c 0
 341 -9 331 -8 327 -7 c 0
 322 -6 312 -4 304 -4 c 0
 296 -3 285 -2 280 0 c 0
 276 1 270 3 268 3 c 1
 266 4 261 6 258 8 c 0
 255 10 248 14 243 15 c 0
 237 17 231 20 229 21 c 0
 226 22 220 25 215 28 c 2
 210 30 204 33 202 34 c 0
 200 35 198 37 196 38 c 1
 195 40 189 43 183 46 c 0
 177 49 169 55 164 59 c 0
 159 64 153 68 151 70 c 1
 148 71 143 76 140 80 c 0
 137 85 133 89 132 89 c 1
 131 90 128 93 126 97 c 0
 124 100 120 105 118 108 c 1
 115 110 111 115 109 120 c 1
 106 124 102 130 100 133 c 1
 99 136 96 139 95 140 c 0
 94 141 92 145 90 148 c 0
 88 151 87 155 87 156 c 0
 87 158 86 162 84 166 c 0
 82 169 79 176 77 181 c 1
 74 185 71 194 69 200 c 0
 67 207 65 213 65 216 c 0
 65 218 64 223 62 228 c 0
 61 232 59 239 59 242 c 0
 59 246 58 255 57 262 c 0
 56 270 54 279 53 284 c 0
 52 289 51 295 49 297 c 1
 48 299 47 303 47 306 c 0
 47 309 48 313 49 316 c 0
 50 320 49 324 48 329 c 0
 47 333 46 342 45 349 c 0
 44 356 43 367 43 374 c 0
 43 380 43 386 42 386 c 1
 42 387 42 392 44 396 c 0
 46 402 46 411 47 426 c 0
 47 441 48 450 49 455 c 1
 51 458 52 466 53 471 c 0
 54 476 55 481 55 482 c 1
 56 483 57 487 58 491 c 1
 58 495 60 503 62 508 c 0
 64 514 66 521 68 525 c 2
 69 529 71 534 72 536 c 0
 73 538 74 542 75 545 c 0
 76 549 78 554 79 556 c 0
 80 559 83 563 86 566 c 0
 89 568 92 573 93 576 c 0
 94 579 97 586 99 591 c 1
 102 596 105 603 107 606 c 0
 110 609 112 613 114 614 c 1
 115 616 117 619 119 623 c 1
 120 627 124 635 128 641 c 2
 133 652 134 654 145 661 c 0
 151 665 159 669 163 670 c 0
 167 671 174 675 180 680 c 0
 186 685 194 690 198 692 c 0
 202 694 206 697 207 698 c 2
 209 699 212 702 214 703 c 0
 217 704 223 707 229 709 c 0
 235 711 244 715 249 718 c 0
 255 721 261 723 263 723 c 0
 265 723 270 724 275 726 c 0
 281 728 290 729 305 730 c 0
 324 731 327 731 331 734 c 0
 333 736 336 738 338 739 c 0
 341 740 352 741 373 741 c 0
EndSplineSet
Validated: 1
EndChar
StartChar: uni0051
Encoding: 81 81 50
Width: 783
GlyphClass: 2
Flags: W
LayerCount: 2
Fore
SplineSet
391 635 m 0
 388 636 377 637 362 637 c 0
 357.898 637.293 353.971 637.414 350.39 637.414 c 0
 341.743 637.414 335.122 636.707 333.001 636 c 0
 330.001 635 326.001 633 323.001 632 c 1
 321.001 630 316.001 627 313.001 624 c 0
 311.001 622 305.001 619 302.001 618 c 0
 298.001 616 292.001 614 289.001 613 c 1
 285.001 613 278.001 610 274.001 608 c 0
 269.001 605 260.001 598 254.001 592 c 0
 247.001 585 240.001 579 238.001 578 c 1
 236.001 576 233.001 574 231.001 572 c 1
 224.001 558 l 2
 222.001 553 218.001 546 217.001 542 c 1
 215.001 539 211.001 533 209.001 529 c 0
 206.001 524 204.001 519 203.001 509 c 2
 201.001 501 200.001 495 200.001 494 c 1
 199.001 493 198.001 486 197.001 477 c 0
 196.001 469 194.001 458 192.001 453 c 2
 188.001 437 l 1
 186.001 433 185.001 426 185.001 422 c 0
 184.001 417 183.001 410 182.001 406 c 0
 180.829 401.899 180.344 399.515 180.344 397.438 c 0
 180.344 395.971 180.586 394.657 181 393 c 1
 183 390 183 376 184 352 c 0
 185.291 321.011 185 314 187 310 c 0
 189 306 190 300 191 286 c 0
 191 273 192 265 194 259 c 0
 196 254 197 247 197 243 c 0
 197 240 198 235 199 232 c 1
 201 229 204 222 206 215 c 1
 217 193 l 2
 220 187 227 178 231 173 c 2
 250 151 l 2
 256 145 262 138 264 135 c 0
 266 132 269 129 271 127 c 1
 273 126 277 124 280 124 c 1
 284 123 291 121 297 118 c 0
 304 114 310 112 318 112 c 0
 327 111 331 109 339 105 c 0
 349 100 349 100 384 100 c 0
 413 100 419 101 424 103 c 0
 427 104 434 107 440 109 c 0
 446 111 453 113 456 114 c 1
 458 114 461 115 461 116 c 1
 462 117 465 117 468 117 c 0
 471 117 475 118 478 119 c 0
 480 120 484 123 488 126 c 0
 491 129 498 133 503 135 c 0
 509 137 514 140 517 144 c 0
 520 148 524 154 526 158 c 0
 528 162 531 167 533 168 c 0
 535 169 539 171 542 172 c 0
 547 173 548 175 552 183 c 0
 555 190 557 196 557 203 c 0
 558 212 558 214 565 222 c 0
 569 227 573 233 574 235 c 0
 575 238 575 244 575 249 c 0
 575 254 576 261 578 266 c 0
 581 272 581 277 581 301 c 0
 581 324 582 331 583 336 c 1
 584.5 339.5 585.25 341.5 585.25 343.625 c 0
 585.25 345.75 584.5 348 583 352 c 0
 581 360 581 360 583 368 c 0
 585 375 585 377 584 383 c 0
 583 388 583 391 584 396 c 0
 585 400 585 406 585 410 c 0
 585 414 584 420 583 423 c 0
 582 426 581 437 580 451 c 0
 579 473 579 475 575 484 c 0
 572 489 569 500 567 508 c 0
 565 516 563 526 563 529 c 0
 562 535 560 538 555 544 c 0
 551 549 545 555 542 559 c 0
 539 563 535 568 533 571 c 0
 531 574 523 581 516 587 c 0
 509 594 502 600 499 602 c 0
 497 604 494 606 494 606 c 1
 493 606 490 607 488 609 c 0
 485 611 482 613 481 613 c 1
 481 613 480 613 479 614 c 1
 479 615 476 617 472 619 c 0
 468 622 462 624 454 625 c 2
 448 627 441 628 439 629 c 1
 438 630 427 631 416 632 c 0
 404.008 633.09 393 634 391 635 c 0
356 737 m 0
 359.535 737.707 362.569 738.415 364.397 738.415 c 0
 365.155 738.415 365.705 738.294 365.998 738.001 c 1
 367.998 738.001 375.998 737.001 384.998 736.001 c 0
 393.998 736.001 408.998 735.001 418.998 735.001 c 0
 431.998 735.001 439.998 734.001 444.998 733.001 c 1
 448.998 731.001 459.998 730.001 468.998 729.001 c 0
 476.998 729.001 484.998 728.001 485.998 727.001 c 1
 486.998 727.001 490.998 725.001 495.998 724.001 c 0
 500.998 723.001 506.998 720.001 510.998 717.001 c 0
 514.998 715.001 519.998 713.001 524.998 712.001 c 0
 528.998 711.001 536.998 710.001 540.998 708.001 c 2
 544.998 707.001 549.998 705.001 550.998 704.001 c 0
 551.998 703.001 555.998 702.001 560.998 700.001 c 0
 567.998 698.001 571.998 696.001 575.998 692.001 c 1
 578.998 688.001 582.998 684.001 584.998 682.001 c 0
 586.998 679.001 590.998 676.001 597.998 674.001 c 0
 603.998 672.001 610.998 668.001 612.998 666.001 c 0
 615.998 664.001 619.998 661.001 621.998 660.001 c 0
 623.998 659.001 626.998 657.001 628.998 655.001 c 0
 630.998 653.001 633.998 649.001 635.998 646.001 c 1
 636.998 643.001 639.998 639.001 640.998 637.001 c 2
 641.998 636.001 643.998 631.001 646.998 626.001 c 0
 648.998 622.001 652.998 617.001 654.998 615.001 c 0
 657.998 613.001 660.998 610.001 662.998 608.001 c 0
 664.998 606.001 668.998 599.001 671.998 593.001 c 0
 674.998 587.001 678.998 578.001 678.998 575.001 c 1
 679.998 572.001 683.998 564.001 687.998 558.001 c 0
 691.998 552.001 696.998 542.001 698.998 535.001 c 0
 700.998 528.001 702.998 522.001 702.998 521.001 c 1
 704.998 515.001 l 2
 705.998 513.001 708.998 507.001 709.998 503.001 c 0
 711.998 498.001 714.998 490.001 715.998 484.001 c 2
 717.998 478.001 718.998 469.001 719.998 463.001 c 0
 720.998 457.001 721.998 448.001 722.998 444.001 c 0
 724.998 437.001 724.998 422.001 724.998 378.001 c 0
 724.998 341.001 724.998 319.001 723.998 316.001 c 0
 722.998 314.001 720.998 308.001 719.998 303.001 c 0
 718.998 297.001 716.998 288.001 714.998 282.001 c 0
 712.998 276.001 710.998 269.001 709.998 268.001 c 1
 709.998 266.001 707.998 260.001 707.998 253.001 c 1
 706.998 247.001 705.998 240.001 704.998 238.001 c 1
 703.998 237.001 702.998 234.001 702.998 233.001 c 0
 702.998 231.001 701.998 228.001 700.998 225.001 c 1
 698.998 222.001 696.998 218.001 694.998 215.001 c 0
 692.998 213.001 690.998 210.001 690.998 208.001 c 1
 689.998 207.001 686.998 202.001 683.998 196.001 c 0
 680.998 190.001 675.998 183.001 672.998 179.001 c 0
 669.998 176.001 660.998 166.001 653.998 159.001 c 0
 645.998 151.001 637.998 141.001 635.998 137.001 c 0
 632.998 132.001 625.998 124.001 620.998 118.001 c 1
 614.998 113.001 609.998 107.001 608.998 105.001 c 2
 607.998 104.001 607.998 102.001 607.998 100.001 c 1
 608.998 99.001 610.998 99.001 619.998 99.001 c 1
 626.998 100.001 633.998 101.001 637.998 103.001 c 1
 641.998 104.001 650.998 105.001 670.998 106.001 c 0
 685.998 106.001 702.998 108.001 708.998 109.001 c 0
 718.998 110.001 721.998 110.001 727.998 109.001 c 0
 731.998 108.001 738.998 106.001 743.998 106.001 c 1
 748.998 105.001 753.998 103.001 755.998 102.001 c 1
 756.998 101.001 758.998 97.001 759.998 94.001 c 0
 760.998 90.001 761.998 82.001 761.998 73.001 c 0
 760.998 62.001 761.998 55.001 763.998 48.001 c 0
 765.17 42.7285 765.655 39.8584 765.655 37.3799 c 0
 765.655 35.6279 765.413 34.0713 764.999 32 c 0
 763.999 28 760.999 23 758.999 20 c 1
 756.999 15 753.982 12.0381 744.999 8 c 0
 733.979 3.0459 733.999 3 689.999 3 c 0
 679.281 2.73242 671.005 2.6084 664.534 2.6084 c 0
 646.856 2.6084 642.66 3.53613 639 5 c 0
 634 7 629 8 608 8 c 0
 591 7 581 7 574 5 c 0
 570 4 563 3 559 3 c 0
 555 3 550 4 547 5 c 0
 544 6 539 7 536 7 c 0
 534 7 529 6 525 5 c 0
 522 4 510 3 497 2 c 0
 482 1 473 0 470 -1 c 0
 466 -3 458 -3 438 -4 c 0
 416 -4 410 -4 406 -6 c 0
 402 -9 397 -9 367 -9 c 0
 340 -9 332 -9 328 -7 c 0
 326 -6 320 -4 314 -4 c 0
 306 -3 302 -2 295 3 c 1
 287 7 286 8 275 8 c 1
 269 7 260 8 256 9 c 0
 250 10 241 13 231 18 c 0
 222 23 211 28 208 30 c 0
 204 33 197 36 193 38 c 0
 188 40 182 43 179 45 c 0
 176 47 170 51 167 54 c 0
 164 56 160 59 158 60 c 0
 156 61 151 63 148 66 c 2
 144 68 140 73 138 76 c 0
 136 79 129 87 123 94 c 0
 117 100 111 107 110 110 c 0
 109 112 105 118 101 122 c 0
 97 126 91 135 88 143 c 2
 84 150 80 160 78 164 c 1
 77 168 75 174 75 177 c 1
 74 181 73 185 71 186 c 1
 70 188 68 191 66 193 c 1
 65 195 62 200 61 205 c 2
 59 209 58 215 57 219 c 0
 56 223 55 228 54 231 c 0
 53 234 52 240 51 244 c 1
 51 249 49 255 48 259 c 0
 47 264 46 273 46 284 c 0
 46 297 45 303 43 310 c 0
 41 316 40 325 39 341 c 0
 39 354 37 366 36 369 c 0
 35 372 34 377 34 380 c 0
 34 383 36 389 37 394 c 1
 39 399 40 406 40 413 c 0
 40 418 41 426 42 429 c 0
 43 432 45 437 45 440 c 1
 46 444 47 448 48 451 c 1
 50 454 51 461 52 469 c 0
 52 479 53 483 57 492 c 0
 62 501 63 506 63 517 c 0
 64 529 65 530 72 541 c 0
 76 548 80 555 80 558 c 1
 81 562 83 567 84 570 c 1
 86 573 92 581 97 588 c 1
 103 594 108 602 109 604 c 2
 111 606 113 609 113 611 c 1
 114 613 118 617 122 622 c 0
 125 626 129 631 131 633 c 1
 132 635 142 645 152 656 c 0
 162 666 172 676 175 678 c 0
 178 680 183 682 186 683 c 1
 190 683 196 687 203 692 c 2
 214 701 l 1
 215 701 218 702 221 704 c 1
 225 705 233 709 240 711 c 0
 247 714 256 717 261 718 c 0
 266 719 272 721 275 721 c 1
 277 722 283 724 288 725 c 0
 294 727 302 728 306 729 c 0
 311 730 318 731 322 733 c 1
 326 734 333 735 338 735 c 0
 344 735 352 736 356 737 c 0
EndSplineSet
Validated: 33
EndChar
StartChar: uni0054
Encoding: 84 84 53
Width: 636
GlyphClass: 2
Flags: W
LayerCount: 2
Fore
SplineSet
393 738 m 1
 395 740 399 740.999 401 740.999 c 0
 402 740.999 408 738.999 413 737.999 c 2
 418 735.999 425 734.999 429 734.999 c 0
 432 734.999 440 735.999 445 736.999 c 1
 453 739.999 455 739.999 460 737.999 c 0
 464 736.999 470 735.999 475 735.999 c 0
 479 735.999 487 736.999 492 736.999 c 0
 497 736.999 505 735.999 510 735.999 c 0
 515 735.999 522 736.999 526 737.999 c 0
 532 739.999 541 740.999 566 740.999 c 0
 591 740.999 599 739.999 603 738.999 c 1
 606 736.999 611 733.999 615 730.999 c 0
 618 727.999 621 722.999 622 719.999 c 0
 623 715.999 623 712.999 622 706.999 c 0
 621 699.999 620 695.999 622 685.999 c 0
 623 677.999 624 668.999 624 664.999 c 2
 625 660.999 624 656.999 623 653.999 c 0
 622 650.999 619 646.999 617 644.999 c 0
 615 642.999 611 639.999 608 637.999 c 0
 604 635.999 597 633.999 589 632.999 c 0
 583 632.999 538 631.999 490 631.999 c 0
 433 631.999 402 630.999 399 629.999 c 1
 396 629.999 394 626.999 393 624.999 c 1
 391 622.999 391 611.999 391 586.999 c 0
 390.667 580.666 390.556 572.889 390.556 564.63 c 0
 390.556 548.111 391 529.667 391 517 c 0
 392 497 393 479 394 476 c 0
 395 473 396 464 396 455 c 0
 396 442 395 437 393 433 c 0
 391 429 391 425 391 411 c 0
 391 402 392 392 393 389 c 1
 393 386 393 381 392 379 c 1
 392 376 391 371 391 367 c 0
 391 362 392 356 393 352 c 1
 396 346 396 345 393 339 c 0
 391 334 391 333 393 327 c 0
 395 322 396 316 396 299 c 0
 396 287 396 276 395 274 c 1
 395 221 l 2
 395 186 394 170 393 167 c 0
 392 165 391 158 391 153 c 0
 391 147 392 140 393 137 c 0
 395 133 395 128 395 111 c 0
 394 100 393 83 393 75 c 0
 392 65 392 58 393 57 c 1
 394 55 394 50 393 46 c 2
 393 41 392 35 392 33 c 0
 392 30 391 26 390 25 c 1
 390 23 388 18 387 15 c 0
 385 11 382 7 380 5 c 0
 377 2 374 1 368 1 c 0
 364 1 355 2 348 3 c 0
 341 5 335 6 334 6 c 1
 333 7 329 6 324 5 c 0
 316 3 315 3 306 6 c 0
 298 8 294 9 282 8 c 0
 267 7 267 7 261 13 c 0
 258 16 255 21 254 25 c 2
 252 29 251 37 251 51 c 0
 251 65 252 72 254 76 c 1
 255 80 256 84 255 90 c 2
 255 95 254 101 254 103 c 0
 254 105 253 110 252 115 c 0
 250 121 250 133 250 153 c 0
 251 170 252 184 253 186 c 1
 253 188 254 192 255 196 c 0
 256 202 255 206 254 209 c 0
 252 214 251 223 251 257 c 0
 251 280 251 301 250 304 c 0
 249 307 248 311 247 314 c 0
 245 318 245 321 247 330 c 0
 248 336 249 343 249 345 c 1
 250 347 250 354 251 359 c 0
 252 367 251 372 249 379 c 0
 247 387 247 394 247 425 c 2
 247 479 l 2
 247 488 247 509 246 524 c 0
 246 548 246 554 248 561 c 0
 250 567 250 573 250 583 c 0
 249 591 247 602 246 608 c 1
 244 614 241 619 239 622 c 1
 235 625 235 625 158 626 c 2
 56 626 l 2
 32 626 31 626 27 630 c 0
 24 632 22 635 22 640 c 1
 21 644 20 649 19 652 c 1
 17 654 16 663 15 670 c 0
 14.5 674.5 14.25 679.5 14.25 684.5 c 0
 14.25 689.5 14.5 694.5 15 699 c 0
 16 707 18 716 19 719 c 0
 20 722 23 726 27 727 c 2
 30 729 33 730 35 730 c 0
 37 730 41 731 44 733 c 1
 49 735 50 735 58 732 c 0
 65 730 69 730 76 730 c 1
 81 731 92 731 101 730 c 0
 115 729 119 729 126 731 c 0
 132 733 140 734 154 734 c 0
 165 734 178 733 182 732 c 0
 188 731 191 731 195 732 c 1
 198 734 212 734 243 734 c 0
 266 734 290 734 294 733 c 1
 299 733 313 734 327 735 c 0
 341 736 355 737 360 737 c 0
 364 737 371 736 377 736 c 0
 384 736 389 737 393 738 c 1
EndSplineSet
Validated: 33
EndChar
StartChar: uni0055
Encoding: 85 85 54
Width: 771
GlyphClass: 2
Flags: W
LayerCount: 2
Fore
SplineSet
140 739 m 1
 147.001 739 l 1
 150.001 738 159.001 737 167.001 736 c 0
 174.001 736 181.001 734 182.001 734 c 1
 183.001 733 187.001 731 190.001 730 c 1
 194.001 730 199.001 727 200.001 726 c 0
 202.001 724 204.001 722 204.001 721 c 0
 204.001 720 202.001 715 201.001 710 c 0
 199.001 704 198.001 700 199.001 696 c 2
 199.001 694 202.001 687 205.001 683 c 0
 210.001 674 210.001 674 210.001 652 c 0
 210.001 634 210.001 629 213.001 621 c 0
 215.001 613 215.001 611 214.001 606 c 0
 213.001 603 212.001 590 212.001 577 c 0
 211.001 564 211.001 532 211.001 505 c 0
 210.501 490.5 210.251 477.5 210.251 467.5 c 0
 210.251 457.5 210.501 450.5 211.001 448 c 0
 212.001 443 213.001 431 213.001 422 c 0
 213.001 414 212.001 402 212.001 396 c 0
 211.001 388 211.001 384 213.001 380 c 0
 215.001 376 216.001 372 215.001 356 c 0
 215.001 346 214.001 335 213.001 332 c 0
 212.001 327 212.001 323 213.001 314 c 0
 215.001 306 215.001 291 215.001 271 c 0
 215.001 246 216.001 239 218.001 228 c 0
 220.001 221 222.001 213 223.001 211 c 1
 223.001 208 226.001 201 228.001 194 c 0
 231.001 187 234.001 179 234.001 176 c 1
 236.001 171 240.001 166 254.001 152 c 0
 264.001 142 276.001 131 281.001 127 c 0
 286.001 124 292.001 119 296.001 117 c 0
 300.001 115 305.001 113 310.001 112 c 1
 315.001 112 323.001 110 327.001 109 c 0
 332.001 107 338.001 106 345.001 106 c 0
 351.001 106 359.001 105 363.001 104 c 1
 367.001 102 373.001 101 377.001 101 c 0
 380.001 101 385.001 102 389.001 104 c 1
 393.001 105 401.001 106 412.001 106 c 0
 422.001 106 431.001 107 437.001 108 c 0
 442.001 109 448.001 111 451.001 112 c 0
 455.001 113 459.001 114 462.001 115 c 0
 464.001 116 471.001 119 478.001 122 c 0
 484.001 124 493.001 129 498.001 132 c 0
 505.001 136 510.001 140 516.001 149 c 0
 521.001 156 528.001 164 532.001 168 c 0
 536.001 172 539.001 178 540.001 181 c 0
 541.001 184 542.001 188 542.001 192 c 0
 542.001 195 543.001 200 547.001 206 c 1
 549.001 211 552.001 218 553.001 222 c 1
 553.001 226 556.001 232 559.001 237 c 0
 563.001 243 564.001 246 564.001 251 c 0
 564.001 255 563.001 260 562.001 263 c 0
 560.537 265.928 559.608 269.392 559.608 286.338 c 0
 559.608 292.541 559.732 300.55 560 311 c 0
 561 335 561 358 561 361 c 0
 561 365 561 373 560 379 c 0
 559 388 560 391 562 400 c 1
 566 410 566 410 563 418 c 0
 561 425 560 429 561 434 c 0
 562 438 562 449 561 458 c 0
 561 468 562 476 563 482 c 0
 564 486 565 497 565 505 c 0
 565 514 565 527 564 534 c 0
 563 541 562 548 561 550 c 0
 560 552 559 570 559 603 c 0
 559 639 559 658 557 670 c 0
 556 679 554 690 554 693 c 0
 554 697 554 700 555 701 c 0
 556 702 557 707 559 712 c 0
 561 718 563 722 566 726 c 1
 569 728 575 731 578 733 c 1
 584 734 593 735 624 735 c 0
 656 735 663 734 669 732 c 0
 672 731 676 729 678 728 c 1
 679 726 682 722 683 719 c 0
 686 713 686 709 687 678 c 0
 687 650 688 642 690 637 c 0
 692 631 692 630 690 625 c 1
 688 622 687 616 687 612 c 0
 686 606 686 603 689 596 c 0
 692 587 692 587 692 470 c 0
 692 388 690.91 349.009 690 339 c 0
 689 328 689 321 690 308 c 0
 690.732 301.777 691.196 297.832 691.196 294.547 c 0
 691.196 288.856 689.804 285.144 686 275 c 0
 682 265 680 256 680 251 c 0
 680 246 681 239 683 234 c 1
 684 229 686 223 686 220 c 0
 686 217 685 213 683 210 c 0
 682 208 681 202 680 198 c 0
 679 194 677 186 675 181 c 0
 673 177 671 169 671 165 c 0
 670 160 668 154 667 151 c 1
 665 149 663 143 662 140 c 0
 661 137 658 129 653 124 c 2
 649 118 641 108 634 102 c 1
 628 95 623 89 623 88 c 0
 623 87 621 85 619 83 c 0
 617 81 610 77 605 75 c 0
 598 71 594 68 590 63 c 0
 587 59 581 54 578 52 c 0
 575 50 570 46 567 43 c 0
 564 40 559 38 556 37 c 0
 552 36 549 34 547 33 c 1
 546 31 543 29 540 28 c 0
 536 26 532 25 529 25 c 0
 527 25 522 23 517 20 c 0
 513 17 507 14 503 14 c 1
 500 13 493 12 489 11 c 0
 485 10 479 9 476 9 c 0
 473 9 466 8 462 6 c 1
 457 5 448 4 443 4 c 0
 437 4 428 4 423 3 c 0
 418 2 410 0 406 -1 c 0
 401 -2 392 -3 382 -3 c 0
 374 -3 362 -4 357 -5 c 0
 354.438 -5.36621 352.277 -5.59863 350.028 -5.59863 c 0
 346.134 -5.59863 341.974 -4.90234 335 -3 c 0
 328 -2 319 -1 316 -1 c 1
 313 -2 305 -1 299 1 c 2
 293 2 285 4 281 5 c 1
 277 7 268 11 261 14 c 1
 255 18 246 21 242 22 c 0
 239 23 233 24 231 26 c 1
 228 27 222 30 215 33 c 0
 209 36 201 40 196 43 c 0
 192 46 180 56 170 66 c 0
 160 76 151 84 150 84 c 1
 150 84 147 85 145 87 c 0
 143 89 141 93 140 95 c 0
 139 97 134 103 130 107 c 2
 121 116 l 1
 121 117 120 120 118 122 c 0
 116 125 112 130 108 135 c 0
 104 139 100 145 100 148 c 1
 99 151 97 156 96 159 c 0
 95 163 93 168 93 172 c 0
 93 175 92 181 91 185 c 0
 90 189 89 195 88 198 c 1
 88 202 86 209 83 213 c 1
 80 220 80 223 79 237 c 0
 79 246 78 254 77 256 c 1
 76 257 75 268 75 280 c 0
 75 294 74 303 73 305 c 0
 72 307 71 314 71 322 c 0
 71 333 72 338 74 342 c 0
 76 347 76 355 76 421 c 0
 76.293 437.109 76.4141 450.216 76.4141 460.822 c 0
 76.4141 486.429 75.707 497.464 75 500.999 c 0
 74 504.999 73 510.999 73 513.999 c 0
 73 516.999 72 555.999 72 599.999 c 0
 71.6338 627.451 71.4014 645.659 71.4014 657.957 c 0
 71.4014 679.258 72.0977 682.83 74 686 c 0
 76 690 77 696 77 707 c 0
 78 719 78 723 81 726 c 2
 82 729 86 731 90 733 c 0
 93 734 100 735 106 736 c 1
 112 736 122 737 128 737 c 0
 134 737 140 738 140 739 c 1
EndSplineSet
Validated: 33
EndChar
StartChar: uni0059
Encoding: 89 89 58
Width: 694
GlyphClass: 2
Flags: W
LayerCount: 2
Fore
SplineSet
652 721 m 0
 655 722 659 723 661 723 c 0
 663 723 667 722 669 721 c 0
 672 719 674 716 678 708 c 1
 680 702 682 697 683 696 c 0
 684 695 684 691 684 687 c 0
 684 682 683 678 681 673 c 0
 679 669 676 664 675 662 c 2
 668 651 l 1
 665 648 663 642 661 637 c 0
 660 633 659 628 658 626 c 1
 657 625 653 621 649 618 c 0
 646 615 641 610 639 606 c 0
 637 603 632 595 629 589 c 0
 626 583 622 575 619 570 c 0
 616 566 612 559 609 556 c 1
 607 552 602 546 600 542 c 0
 597 538 593 531 590 526 c 0
 587 521 582 515 579 512 c 0
 577 509 573 505 572 502 c 0
 571 500 569 496 568 492 c 0
 567 489 564 481 561 475 c 0
 558 470 553 461 550 457 c 0
 546 452 541 445 538 442 c 1
 536 438 531 432 528 428 c 0
 525 424 520 416 518 411 c 1
 515 406 511 400 509 397 c 0
 507 394 503 387 499 382 c 0
 495 377 490 367 486 360 c 0
 482 353 479 346 477 345 c 1
 476 344 474 340 472 337 c 1
 471 333 466 327 463 323 c 1
 459 319 456 314 456 312 c 1
 455 309 451 304 447 299 c 0
 443 295 438 287 437 283 c 2
 435 279 433 273 432 270 c 0
 431 268 430 263 428 261 c 1
 426 257 426 248 426 180 c 0
 426 109 426 103 423 99 c 1
 422 96 421 92 421 91 c 2
 421 75 l 2
 421 68 422 61 423 58 c 0
 424 55 425 50 425 48 c 0
 425 45 424 41 422 37 c 0
 421 34 418 30 417 27 c 0
 416 25 414 20 414 16 c 1
 413 12 412 8 411 6 c 0
 410 4 406 1 402 0 c 0
 397 -2 392 -3 381 -3 c 0
 370 -3 363 -2 359 -1 c 1
 355 1 346 2 332 2 c 0
 321 3 310 3 308 4 c 2
 307 4 302 7 298 11 c 0
 294 15 289 20 287 23 c 0
 285 25 282 30 280 32 c 0
 277 35 275 38 275 42 c 0
 275 44 277 49 278 51 c 0
 280 56 281 60 280 78 c 2
 280 113 l 2
 280 121 280 138 281 151 c 0
 282 167 283 178 285 183 c 0
 287 189 287 192 286 200 c 0
 285 206 284 213 283 216 c 0
 282 219 281 230 281 240 c 0
 281 251 281 262 280 265 c 0
 279 268 277 273 275 275 c 0
 273 278 268 285 263 292 c 0
 258 298 252 306 250 310 c 0
 247 314 243 319 241 322 c 0
 238 325 234 331 232 336 c 2
 229 341 227 346 226 348 c 1
 226 350 222 356 218 361 c 0
 213 368 210 374 209 379 c 0
 208 383 207 387 205 388 c 1
 204 389 203 390 203 391 c 0
 203 392 200 397 195 403 c 1
 191 410 187 416 186 421 c 0
 185 424 183 430 181 433 c 0
 179 436 175 441 173 445 c 1
 170 448 165 454 161 458 c 2
 158 462 154 466 153 468 c 2
 151 470 150 472 149 474 c 2
 146 480 l 1
 145 481 140 487 136 492 c 0
 132 498 128 504 127 507 c 1
 127 509 122 517 118 524 c 0
 113 531 107 540 104 543 c 2
 102 547 98 552 96 555 c 0
 93 558 90 562 89 564 c 0
 88 566 87 571 86 574 c 0
 85 578 83 582 82 583 c 1
 81 585 80 586 80 587 c 0
 80 588 77 592 72 597 c 0
 68 602 64 608 63 610 c 0
 61 613 57 619 53 623 c 0
 49 627 44 635 42 640 c 1
 39 645 35 652 33 655 c 0
 31 658 28 663 28 666 c 1
 27 669 25 674 23 676 c 0
 21 678 19 681 18 683 c 0
 17 685 17 688 17 690 c 0
 17 693 18 697 20 700 c 0
 22 704 26 707 30 709 c 0
 34 711 40 714 44 715 c 0
 51 717 59 717 94 717 c 0
 119 716 141 715 147 714 c 0
 154 713 161 711 164 708 c 2
 168 706 172 703 173 701 c 2
 175 699 179 693 183 687 c 0
 187 681 190 675 191 672 c 1
 191 669 195 663 200 658 c 0
 204 653 209 647 210 645 c 0
 211 643 213 638 214 633 c 1
 216 629 219 622 222 618 c 0
 225 614 229 607 231 603 c 0
 233 599 237 593 239 590 c 0
 242 587 245 582 247 579 c 0
 249 577 253 570 256 564 c 0
 259 558 265 547 270 538 c 0
 274 529 283 513 288 502 c 0
 294 491 300 480 301 479 c 0
 303 477 304 475 305 473 c 2
 306 472 310 466 314 460 c 0
 317 455 323 446 327 440 c 0
 331 434 336 425 339 419 c 0
 342 412 347 405 350 402 c 0
 352 399 356 396 358 395 c 0
 361 394 363 394 367 396 c 0
 370 397 375 401 378 404 c 0
 381 407 384 412 385 413 c 2
 386 415 388 419 391 422 c 1
 393 426 397 432 400 436 c 0
 402 440 405 444 406 446 c 1
 408 447 409 450 410 453 c 1
 410 455 413 462 415 468 c 1
 418 474 421 481 422 484 c 0
 423 486 427 492 430 496 c 0
 433 500 437 506 440 508 c 1
 442 511 445 516 446 520 c 1
 448 524 450 529 452 531 c 1
 453 533 458 540 462 547 c 0
 466 555 472 563 474 566 c 0
 477 569 481 576 483 582 c 1
 486 588 490 597 493 602 c 2
 495 607 499 612 500 613 c 0
 501 614 502 618 503 621 c 0
 504 624 506 628 507 631 c 0
 508 633 511 638 515 642 c 1
 518 646 521 651 521 652 c 0
 521 653 523 656 526 659 c 0
 528 662 532 667 533 669 c 0
 535 672 538 676 542 680 c 0
 545 683 548 688 549 690 c 0
 551 693 555 698 559 703 c 0
 564 708 569 714 572 715 c 1
 577 718 581 718 612 718 c 0
 640 718 647 719 652 721 c 0
EndSplineSet
Validated: 33
EndChar
StartChar: uni005B
Encoding: 91 91 60
Width: 293
GlyphClass: 2
Flags: W
LayerCount: 2
Fore
SplineSet
70 761 m 1
 73 762 76.001 763.001 77.001 763.001 c 0
 78.001 763.001 85.001 762.001 92.001 760.001 c 1
 99.7793 759.294 106.558 758.587 117.992 758.587 c 0
 122.729 758.587 128.264 758.708 135 759.001 c 0
 151 759.001 179 760.001 198 760.001 c 0
 232 760.001 232 760.001 238 756.001 c 0
 241 754.001 245 750.001 246 747.001 c 0
 247 745.001 249 737.001 250 729.001 c 0
 251 718.001 251 716.001 249 712.001 c 0
 248 709.001 244 705.001 240 702.001 c 1
 235.739 697.74 234.504 696.505 221.613 696.505 c 0
 216.351 696.505 209.146 696.711 198.999 697.001 c 0
 179.999 697.001 162.999 697.001 159.999 696.001 c 0
 156.999 695.001 152.999 693.001 150.999 691.001 c 0
 146.999 688.001 146.999 688.001 146.999 609.001 c 0
 146.499 587.001 146.249 565.501 146.249 548.376 c 0
 146.249 531.251 146.499 518.501 146.999 514.001 c 0
 147.332 511.334 147.443 507.111 147.443 501.963 c 0
 147.443 491.667 146.999 477.667 146.999 465 c 0
 145.999 447 144.999 429 143.999 426 c 1
 143.999 422 143.999 418 145.999 412 c 0
 147.999 405 147.999 403 146.999 388 c 0
 146.499 382.5 146.249 375.75 146.249 368 c 0
 146.249 360.25 146.499 351.5 146.999 342 c 0
 147.895 324.994 147.999 309 147.999 304 c 2
 147.999 243 l 2
 147.999 214 147.999 180 148.999 168 c 0
 148.999 149 148.999 144 145.999 134 c 0
 143.999 123 143.999 121 144.999 112 c 0
 146.999 103 146.999 99 144.999 85 c 0
 142.999 76 141.999 66 141.999 63 c 0
 141.999 59 142.999 54 143.999 51 c 0
 144.999 48 146.999 43 146.999 40 c 0
 147.999 35 148.999 32 150.999 30 c 0
 152.999 28 156.999 26 159.999 25 c 0
 162.999 24 172.999 24 186.999 24 c 0
 198.999 25 212.999 26 216.999 26 c 0
 223.999 27 226.999 27 229.999 26 c 0
 232.999 25 237.999 20 240.999 15 c 0
 244.999 10 248.999 4 249.999 1 c 0
 250.999 -2 252.999 -8 252.999 -12 c 0
 252.999 -16 250.999 -22 249.999 -25 c 1
 247.999 -28 243.999 -33 240.999 -36 c 1
 236.999 -38 232.999 -41 230.999 -42 c 0
 228.999 -43 221.999 -45 214.999 -45 c 0
 210.973 -45.3662 208.019 -45.5986 205.597 -45.5986 c 0
 201.401 -45.5986 198.804 -44.9023 195 -43 c 0
 192 -42 188 -40 186 -39 c 1
 185 -39 178 -39 171 -40 c 2
 163 -40 156 -42 154 -43 c 1
 152 -45 144 -45 116 -45 c 0
 92 -45 79 -44 77 -43 c 0
 75 -42 71 -40 67 -39 c 1
 63 -37 59 -34 58 -32 c 0
 55 -28 55 -24 55 18 c 0
 55 55 55 65 57 67 c 1
 58 70 59 77 60 87 c 0
 60 97 59 104 58 108 c 0
 57 111 55 120 55 127 c 0
 54 137 55 142 57 148 c 1
 58 154 59 157 57 161 c 1
 57 163 56 182 56 206 c 0
 56 228 55 254 54 264 c 0
 53 276 53 290 53 303 c 0
 54 314 54 347 54 378 c 2
 54 442 l 1
 54 472 l 1
 54 503 l 1
 55 508 55 536 55 565 c 0
 55 599 54 623 53 632 c 0
 52 640 51 652 51 658 c 0
 51 665 52 674 54 678 c 1
 55 684 56 688 55 698 c 0
 55 705 54 713 53 715 c 0
 52 718 52 724 54 732 c 0
 55 739 56 747 58 749 c 1
 59 751 61 755 63 757 c 1
 64 759 68 761 70 761 c 1
EndSplineSet
Validated: 33
EndChar
StartChar: uni005F
Encoding: 95 95 64
Width: 455
GlyphClass: 2
Flags: W
LayerCount: 2
Fore
SplineSet
374 27 m 0
 378 28 388 29 395 29 c 0
 404 29 410 29 413 27 c 0
 415 26 421 24 425 24 c 0
 430 23 436 21 439 19 c 2
 442 18 446 14 448 11 c 0
 450 9 453 5 454 2 c 0
 455 0 456 -4 456 -5 c 0
 456 -7 455 -11 453 -13 c 2
 452 -15 448 -20 444 -23 c 0
 441 -26 436 -29 435 -30 c 1
 433 -31 423 -31 412 -32 c 0
 401 -32 373 -33 350 -33 c 0
 312 -33 307 -33 300 -36 c 0
 293 -39 293 -39 284 -36 c 0
 278 -34 271 -34 254 -34 c 0
 238 -34 229 -34 223 -36 c 0
 216 -38 202 -38 163 -39 c 0
 129 -39 110 -40 106 -41 c 0
 100 -43 97 -43 90 -41 c 0
 84 -40 80 -39 76 -40 c 1
 74 -41 68 -41 63 -41 c 1
 58 -40 54 -41 50 -42 c 0
 47 -43 43 -44 41 -44 c 0
 39 -44 33 -43 29 -41 c 0
 25 -39 19 -35 16 -33 c 0
 14 -31 9 -24 6 -18 c 0
 3 -11 0 -5 0 -3 c 0
 0 -2 1 1 3 3 c 1
 5 4 9 8 12 10 c 0
 15 12 21 15 25 16 c 0
 28 17 38 18 46 18 c 0
 54 19 65 19 71 19 c 0
 77 19 82 20 84 21 c 0
 87 23 93 23 103 23 c 0
 112 23 123 22 129 21 c 0
 139 19 141 19 151 20 c 1
 158 22 176 23 203 23 c 0
 225 23 246 23 250 22 c 0
 254 21 257 21 259 22 c 0
 261 23 282 24 314 24 c 0
 355 25 368 25 374 27 c 0
EndSplineSet
Validated: 33
EndChar
StartChar: uni0061
Encoding: 97 97 66
Width: 515
GlyphClass: 2
Flags: W
LayerCount: 2
Fore
SplineSet
297 252 m 0
 292 253 288.001 254 287.001 254 c 0
 286.001 254 281.001 252 275.001 249 c 0
 266.001 245 263.001 244 254.001 244 c 0
 247.001 244 240.001 243 236.001 241 c 1
 231.001 240 225.001 238 221.001 237 c 1
 218.001 237 211.001 235 207.001 233 c 0
 204.001 231 197.001 227 193.001 224 c 0
 189.001 221 184.001 217 182.001 216 c 1
 180.001 214 179.001 212 179.001 211 c 0
 179.001 210 176.001 207 173.001 203 c 0
 170.001 200 167.001 193 165.001 188 c 0
 163.001 183 161.001 174 160.001 167 c 0
 159.001 161 158.001 154 158.001 152 c 0
 158.001 150 158.001 144 159.001 139 c 0
 160.001 134 162.001 127 164.001 123 c 0
 166.001 119 170.001 112 174.001 108 c 1
 177.001 104 180.001 100 180.001 99 c 0
 180.001 98 183.001 95 187.001 91 c 0
 190.001 88 193.001 85 194.001 85 c 0
 195.001 85 197.001 84 200.001 82 c 0
 202.001 80 207.001 78 212.001 77 c 0
 216.001 77 223.001 75 228.001 73 c 0
 232.001 71.5 234.001 70.75 236.126 70.75 c 0
 238.251 70.75 240.501 71.5 245.001 73 c 0
 249.001 75 256.001 76 261.001 77 c 0
 265.001 77 273.001 79 278.001 81 c 0
 285.001 84 290.001 89 302.001 100 c 0
 310.001 109 318.001 118 320.001 122 c 0
 322.001 126 325.001 133 327.001 138 c 1
 328.001 143 330.001 154 331.001 162 c 0
 332.001 170 334.001 179 335.001 182 c 0
 335.501 184 335.751 186 335.751 188 c 0
 335.751 190 335.501 192 335.001 194 c 0
 334.001 198 334.001 206 335.001 218 c 0
 335.334 223.667 335.556 227.444 335.556 230.186 c 0
 335.556 235.667 334.667 237 332 241 c 0
 329 245 326 247 323 248 c 0
 320 249 315 250 312 250 c 0
 308 250 302 251 297 252 c 0
243.001 518 m 2
 267.001 518 l 2
 268.251 518.25 269.563 518.375 270.938 518.375 c 0
 275.063 518.375 279.751 517.25 285.001 515 c 0
 293.001 512 300.001 511 311.001 511 c 0
 320.001 510 328.001 509 335.001 507 c 0
 340.001 505 350.001 502 357.001 499 c 0
 364.001 496 373.001 493 376.001 491 c 2
 384.001 487 l 1
 385.001 486 390.001 484 393.001 482 c 1
 397.001 481 405.001 474 412.001 468 c 0
 419.001 461 426.001 454 428.001 451 c 0
 430.001 447 434.001 440 436.001 434 c 2
 439.001 429 443.001 417 445.001 407 c 0
 447.001 398 450.001 389 451.001 387 c 0
 452.001 385 452.956 373.996 454.001 362 c 0
 454.96 350.996 455.001 338 455.001 334 c 2
 455.001 297 l 1
 455.001 259 l 1
 455.001 208 l 1
 455.001 134 l 2
 455.001 106 455.001 101 458.001 93 c 2
 459.001 88 462.001 79 463.001 73 c 0
 465.001 63 465.001 62 462.001 54 c 0
 460.001 46 459.001 44 461.001 38 c 0
 462.001 34 463.001 30 464.001 30 c 1
 465.001 29 465.001 26 465.001 23 c 0
 465.001 19 464.001 15 463.001 13 c 1
 462.001 12 459.001 9 456.001 8 c 0
 454.001 7 446.001 5 438.001 4 c 0
 425.001 3 422.001 3 416.001 5 c 0
 410.001 7 407.001 7 400.001 5 c 0
 396.001 4 389.001 4 385.001 4 c 0
 380.001 4 375.001 5 370.001 8 c 2
 365.001 10 360.001 13 359.001 15 c 0
 358.001 17 355.001 21 353.001 24 c 0
 351.001 28 351.001 31 351.001 38 c 1
 352.001 45 352.001 50 350.001 56 c 0
 347.001 63 346.001 64 341.001 66 c 0
 336.001 68 334.001 68 329.001 66 c 0
 323.001 64 322.001 63 318.001 56 c 0
 316.001 52 313.001 46 311.001 44 c 0
 309.001 42 303.001 37 297.001 32 c 0
 291.001 28 284.001 21 280.001 18 c 0
 277.001 15 270.001 10 266.001 8 c 0
 261.001 6 253.001 3 248.001 3 c 1
 243.001 2 235.001 -1 229.001 -4 c 0
 222.091 -7.45508 219.001 -8.52246 215.441 -8.52246 c 0
 213.85 -8.52246 212.164 -8.30859 210.001 -8 c 0
 206.001 -8 199.001 -7 194.001 -6 c 1
 182.001 -6 l 1
 181.001 -7 171.001 -7 161.001 -6 c 0
 147.001 -5 141.001 -4 137.001 -2 c 0
 133.001 0 129.001 1 126.001 2 c 1
 124.001 2 120.001 4 117.001 5 c 1
 115.001 7 112.001 8 112.001 9 c 0
 112.001 10 109.001 12 106.001 14 c 0
 102.001 17 98.001 19 97.001 19 c 0
 96.001 19 93.001 20 90.001 22 c 2
 87.001 23 84.001 27 82.001 29 c 0
 80.001 32 79.001 34 79.001 35 c 1
 79.001 35 76.001 39 73.001 42 c 0
 70.001 45 66.001 50 64.001 52 c 0
 62.001 55 61.001 58 61.001 58 c 1
 61.001 59 59.001 62 56.001 66 c 0
 53.001 70 50.001 75 49.001 79 c 0
 48.001 82 46.001 89 43.001 93 c 1
 39.001 102 39.001 102 39.001 133 c 0
 39.001 158 39.001 165 41.001 168 c 1
 42.001 171 44.001 176 44.001 181 c 0
 44.001 185 47.001 194 49.001 200 c 1
 56.001 214 l 1
 58.001 215 61.001 220 63.001 224 c 0
 65.001 228 71.001 236 76.001 242 c 0
 81.001 247 86.001 253 87.001 255 c 1
 88.001 256 96.001 261 104.001 267 c 0
 111.001 272 120.001 277 123.001 278 c 0
 127.001 279 131.001 281 133.001 282 c 0
 135.001 283 140.001 286 145.001 289 c 0
 149.001 292 159.001 297 167.001 299 c 0
 176.001 302 187.001 306 193.001 307 c 2
 199.001 309 209.001 311 219.001 311 c 0
 228.001 311 238.001 312 243.001 313 c 0
 247.001 314 258.006 314.95 269.001 316 c 0
 279.005 316.955 296.001 317 306.001 317 c 0
 323.001 316 323.001 316 330.001 323 c 0
 336.001 330 337.001 331 337.001 336 c 0
 337.001 340 336.001 345 335.001 348 c 0
 333.001 353 333.001 357 333.001 365 c 0
 334.001 374 333.001 377 330.001 389 c 1
 327.001 396 326.001 403 326.001 404 c 0
 326.001 405 324.001 411 322.001 416 c 0
 320.001 421 317.001 427 315.001 429 c 0
 313.001 431 310.001 433 308.001 434 c 0
 305.001 436 302.001 436 299.001 436 c 0
 296.001 436 290.001 439 284.001 443 c 0
 274.001 449 274.001 449 263.001 448 c 0
 256.001 447 245.001 445 237.001 443 c 0
 229.001 441 219.001 438 215.001 437 c 0
 210.001 435 206.001 433 203.001 429 c 0
 200.001 425 198.001 422 198.001 421 c 1
 198.001 421 196.001 416 193.001 411 c 2
 191.001 406 186.001 397 183.001 391 c 0
 180.001 386 176.001 379 174.001 377 c 0
 171.001 373 170.001 373 153.001 373 c 0
 143.001 373 122.001 373 105.001 372 c 0
 95.7305 371.691 89.3242 371.478 84.7803 371.478 c 0
 74.6191 371.478 73.7646 372.545 71.001 376 c 0
 69.001 378 66.001 383 64.001 386 c 1
 62.001 392 62.001 393 64.001 399 c 1
 66.001 402 67.001 410 68.001 417 c 1
 68.001 423 69.001 430 70.001 431 c 1
 71.001 433 73.001 436 74.001 437 c 0
 76.001 439 80.001 446 83.001 453 c 0
 88.001 463 91.001 466 96.001 469 c 0
 99.001 471 107.001 475 113.001 479 c 0
 119.001 483 125.001 487 126.001 488 c 1
 127.001 490 132.001 492 137.001 494 c 1
 142.001 495 148.001 498 152.001 500 c 0
 156.001 502 161.001 505 164.001 507 c 0
 169.001 511 170.001 511 193.001 511 c 0
 212.001 512 219.001 513 223.001 515 c 0
 226.001 516 232.001 517 243.001 518 c 2
EndSplineSet
Validated: 33
EndChar
StartChar: uni0066
Encoding: 102 102 71
Width: 314
GlyphClass: 2
Flags: W
LayerCount: 2
Fore
SplineSet
225 741 m 0
 229 741 235.224 741.446 241.001 741.446 c 0
 243.89 741.446 246.667 741.335 249 741.002 c 0
 257 741.002 265 740.002 268 739.002 c 1
 271 737.002 278 736.002 283 736.002 c 0
 291 735.002 294 734.002 298 731.002 c 0
 301 729.002 305 725.002 307 723.002 c 1
 310 718.002 310 717.002 311 694.002 c 0
 311 673.002 311 670.002 308 666.002 c 1
 307 663.002 303 659.002 301 658.002 c 0
 298 657.002 293 654.002 289 653.002 c 2
 283 650.002 279 650.002 275 651.002 c 1
 272 651.002 264 651.002 257 650.002 c 0
 249 649.002 243 646.002 238 644.002 c 1
 235 642.002 228 637.002 224 632.002 c 0
 220 628.002 214 621.002 212 618.002 c 0
 209 614.002 207 608.002 206 603.002 c 0
 205 598.002 205 577.002 205 556.002 c 0
 206 521.002 206 518.002 209 512.002 c 0
 211 508.002 214 504.002 217 502.002 c 0
 220 500.002 224 500.002 231 500.002 c 0
 236 500.002 243 501.002 246 502.002 c 0
 251 504.002 256 505.002 267 504.002 c 0
 276 504.002 283 503.002 284 502.002 c 1
 286 501.002 288 498.002 289 496.002 c 2
 290 495.002 292 488.002 295 481.002 c 0
 298 470.002 298 469.002 297 453.002 c 0
 296 444.002 295 434.002 294 429.002 c 0
 293 425.002 291 420.002 290 418.002 c 1
 287 415.002 285 415.002 270 414.002 c 0
 260 414.002 248 414.002 241 415.002 c 1
 235 415.002 227 415.002 222 414.002 c 0
 218 414.002 213 412.002 211 410.002 c 0
 209 408.002 207 403.002 206 399.002 c 0
 205 393.002 205 390.002 206 384.002 c 0
 208 377.002 208 374.002 207 367.002 c 0
 206 362.002 205 346.002 205 331.002 c 0
 204 316.002 204 301.002 204 298.002 c 0
 204 295.002 205 276.002 206 254.002 c 0
 206.5 239.502 206.75 229.502 206.75 222.502 c 0
 206.75 215.502 206.5 211.502 206 209.002 c 0
 205 204.002 205 180.002 205 127.002 c 0
 206 63.002 206 50.002 208 43.002 c 0
 210 39.002 211 32.002 211 29.002 c 0
 211 25.002 210 21.002 208 19.002 c 2
 207 17.002 202 13.002 198 11.002 c 0
 192 9.00195 188 8.00195 169 8.00195 c 0
 152 8.00195 147 7.00195 141 5.00195 c 0
 137.292 3.76562 135.111 2.91113 132.807 2.91113 c 0
 131.382 2.91113 129.91 3.2373 128 4.00098 c 0
 124 5.00098 119 7.00098 116 7.00098 c 2
 113 8.00098 106 9.00098 100 9.00098 c 0
 92 9.00098 89 9.00098 86 12.001 c 2
 83 13.001 81 17.001 80 20.001 c 0
 79.293 22.8291 78.5859 30.6572 78.5859 44.8994 c 0
 78.5859 50.7988 78.707 57.7988 79 66 c 0
 79 97 80 108 81 110 c 0
 83 113 83 120 83 136 c 0
 83 153 82 159 80 163 c 0
 79 166 78 171 78 180 c 0
 78 187 79 195 81 199 c 0
 83 206 83 207 80 214 c 0
 78 220 78 225 79 244 c 0
 79 256 80 269 80 271 c 0
 80 274 79 300 79 329 c 0
 78 359 78 389 77 396 c 2
 77 403 76 409 75 410 c 0
 74 411 70 412 62 412 c 0
 56 412 43 413 33 414 c 0
 24 414 14 416 11 417 c 0
 9 418 5 421 3 423 c 0
 1 426 0 430 0 434 c 0
 0 437 0 450 1 461 c 0
 1 474 3 485 4 489 c 0
 6 494 8 496 13 498 c 1
 18 501 22 502 29 502 c 0
 34 502 41 501 45 501 c 0
 49 501 55 501 58 502 c 2
 61 502 66 505 69 508 c 0
 72 511 76 515 77 518 c 1
 77 520 78 525 78 530 c 0
 78 534 79 540 81 543 c 1
 82 546 83 554 83 560 c 0
 83 567 83 573 81 578 c 0
 79 582 78 590 78 595 c 0
 78 601 79 608 80 611 c 0
 82 615 83 621 83 624 c 0
 83 628 84 635 86 641 c 0
 87 646 90 653 91 657 c 0
 92 661 94 668 96 673 c 0
 99 680 101 684 106 689 c 2
 120 703 l 2
 124 707 132 713 138 716 c 2
 143 720 151 724 155 725 c 0
 159 726 166 729 170 730 c 0
 175 731 180 733 181 733 c 2
 183 734 187 735 191 735 c 0
 195 735 202 736 206 737 c 1
 210 739 219 740 225 741 c 0
EndSplineSet
Validated: 33
EndChar
StartChar: uni006E
Encoding: 110 110 79
Width: 576
GlyphClass: 2
Flags: W
LayerCount: 2
Fore
SplineSet
344 521 m 0
 347 522 350.001 522.999 351.001 522.999 c 1
 353.001 521.999 358.001 520.999 363.001 518.999 c 0
 368.001 516.999 375.001 514.999 379.001 513.999 c 1
 382.001 511.999 390.001 511.999 398.001 510.999 c 0
 411.001 510.999 413.001 510.999 421.001 506.999 c 0
 426.001 503.999 434.001 498.999 438.001 495.999 c 0
 443.001 492.999 449.001 488.999 451.001 486.999 c 1
 454.001 485.999 458.001 481.999 460.001 478.999 c 0
 462.001 475.999 464.001 472.999 465.001 470.999 c 0
 466.001 468.999 472.001 462.999 478.001 456.999 c 0
 485.001 449.999 490.001 443.999 493.001 436.999 c 0
 495.001 431.999 498.001 424.999 498.001 420.999 c 1
 499.001 416.999 501.001 409.999 503.001 404.999 c 0
 505.001 396.999 506.001 390.999 506.001 369.999 c 0
 506.001 350.999 505.001 342.999 504.001 337.999 c 1
 502.001 332.999 502.001 330.999 503.001 325.999 c 1
 505.001 321.999 506.001 310.999 506.001 299.999 c 0
 507.001 287.999 508.001 279.999 509.001 275.999 c 1
 511.001 271.999 511.001 265.999 511.001 244.999 c 0
 511.001 229.999 510.001 217.999 509.001 214.999 c 0
 508.001 211.999 507.001 204.999 508.001 192.999 c 0
 508.001 181.999 509.001 171.999 510.001 168.999 c 0
 511.001 165.999 511.001 145.999 511.001 124.999 c 0
 511.001 102.999 510.001 82.999 510.001 79.999 c 1
 509.001 76.999 509.001 68.999 508.001 63.999 c 0
 507.001 55.999 508.001 51.999 509.001 46.999 c 1
 511.001 42.999 512.001 36.999 512.001 32.999 c 0
 512.001 25.999 511.001 23.999 506.001 15.999 c 0
 502.001 10.999 498.001 5.99902 496.001 4.99902 c 0
 494.001 3.99902 480.001 3.99902 455.001 2.99902 c 0
 417.001 2.99902 417.001 2.99902 410.001 6.99902 c 1
 404.001 8.99902 401.001 9.99902 397.001 8.99902 c 1
 393.001 8.99902 390.001 8.99902 388.001 10.999 c 1
 386.001 11.999 382.001 15.999 381.001 17.999 c 0
 378.001 22.999 378.001 24.999 379.001 43.999 c 0
 379.001 55.999 380.001 75.999 380.001 87.999 c 0
 381.001 100.999 381.001 112.999 381.001 114.999 c 0
 381.001 117.999 380.001 125.999 380.001 134.999 c 1
 379.001 139.999 378.501 146.499 378.501 155.124 c 0
 378.501 163.749 379.001 174.499 380.001 187.999 c 0
 380.001 209.999 381.001 228.999 381.001 230.999 c 0
 381.001 233.999 381.001 242.999 380.001 251.999 c 0
 378.829 259.028 378.344 265.715 378.344 273.063 c 0
 378.344 278.26 378.586 283.787 379 290 c 0
 380 301 381 314 380 317 c 0
 379 322 380 326 381 329 c 1
 383 332 384 337 384 339 c 0
 384 342 382 348 379 354 c 0
 376 359 373 367 373 371 c 0
 372 377 370 379 362 389 c 0
 357 394 349 402 344 406 c 0
 340 410 334 414 331 416 c 0
 329 417 326 419 325 420 c 0
 324 421 319 424 313 426 c 2
 305 431 303 431 294 430 c 0
 289 430 281 428 277 427 c 0
 273 426 267 424 262 423 c 0
 258 422 252 421 247 420 c 0
 241 419 239 417 233 411 c 1
 230 407 223 401 218 397 c 0
 211 391 208 387 205 382 c 1
 203 377 201 372 201 371 c 0
 201 369 200 364 199 360 c 1
 197 357 196 350 195 346 c 1
 195 342 193 336 192 333 c 1
 189 329 189 324 189 294 c 0
 189 269 190 257 192 250 c 0
 193 245 194 234 194 223 c 0
 194 207 194 203 192 198 c 0
 190 194 189 190 189 176 c 0
 190 167 189 156 188 152 c 0
 187 146 187 143 188 139 c 1
 189 137 191 129 193 122 c 0
 194 116 195 109 195 107 c 1
 194 105 193 101 192 98 c 1
 190 96 189 89 189 85 c 0
 188 80 189 71 189 65 c 1
 190 58 190 45 190 36 c 0
 189 21 188 17 186 14 c 0
 184 11 180 9 173 7 c 0
 166 4 157 4 125 3 c 0
 90 3 85 3 80 5 c 1
 77 7 73 9 71 11 c 0
 69 13 66 18 65 22 c 0
 62 29 62 34 62 50 c 0
 62 63 63 72 64 76 c 1
 66 80 66 84 65 91 c 0
 64 97 64 104 65 110 c 0
 66 118 66 121 64 126 c 0
 63 130 62 136 62 145 c 1
 63 152 64 160 65 163 c 1
 65 166 66 174 66 183 c 0
 66 191 65 201 64 206 c 0
 63 213 62 226 62 252 c 0
 62 272 62 291 63 294 c 0
 64 298 64 303 62 308 c 1
 61 313 60 320 60 325 c 0
 60 329 62 337 63 342 c 1
 66 350 66 352 64 358 c 0
 63 362 62 368 62 371 c 0
 62 374 63 379 64 382 c 0
 65 384 66 389 66 391 c 0
 66 393 65 397 64 399 c 0
 62 403 61 409 61 448 c 0
 61 485 61 494 63 497 c 0
 65 500 68 503 71 504 c 2
 73 506 79 508 83 508 c 0
 87 508 95 508 101 506 c 0
 111 504 114 504 126 506 c 0
 133 507 144 508 150 508 c 0
 160 509 163 508 167 506 c 1
 169 504 173 501 175 499 c 0
 177 496 180 492 181 489 c 0
 182 486 182 482 181 473 c 0
 179 461 179 461 185 452 c 0
 188 447 191 442 193 441 c 2
 194 440 196 439 198 439 c 0
 199 439 203 441 206 442 c 1
 208 444 212 448 215 452 c 0
 217 456 223 462 228 466 c 0
 232 469 238 475 241 478 c 0
 243 481 249 487 254 491 c 0
 258 495 266 499 270 501 c 1
 274 502 278 504 279 505 c 1
 281 506 287 508 293 510 c 0
 300 512 307 514 309 515 c 0
 311 516 318 517 326 518 c 0
 333 518 341 520 344 521 c 0
EndSplineSet
Validated: 33
EndChar
StartChar: uni006F
Encoding: 111 111 80
Width: 575
GlyphClass: 2
Flags: W
LayerCount: 2
Fore
SplineSet
294 441 m 1
 290 443 285.999 444.001 284.999 444.001 c 0
 283.999 444.001 279.999 442.001 274.999 441.001 c 0
 270.999 440.001 262.999 438.001 257.999 437.001 c 1
 250.999 437.001 244.999 435.001 238.999 431.001 c 0
 232.999 428.001 225.999 423.001 221.999 420.001 c 1
 217.999 416.001 213.999 413.001 212.999 413.001 c 1
 203.999 406.001 l 2
 199.999 403.001 193.999 397.001 192.999 393.001 c 2
 190.999 390.001 186.999 383.001 185.999 377.001 c 2
 183.999 371.001 181.999 362.001 179.999 356.001 c 0
 178.999 351.001 177.999 342.001 175.999 338.001 c 1
 174.999 334.001 173.999 327.001 173.999 323.001 c 0
 173.999 320.001 172.999 314.001 171.999 310.001 c 1
 169.999 306.001 168.999 296.001 168.999 279.001 c 0
 168.585 270.717 168.343 265.006 168.343 260.66 c 0
 168.343 254.515 168.828 251.101 170 247 c 0
 172 241 172.824 230.99 174 211 c 0
 175 194 176 181 177 178 c 0
 178 176 179 170 180 165 c 1
 180 160 183 153 185 148 c 0
 187 144 189 139 189 139 c 1
 189 138 191 135 193 132 c 0
 195 128 199 123 202 121 c 1
 204 118 208 113 210 110 c 0
 212 106 216 102 218 100 c 1
 220 99 224 95 227 93 c 0
 230 91 238 88 246 86 c 0
 254 84 264 82 269 82 c 0
 274 82 280 81 283 80 c 0
 286 79 291 78 295 78 c 0
 298 78 305 79 310 81 c 0
 314 82 319 84 320 84 c 0
 321 84 324 85 326 86 c 0
 328 87 332 88 335 89 c 0
 338 90 344 94 357 106 c 0
 366 116 375 126 378 130 c 0
 380 134 383 139 384 140 c 2
 385 142 388 147 390 151 c 0
 392 155 393 160 393 162 c 0
 393 163 394 168 396 173 c 0
 398 179 399 187 400 213 c 0
 400 230 401 253 402 264 c 0
 402.5 270.5 402.75 275.75 402.75 279.5 c 0
 402.75 283.25 402.5 285.5 402 286 c 1
 401 288 400 299 400 312 c 0
 400 330 399 335 397 339 c 0
 396 342 394 349 393 355 c 0
 392 360 391 367 391 368 c 0
 391 370 389 375 386 380 c 0
 384 384 381 390 378 392 c 1
 376 395 370 401 366 407 c 0
 362 412 355 420 351 423 c 0
 347 426 340 431 336 433 c 0
 330 436 325 437 315 438 c 0
 307 439 298 440 294 441 c 1
266.999 523.001 m 2
 268.999 524.001 283.999 524.001 297.999 524.001 c 0
 317.999 523.001 326.999 523.001 331.999 521.001 c 0
 335.999 519.001 340.999 517.001 342.999 516.001 c 0
 344.999 515.001 349.999 513.001 355.999 511.001 c 0
 360.999 510.001 371.999 507.001 379.999 505.001 c 0
 386.999 504.001 396.999 501.001 400.999 499.001 c 0
 404.999 497.001 413.999 490.001 420.999 485.001 c 0
 426.999 480.001 438.999 471.001 445.999 465.001 c 2
 460.999 454.001 l 1
 461.999 454.001 464.999 452.001 466.999 450.001 c 0
 468.999 448.001 472.999 443.001 474.999 439.001 c 0
 476.999 436.001 480.999 429.001 483.999 425.001 c 0
 485.999 421.001 490.999 415.001 492.999 411.001 c 1
 495.999 408.001 499.999 401.001 502.999 396.001 c 1
 504.999 391.001 506.999 386.001 507.999 385.001 c 0
 508.999 384.001 510.999 381.001 511.999 378.001 c 0
 512.999 375.001 513.999 368.001 514.999 361.001 c 1
 514.999 355.001 516.999 348.001 517.999 345.001 c 1
 519.999 342.001 521.999 337.001 521.999 333.001 c 1
 522.999 329.001 524.999 326.001 524.999 325.001 c 1
 525.999 325.001 526.999 318.001 526.999 311.001 c 0
 526.999 301.001 527.999 294.001 529.999 288.001 c 0
 531.999 282.001 532.999 276.001 532.999 261.001 c 0
 532.999 249.001 531.999 241.001 529.999 237.001 c 1
 528.999 233.001 527.999 226.001 527.999 220.001 c 0
 527.999 212.001 526.999 207.001 524.999 203.001 c 0
 522.999 198.001 521.999 192.001 520.999 179.001 c 0
 520.999 170.001 519.999 161.001 518.999 159.001 c 0
 517.999 156.001 515.999 154.001 513.999 153.001 c 1
 512.999 152.001 510.999 148.001 510.999 145.001 c 1
 509.999 142.001 507.999 137.001 506.999 134.001 c 0
 505.999 131.001 503.999 129.001 502.999 128.001 c 1
 501.999 128.001 500.999 125.001 498.999 122.001 c 1
 497.999 119.001 492.999 109.001 487.999 101.001 c 0
 481.999 89.001 476.999 81.001 468.999 72.001 c 2
 455.999 59.001 l 1
 454.999 59.001 450.999 56.001 446.999 52.001 c 2
 436.999 42.001 l 2
 434.999 40.001 430.999 37.001 427.999 36.001 c 2
 424.999 34.001 419.999 33.001 415.999 31.001 c 2
 411.999 30.001 406.999 28.001 403.999 25.001 c 0
 399.999 22.001 391.999 19.001 383.999 16.001 c 0
 375.999 14.001 366.999 10.001 361.999 8.00098 c 0
 357.999 7.00098 352.999 5.00098 352.999 4.00098 c 1
 351.999 4.00098 347.999 3.00098 343.999 2.00098 c 0
 339.999 1.00098 333.999 0.000976562 331.999 -0.999023 c 0
 328.999 -1.99902 324.999 -2.99902 322.999 -2.99902 c 0
 320.999 -2.99902 314.999 -1.99902 309.999 0.000976562 c 0
 300.999 3.00098 300.999 3.00098 290.999 0.000976562 c 0
 282.999 -1.99902 277.999 -2.99902 262.999 -2.99902 c 0
 253.999 -2.99902 244.999 -1.99902 242.999 -1.99902 c 1
 241.999 -0.999023 233.999 0.000976562 224.999 1.00098 c 0
 216.999 2.00098 205.999 5.00098 201.999 6.00098 c 0
 196.999 8.00098 188.999 11.001 183.999 12.001 c 1
 178.999 14.001 169.999 18.001 163.999 21.001 c 0
 157.999 24.001 151.999 28.001 149.999 30.001 c 0
 147.999 32.001 145.999 36.001 144.999 37.001 c 2
 143.999 39.001 138.999 43.001 132.999 45.001 c 1
 127.999 48.001 120.999 52.001 118.999 53.001 c 1
 116.999 55.001 111.999 59.001 108.999 63.001 c 0
 105.999 67.001 99.999 73.001 95.999 76.001 c 0
 91.999 79.001 87.999 84.001 85.999 87.001 c 0
 83.999 89.001 79.999 97.001 77.999 105.001 c 1
 74.999 112.001 70.999 121.001 68.999 125.001 c 0
 66.999 128.001 63.999 134.001 62.999 139.001 c 0
 61.999 143.001 59.999 148.001 57.999 151.001 c 2
 56.999 154.001 54.999 159.001 52.999 162.001 c 1
 51.999 166.001 49.999 170.001 49.999 173.001 c 0
 49.999 175.001 48.999 183.001 47.999 190.001 c 0
 46.999 196.001 44.999 205.001 43.999 208.001 c 1
 41.999 211.001 40.999 220.001 40.999 230.001 c 0
 40.999 239.001 41.999 250.001 41.999 254.001 c 0
 42.999 259.001 42.999 263.001 41.999 268.001 c 1
 39.999 272.001 39.999 280.001 39.999 285.001 c 0
 39.999 290.001 40.999 299.001 42.999 305.001 c 0
 44.999 311.001 46.999 321.001 46.999 328.001 c 0
 46.999 335.001 47.999 341.001 48.999 343.001 c 0
 49.999 345.001 50.999 348.001 52.999 351.001 c 1
 53.999 354.001 55.999 360.001 56.999 365.001 c 0
 57.999 370.001 61.999 377.001 63.999 381.001 c 0
 66.999 386.001 69.999 390.001 69.999 391.001 c 0
 69.999 393.001 71.999 399.001 74.999 404.001 c 0
 77.999 410.001 80.999 418.001 81.999 421.001 c 1
 81.999 425.001 83.999 429.001 85.999 432.001 c 0
 86.999 434.001 91.999 439.001 94.999 442.001 c 0
 98.999 446.001 104.999 452.001 109.999 456.001 c 0
 114.999 460.001 122.999 468.001 127.999 472.001 c 0
 133.999 477.001 139.999 483.001 141.999 485.001 c 0
 143.999 487.001 147.999 489.001 150.999 491.001 c 1
 153.999 492.001 159.999 495.001 162.999 496.001 c 0
 165.999 497.001 167.999 499.001 167.999 499.001 c 1
 167.999 500.001 169.999 502.001 172.999 503.001 c 0
 174.999 504.001 180.999 506.001 184.999 507.001 c 0
 188.999 508.001 196.999 509.001 201.999 511.001 c 2
 206.999 512.001 213.999 514.001 216.999 515.001 c 1
 220.999 515.001 229.999 517.001 237.999 517.001 c 0
 245.999 518.001 254.999 519.001 256.999 520.001 c 0
 258.999 521.001 263.999 523.001 266.999 523.001 c 2
EndSplineSet
Validated: 33
EndChar
StartChar: uni0072
Encoding: 114 114 83
Width: 371
GlyphClass: 2
Flags: W
LayerCount: 2
Fore
SplineSet
137 510 m 1
 138 511 140.002 510.998 142.002 510.998 c 0
 144.002 510.998 147.002 510.998 147.002 509.998 c 1
 148.002 509.998 152.002 507.998 155.002 506.998 c 0
 159.002 505.998 164.002 502.998 166.002 500.998 c 0
 169.002 498.998 173.002 493.998 174.002 491.998 c 0
 176.002 487.998 176.002 481.998 176.002 459.998 c 0
 176.002 444.998 177.002 430.998 177.002 428.998 c 1
 178.002 426.998 181.002 423.998 183.002 422.998 c 1
 187.002 421.998 188.002 421.998 192.002 423.998 c 0
 194.002 424.998 199.002 429.998 202.002 433.998 c 2
 206.002 437.998 208.002 441.998 208.002 442.998 c 0
 208.002 443.998 211.002 447.998 214.002 451.998 c 0
 217.002 456.998 222.002 461.998 226.002 463.998 c 0
 229.002 465.998 234.002 469.998 235.002 472.998 c 1
 237.002 475.998 241.002 479.998 243.002 482.998 c 0
 245.002 484.998 252.002 488.998 258.002 491.998 c 0
 264.002 494.998 270.002 497.998 272.002 497.998 c 1
 273.002 498.998 276.002 499.998 278.002 499.998 c 0
 280.002 499.998 286.002 500.998 291.002 502.998 c 0
 296.002 504.998 304.002 506.998 308.002 507.998 c 1
 312.002 507.998 318.002 508.998 321.002 509.998 c 0
 326.002 510.998 328.002 510.998 332.002 509.998 c 1
 334.002 508.998 337.002 506.998 338.002 504.998 c 0
 339.002 502.998 341.002 497.998 342.002 491.998 c 0
 343.002 486.998 344.002 474.998 344.002 465.998 c 0
 344.335 462.998 344.446 459.887 344.446 456.998 c 0
 344.446 451.221 344.002 446.332 344.002 444.999 c 2
 343.002 441.999 342.002 434.999 342.002 427.999 c 0
 341.002 418.999 340.002 412.999 338.002 408.999 c 0
 337.002 405.999 334.002 401.999 332.002 399.999 c 0
 330.002 397.999 326.002 395.999 323.002 393.999 c 1
 318.002 391.999 314.002 390.999 304.002 390.999 c 0
 294.002 390.999 287.002 389.999 277.002 386.999 c 0
 271.002 384.999 261.002 382.999 255.002 380.999 c 0
 250.002 379.999 243.002 377.999 239.002 377.999 c 1
 236.002 376.999 231.002 375.999 229.002 374.999 c 0
 227.002 373.999 225.002 370.999 224.002 368.999 c 0
 222.002 365.999 218.002 360.999 215.002 356.999 c 0
 212.002 353.999 207.002 346.999 205.002 342.999 c 0
 203.002 338.999 200.002 330.999 199.002 324.999 c 0
 198.002 319.999 196.002 313.999 195.002 311.999 c 0
 194.002 308.999 193.002 305.999 191.002 303.999 c 1
 190.002 301.999 189.002 296.999 188.002 291.999 c 1
 188.002 285.999 188.002 282.999 190.002 277.999 c 0
 192.002 273.999 192.002 268.999 192.002 256.999 c 0
 192.002 248.999 191.002 240.999 191.002 238.999 c 1
 190.002 237.999 189.002 229.999 189.002 222.999 c 0
 189.002 214.999 188.002 202.999 188.002 194.999 c 2
 186.002 182.999 186.002 179.999 188.002 175.999 c 0
 189.653 173.797 190.396 171.897 190.396 166.298 c 0
 190.396 161.726 189.9 154.686 189.001 142.999 c 0
 188.501 133.499 188.251 124.249 188.251 114.624 c 0
 188.251 104.999 188.501 94.999 189.001 83.999 c 0
 189.001 66.999 190.001 47.999 190.001 40.999 c 0
 189.001 30.999 189.001 25.999 186.001 20.999 c 0
 184.001 17.999 181.001 12.999 179.001 11.999 c 0
 176.001 9.99902 171.001 8.99902 161.001 7.99902 c 0
 152.001 7.99902 143.001 5.99902 139.001 4.99902 c 0
 135.752 3.60645 134.011 2.86035 132.078 2.86035 c 0
 129.847 2.86035 127.359 3.85547 122 5.99902 c 0
 111 8.99902 111 8.99902 100 6.99902 c 0
 94.4951 5.34766 91.7178 4.60547 89.332 4.60547 c 0
 87.3838 4.60547 85.6973 5.10059 83 6 c 0
 79 8 74 9 72 9 c 0
 70 9 67 10 65 12 c 0
 63 14 62 18 61 24 c 0
 60 28 59 34 57 37 c 1
 55 42 55 44 57 56 c 0
 58 64 59 80 60 92 c 2
 60 123 l 2
 60 127 60 143 59 159 c 0
 59 174 58 189 58 190 c 0
 58 192 59 198 60 203 c 0
 61 210 61 215 60 220 c 0
 59 224 58 229 57 231 c 1
 57 233 58 239 59 244 c 0
 61 250 61 254 60 261 c 0
 59 267 59 274 60 280 c 0
 61 285 61 291 60 295 c 2
 60 298 59 304 57 308 c 0
 55 315 55 317 57 322 c 0
 59 326 60 333 60 338 c 2
 61 343 60 354 59 362 c 0
 58 370 57 379 57 381 c 0
 57 384 58 391 59 398 c 0
 60 405 60 421 60 441 c 0
 60 466 59 475 58 479 c 1
 56 482 55 486 55 489 c 0
 55 491 56 495 57 498 c 0
 58 500 61 502 63 503 c 0
 66 505 75 506 96 506 c 0
 112 507 128 507 131 508 c 2
 134 508 137 509 137 510 c 1
EndSplineSet
Validated: 33
EndChar
StartChar: uni0077
Encoding: 119 119 88
Width: 827
GlyphClass: 2
Flags: W
LayerCount: 2
Fore
SplineSet
19 503 m 0
 23 505 28 505 49 505 c 0
 69 506 76 505 79 503 c 0
 81 502 86 501 90 501 c 0
 94 501 100 502 103 503 c 0
 109 505 111 505 116 503 c 0
 119 502 123 499 125 497 c 0
 126 496 129 491 131 488 c 0
 133 484 135 478 137 474 c 1
 138 470 140 463 140 459 c 0
 141 453 143 447 145 442 c 0
 149 434 150 432 149 427 c 1
 149 422 149 417 153 407 c 0
 155 399 157 391 157 388 c 0
 157 385 158 380 160 377 c 1
 161 374 163 367 163 362 c 1
 164 357 166 351 169 347 c 0
 171 343 174 338 174 336 c 0
 174 333 175 323 176 312 c 0
 177 302 179 289 180 283 c 1
 182 277 183 269 185 265 c 1
 186 261 187 255 187 252 c 0
 187 250 188 244 190 239 c 0
 191 235 192 228 192 225 c 2
 193 221 194 214 195 210 c 0
 196 206 198 198 198 194 c 0
 199 189 201 183 203 179 c 0
 205 175 206 169 206 163 c 0
 206 157 207 150 209 144 c 1
 212 138 215 132 220 127 c 0
 225 121 228 119 231 119 c 0
 233 119 236 120 238 122 c 1
 240 123 242 128 244 132 c 0
 246 136 248 143 249 153 c 0
 249 160 250 169 251 171 c 2
 251 174 253 178 255 182 c 0
 257 185 259 189 259 191 c 0
 259 192 260 199 262 205 c 0
 264 211 266 218 266 221 c 0
 266 224 267 229 269 233 c 0
 271 237 273 244 274 250 c 0
 275 255 279 268 283 279 c 0
 287 291 290 301 290 306 c 0
 290 310 290 315 292 318 c 0
 293 320 295 328 297 335 c 0
 299 342 302 352 304 358 c 1
 307 364 309 374 311 384 c 0
 312 393 314 403 315 406 c 0
 316 408 319 415 320 420 c 0
 322 426 323 433 323 436 c 0
 323 439 325 444 326 447 c 0
 327 451 329 456 330 460 c 1
 330 464 332 472 334 478 c 0
 336 487 339 491 342 495 c 1
 345 497 349 500 352 500 c 1
 355 501 360 502 362 504 c 1
 367 506 368 506 376 504 c 0
 381 503 390 502 396 502 c 0
 403 502 410 502 412 503 c 1
 415 503 424 502 434 501 c 0
 445 500 453 500 459 501 c 0
 464 502 469 502 472 502 c 1
 474 501 477 500 479 498 c 0
 480 497 483 494 484 491 c 0
 485 489 487 484 487 481 c 1
 488 477 489 472 490 470 c 0
 491 468 492 464 493 461 c 0
 494 458 495 455 497 454 c 1
 498 453 501 451 502 449 c 0
 504 445 504 444 502 437 c 0
 500 429 500 429 506 411 c 0
 510 401 514 392 515 390 c 1
 516 389 517 382 517 375 c 0
 518 365 520 360 523 355 c 1
 525 350 528 341 529 334 c 0
 531 327 533 316 533 309 c 0
 534 301 536 294 539 288 c 0
 542 283 545 274 547 268 c 0
 549 262 551 254 551 248 c 1
 552 243 554 236 556 233 c 1
 557 230 559 225 559 221 c 0
 559 217 560 208 562 201 c 0
 564 194 567 187 568 185 c 1
 569 184 571 179 572 175 c 0
 574 170 576 163 578 158 c 0
 579 154 581 148 581 146 c 0
 581 144 582 140 583 138 c 0
 584 135 586 131 588 130 c 1
 590 128 594 126 596 125 c 0
 599 124 601 124 605 126 c 0
 608 127 611 130 614 136 c 0
 617 142 618 147 619 156 c 0
 619 162 620 169 621 171 c 1
 623 173 624 180 624 186 c 1
 625 193 626 201 628 206 c 1
 629 211 631 216 631 219 c 0
 631 221 632 225 633 227 c 0
 634 230 635 236 636 241 c 1
 636 246 637 253 638 256 c 1
 640 258 641 264 641 269 c 1
 642 273 644 279 646 282 c 2
 647 285 650 289 651 291 c 0
 652 294 653 302 654 311 c 0
 654 320 655 328 655 330 c 0
 655 332 657 336 660 338 c 1
 663 342 665 347 667 357 c 0
 669 365 671 377 671 386 c 0
 672 395 672 403 673 405 c 2
 673 407 675 410 677 413 c 0
 679 415 682 421 683 426 c 2
 685 430 686 440 686 447 c 0
 686 454 687 462 688 465 c 0
 689 468 693 476 698 482 c 0
 702 488 708 495 710 496 c 2
 713 499 716 500 721 500 c 0
 724 500 732 501 737 503 c 0
 747 506 747 506 760 504 c 0
 768 502 776 501 779 501 c 0
 782 501 787 502 791 503 c 1
 794 505 799 506 801 506 c 0
 804 506 807 504 810 501 c 0
 813 498 816 493 816 491 c 1
 817 488 816 483 815 479 c 0
 814 475 811 467 809 460 c 0
 806 453 803 447 802 446 c 1
 802 445 800 441 799 437 c 0
 798 433 796 427 795 424 c 1
 793 421 792 415 792 411 c 0
 792 405 791 400 787 392 c 0
 784 386 781 379 781 375 c 0
 781 371 780 367 779 365 c 1
 778 364 776 358 774 352 c 0
 772 346 770 339 769 337 c 1
 769 334 768 330 767 329 c 0
 766 328 764 322 762 316 c 1
 759 310 755 301 752 296 c 0
 747 288 746 286 745 275 c 0
 745 268 743 260 742 256 c 0
 741 253 739 249 738 247 c 1
 737 246 734 239 731 233 c 0
 726 223 726 219 725 207 c 0
 723.917 194.007 724 192 718 181 c 0
 715 175 710 164 708 157 c 0
 707 150 705 141 704 136 c 1
 704 131 702 125 701 123 c 0
 700 121 697 117 694 113 c 0
 691 109 688 104 687 102 c 1
 687 99 685 94 683 89 c 0
 679 82 679 81 680 69 c 0
 680.917 57.9932 681 57 676 48 c 1
 674 42 670 34 669 29 c 1
 667 24 664 17 662 14 c 0
 660 10 657 6 654 4 c 0
 651 2 648 2 636 1 c 2
 612 1 l 1
 593 1 l 2
 587 1 579 0 576 -1 c 0
 573 -2 568 -3 566 -3 c 0
 563 -3 560 -2 559 -2 c 1
 557 -1 552 1 548 1 c 1
 544 2 535 5 529 8 c 0
 522 12 517 15 515 18 c 0
 514 20 512 28 510 35 c 0
 509 42 506 52 504 56 c 0
 502 61 500 67 500 69 c 0
 500 72 499 75 498 77 c 0
 497 79 496 86 495 93 c 1
 495 100 493 109 492 113 c 0
 491 117 488 124 487 129 c 2
 485 134 483 141 482 145 c 0
 481 148 479 156 477 162 c 0
 474 169 471 178 470 184 c 2
 468 189 466 197 465 203 c 0
 464 208 462 215 461 219 c 1
 461 223 459 230 457 235 c 2
 456 240 454 248 453 251 c 0
 452 255 450 259 450 259 c 1
 449 260 447 264 446 269 c 1
 443 274 442 280 442 288 c 0
 442 294 441 303 440 308 c 0
 439 313 437 320 436 325 c 0
 435 330 433 335 432 336 c 1
 432 338 430 342 428 346 c 1
 427 350 425 356 425 359 c 1
 424 362 422 366 421 368 c 1
 419 369 416 372 413 373 c 0
 410 374 407 374 405 374 c 1
 403 373 400 372 399 370 c 2
 397 368 394 364 392 360 c 1
 391 356 389 350 388 346 c 0
 387 342 386 337 385 336 c 1
 384 334 382 329 380 323 c 2
 376 315 376 311 375 297 c 0
 375 283 374 279 371 272 c 0
 369 267 366 260 366 256 c 0
 365 251 363 243 361 238 c 0
 359 233 356 227 356 226 c 2
 355 224 353 218 352 213 c 0
 351 207 349 197 348 191 c 0
 347 185 344 175 341 169 c 0
 338 163 335 153 334 148 c 0
 333 142 331 136 330 135 c 1
 330 133 328 125 328 117 c 0
 328 103 327 102 323 97 c 0
 321 94 317 88 315 84 c 0
 312 77 311 73 310 62 c 0
 310 54 308 44 307 40 c 0
 305 35 303 28 301 23 c 0
 299 19 297 14 296 12 c 1
 294 10 291 7 288 6 c 0
 284 4 278 3 260 2 c 0
 244 2 235 2 231 3 c 0
 227 4 222 4 211 3 c 0
 203 2 190 2 181 2 c 0
 165 3 164 3 159 9 c 1
 156 11 152 16 151 19 c 0
 150 21 148 25 148 27 c 0
 148 29 144 41 140 54 c 0
 135 68 130 82 129 87 c 0
 128 92 125 101 122 107 c 0
 119 114 117 122 116 128 c 1
 116 133 113 140 111 145 c 0
 109 149 105 159 103 167 c 0
 100 176 97 183 97 183 c 1
 96 183 96 186 96 190 c 0
 96 193 94 201 91 209 c 0
 89 216 86 224 85 226 c 1
 84 227 82 233 80 238 c 0
 78 244 76 250 76 255 c 0
 76 261 75 266 71 274 c 0
 68 280 66 286 66 287 c 0
 66 289 64 296 62 303 c 0
 59 311 56 317 56 318 c 1
 55 319 54 322 54 325 c 1
 53 328 50 337 48 345 c 0
 45 353 42 362 42 364 c 1
 41 367 39 373 37 378 c 1
 34 382 32 389 31 393 c 0
 30 397 28 402 26 403 c 1
 25 405 23 408 22 410 c 0
 20 413 19 418 19 427 c 0
 18 437 18 442 15 446 c 0
 13 450 11 455 11 459 c 1
 10 463 9 470 7 474 c 0
 5 478 4 482 5 486 c 1
 5 489 8 493 10 496 c 0
 12 498 16 501 19 503 c 0
EndSplineSet
Validated: 33
EndChar
StartChar: uni0078
Encoding: 120 120 89
Width: 480
GlyphClass: 2
Flags: W
LayerCount: 2
Fore
SplineSet
30 500 m 1
 32 500 34.4443 500.443 37.0371 500.443 c 0
 38.333 500.443 39.666 500.332 40.999 499.999 c 0
 43.999 499.999 46.999 498.999 47.999 497.999 c 0
 48.999 496.999 54.999 495.999 59.999 495.999 c 2
 66.999 494.999 71.999 495.999 75.999 496.999 c 1
 79.999 498.999 86.999 499.999 105.999 499.999 c 0
 126.999 499.999 130.999 498.999 137.999 496.999 c 0
 142.999 494.999 147.999 492.999 149.999 490.999 c 2
 151.999 489.999 154.999 486.999 156.999 484.999 c 0
 158.999 482.999 161.999 477.999 163.999 474.999 c 1
 164.999 470.999 169.999 464.999 172.999 461.999 c 0
 177.999 457.999 179.999 453.999 181.999 446.999 c 0
 182.999 442.999 184.999 437.999 184.999 436.999 c 1
 185.999 435.999 186.999 432.999 187.999 429.999 c 0
 188.999 426.999 192.999 418.999 194.999 412.999 c 1
 197.999 407.999 202.999 399.999 205.999 395.999 c 0
 208.999 391.999 211.999 385.999 213.999 382.999 c 1
 214.999 379.999 216.999 374.999 216.999 371.999 c 0
 216.999 368.999 219.999 362.999 223.999 358.999 c 1
 226.999 354.999 229.999 349.999 229.999 347.999 c 1
 230.999 346.999 233.999 342.999 237.999 340.999 c 0
 243.999 336.999 245.999 335.999 251.999 336.999 c 0
 255.999 337.999 259.999 339.999 263.999 342.999 c 0
 266.999 345.999 269.999 350.999 269.999 352.999 c 1
 270.999 354.999 272.999 359.999 275.999 363.999 c 0
 278.999 366.999 280.999 370.999 281.999 372.999 c 2
 282.999 373.999 283.999 378.999 284.999 382.999 c 0
 285.999 386.999 287.999 391.999 289.999 393.999 c 1
 290.999 395.999 293.999 399.999 294.999 403.999 c 1
 296.999 407.999 300.999 412.999 304.999 416.999 c 0
 307.999 419.999 311.999 425.999 313.999 430.999 c 0
 315.999 434.999 317.999 440.999 318.999 443.999 c 1
 318.999 446.999 320.999 450.999 321.999 453.999 c 1
 323.999 456.999 327.999 462.999 331.999 466.999 c 1
 342.999 481.999 l 1
 344.999 487.999 347.999 490.999 351.999 492.999 c 0
 353.999 493.999 361.999 496.999 367.999 497.999 c 0
 374.973 499.901 378.731 500.598 383.606 500.598 c 0
 386.421 500.598 389.607 500.365 394 499.999 c 0
 402 499.999 419 498.999 432 498.999 c 0
 454 498.999 456 498.999 459 495.999 c 0
 461 493.999 462 489.999 463 486.999 c 1
 463 481.999 463 478.999 461 473.999 c 0
 460 470.999 456 464.999 454 460.999 c 1
 451 457.999 447 450.999 445 445.999 c 0
 443 440.999 439 434.999 436 432.999 c 1
 434 429.999 431 425.999 430 423.999 c 0
 429 421.999 425 415.999 422 411.999 c 0
 419 407.999 414 399.999 411 394.999 c 0
 408 388.999 404 381.999 401 378.999 c 0
 398 375.999 394 369.999 392 365.999 c 0
 389 360.999 384 353.999 381 349.999 c 2
 370 331.999 l 2
 367 325.999 363 320.999 360 318.999 c 0
 357 316.999 354 311.999 351 305.999 c 1
 349 299.999 344 292.999 341 288.999 c 0
 337 283.999 335 280.999 335 275.999 c 1
 334 271.999 333 264.999 331 258.999 c 0
 329 248.999 329 247.999 332 241.999 c 0
 334 237.999 338 231.999 341 227.999 c 0
 344 223.999 347 217.999 349 214.999 c 0
 351 211.999 355 205.999 358 201.999 c 1
 362 197.999 368 188.999 371 181.999 c 0
 374 175.999 379 167.999 381 165.999 c 0
 384 163.999 387 157.999 389 153.999 c 0
 391 149.999 395 141.999 397 136.999 c 0
 399 130.999 402 124.999 404 122.999 c 1
 405 119.999 408 114.999 410 111.999 c 0
 412 107.999 417 101.999 420 97.999 c 0
 423 94.999 427 88.999 429 86.999 c 1
 430 83.999 433 78.999 436 75.999 c 1
 438 71.999 442 66.999 443 64.999 c 1
 445 62.999 450 54.999 455 47.999 c 1
 459 39.999 465 30.999 467 26.999 c 0
 470 19.999 471 16.999 470 12.999 c 1
 470 9.99902 468 4.99902 467 3.99902 c 2
 466 1.99902 463 -1.00098 461 -2.00098 c 1
 458 -2.00098 453 -3.00098 449 -3.00098 c 0
 445 -3.00098 437 -2.00098 432 -1.00098 c 0
 425 0.999023 407 1.99902 384 1.99902 c 0
 347 2.99902 347 2.99902 336 13.999 c 0
 330 18.999 323 26.999 320 30.999 c 0
 317 34.999 313 40.999 311 43.999 c 0
 309 47.999 306 54.999 303 59.999 c 2
 301 64.999 298 70.999 297 71.999 c 0
 296 72.999 295 75.999 293 78.999 c 1
 292 81.999 290 87.999 290 91.999 c 1
 289 95.999 288 100.999 287 102.999 c 0
 286 104.999 284 107.999 283 109.999 c 1
 281 111.999 279 116.999 276 119.999 c 0
 274 122.999 271 128.999 270 131.999 c 0
 268 135.999 265 141.999 263 144.999 c 1
 262 148.999 259 153.999 258 155.999 c 0
 257 158.999 254 163.999 253 166.999 c 0
 252 170.999 249 174.999 246 177.999 c 0
 243 180.999 237 182.999 234 183.999 c 1
 221 183.999 l 1
 216 182.999 214 181.999 212 178.999 c 0
 210 176.999 208 170.999 207 165.999 c 0
 206 161.999 205 155.999 203 152.999 c 0
 202 150.999 200 146.999 198 144.999 c 2
 197 142.999 193 137.999 190 133.999 c 0
 187 129.999 183 123.999 181 119.999 c 0
 179 115.999 177 108.999 176 103.999 c 0
 175 95.999 173 93.999 168 86.999 c 1
 164 82.999 159 75.999 157 70.999 c 0
 155 66.999 152 57.999 150 52.999 c 1
 149 46.999 146 40.999 145 39.999 c 2
 144 37.999 141 32.999 138 27.999 c 1
 136 22.999 133 16.999 132 15.999 c 2
 131 13.999 129 11.999 127 9.99902 c 1
 126 7.99902 123 5.99902 121 3.99902 c 0
 118.798 2.34766 117.202 1.60547 111.541 1.60547 c 0
 106.919 1.60547 99.5859 2.10059 87 3 c 0
 75.5 3.5 67 3.75 59.875 3.75 c 0
 52.75 3.75 47 3.5 41 3 c 0
 25 1 24 1 19 4 c 2
 15 5 12 9 10 11 c 1
 9 13 8 17 8 20 c 0
 8 22 9 27 11 30 c 2
 12 33 16 40 19 45 c 0
 22 51 25 56 27 58 c 2
 28 60 30 62 30 62 c 1
 30 63 31 65 32 66 c 0
 33 67 35 72 36 76 c 1
 39 82 41 85 48 91 c 0
 53 95 58 100 59 102 c 2
 61 104 64 110 66 115 c 0
 68 120 72 129 76 135 c 0
 79 141 83 148 83 150 c 1
 84 152 88 158 92 163 c 2
 107 185 l 2
 111 192 116 200 119 203 c 0
 121 206 125 212 127 216 c 0
 129 220 132 226 134 228 c 1
 135 231 138 236 139 241 c 1
 141 245 143 249 144 249 c 1
 145 250 147 253 147 256 c 2
 148 260 149 267 148 275 c 0
 147 282 146 289 145 290 c 2
 145 292 140 297 136 302 c 0
 131 307 125 315 122 322 c 0
 119 328 115 335 113 337 c 0
 111 339 108 343 107 346 c 1
 105 348 102 353 99 356 c 1
 97 360 94 365 92 367 c 1
 91 370 85 376 80 381 c 0
 74 388 70 393 67 400 c 0
 65 406 62 411 61 411 c 1
 60 412 58 415 57 419 c 0
 56 422 52 429 49 433 c 0
 46 437 43 441 41 442 c 1
 40 442 37 445 34 448 c 0
 32 450 30 453 30 454 c 0
 30 455 27 460 24 465 c 0
 21 470 18 476 18 478 c 2
 18 486 l 2
 18 488 20 491 22 494 c 0
 24 496 28 499 30 500 c 1
EndSplineSet
Validated: 33
EndChar
StartChar: uni00AD
Encoding: 173 173 106
Width: 659
GlyphClass: 2
Flags: W
LayerCount: 2
Fore
SplineSet
112 496 m 1
 114 497 117.998 497.998 119.998 497.998 c 0
 121.998 497.998 126.998 496.998 130.998 494.998 c 0
 136.998 492.998 140.998 492.998 156.998 492.998 c 0
 171.998 493.998 175.998 492.998 183.998 490.998 c 0
 191.998 487.998 191.998 487.998 201.998 491.998 c 0
 208.338 493.9 210.658 494.597 221.19 494.597 c 0
 227.271 494.597 236.09 494.364 249.999 493.998 c 0
 270.999 492.998 291.999 491.998 297.999 491.998 c 0
 302.999 491.998 316.999 492.998 327.999 492.998 c 0
 339.999 493.998 358.999 493.998 373.999 493.998 c 0
 387.999 492.998 402.999 491.998 405.999 491.998 c 0
 409.999 491.998 425.999 492.998 441.999 493.998 c 0
 457.999 493.998 473.999 494.998 478.999 495.998 c 0
 485.999 496.998 489.999 495.998 496.999 494.998 c 1
 501.999 492.998 507.999 491.998 510.999 490.998 c 1
 513.999 490.998 518.999 490.998 520.999 491.998 c 0
 523.999 492.998 531.999 493.998 539.999 494.998 c 0
 551.999 495.998 554.999 494.998 559.999 492.998 c 0
 562.999 491.998 566.999 488.998 567.999 486.998 c 0
 568.999 484.998 571.999 476.998 572.999 469.998 c 0
 575.999 458.998 575.999 456.998 574.999 448.998 c 1
 572.999 444.998 572.999 437.998 572.999 434.998 c 1
 573.499 433.498 573.749 428.748 573.749 422.373 c 0
 573.749 415.998 573.47 408 572.999 399.998 c 0
 572.499 391.498 572.249 381.998 572.249 373.373 c 0
 572.249 364.748 572.499 356.998 572.999 351.998 c 0
 572.999 339.998 573.999 332.998 575.999 329.998 c 1
 576.999 326.998 577.999 321.998 577.999 316.998 c 0
 577.999 312.998 576.999 306.998 575.999 303.998 c 0
 573.999 299.998 573.999 290.998 572.999 263.998 c 0
 572.731 256.228 572.607 249.893 572.607 244.552 c 0
 572.607 229.96 573.536 222.783 575 213.999 c 0
 577 202.999 577 198.999 576 192.999 c 0
 575 188.999 572 183.999 570 180.999 c 0
 568 178.999 565 175.999 563 174.999 c 0
 560 173.999 553 172.999 547 172.999 c 1
 540 171.999 533 170.999 530 169.999 c 0
 528 168.999 523 166.999 519 166.999 c 0
 516 166.999 510 168.999 507 169.999 c 0
 501 171.999 499 171.999 495 169.999 c 0
 492 168.999 488 168.999 486 168.999 c 1
 483 169.999 479 171.999 475 172.999 c 1
 472 174.999 468 176.999 466 178.999 c 0
 463 181.999 463 184.999 463 216.999 c 0
 463 246.999 463 252.999 460 256.999 c 1
 459 259.999 458 264.999 458 267.999 c 0
 458 271.999 459 279.999 461 285.999 c 0
 464 295.999 464 299.999 464 324.999 c 0
 463.667 329.999 463.556 334.999 463.556 339.592 c 0
 463.556 348.777 464 356.333 464 359 c 0
 465 365 465 369 463 374 c 0
 461 381 460 382 455 383 c 0
 452 384 448 385 446 385 c 0
 444 385 439 386 434 388 c 0
 429 390 422 391 412 391 c 0
 403 391 396 390 391 388 c 0
 385 386 383 386 377 388 c 0
 373 389 363 390 354 390 c 0
 344 391 290 391 233 391 c 0
 174 391 126 390 121 389 c 1
 116 389 110 388 108 389 c 2
 106 389 101 393 97 397 c 0
 90 404 90 404 89 416 c 0
 88 423 87 432 87 436 c 0
 87 441 88 451 88 459 c 1
 90 471 90 473 95 481 c 0
 98 485 102 490 104 492 c 1
 106 493 109 496 112 496 c 1
EndSplineSet
Validated: 33
EndChar
StartChar: uni00BE
Encoding: 190 190 122
Width: 697
GlyphClass: 2
Flags: W
LayerCount: 2
Fore
SplineSet
560 261 m 1
 559 262 557 263 556 263 c 0
 555 263 553 262 552 260 c 2
 550 259 549 257 549 256 c 1
 540 241 l 2
 534 233 530 226 530 225 c 0
 530 224 527 220 523 216 c 1
 520 212 516 206 514 203 c 1
 513 200 511 196 509 194 c 0
 507 191 502 185 497 180 c 0
 492 175 486 168 484 165 c 0
 481 162 478 156 475 151 c 0
 473 147 470 142 468 141 c 1
 467 139 465 137 465 135 c 0
 465 134 467 132 468 131 c 1
 470 130 486 129 510 129 c 0
 539 129 549 130 553 131 c 1
 557 133 558 135 559 139 c 0
 560 142 561 150 561 157 c 0
 561 164 560 172 559 175 c 0
 558 178 557 186 557 192 c 0
 557 199 556 212 556 222 c 0
 555 236 555 240 558 249 c 0
 561 257 561 259 560 261 c 1
552 356 m 1
 557 358 561 358.001 586 358.001 c 0
 595.001 358.334 601.111 358.556 605.407 358.556 c 0
 614 358.556 615.333 357.667 618 355 c 0
 621 353 624 348 626 342 c 0
 629 334 629 334 626 327 c 0
 624 322 624 314 623 244 c 0
 623 188 623 164 624 158 c 0
 625 153 626 147 626 145 c 0
 626 142 628 139 629 136 c 1
 631 134 633 132 635 131 c 1
 637 131 645 130 654 129 c 0
 666 129 670 128 672 126 c 1
 674 125 677 118 679 113 c 0
 680.5 107.5 681.25 104.75 681.25 102.5 c 0
 681.25 100.25 680.5 98.5 679 95 c 0
 678 91 676 85 675 83 c 0
 674 80 672 77 670 76 c 2
 669 75 662 74 650 73 c 0
 632 73 631 72 628 68 c 1
 624 64 624 64 624 38 c 0
 624 12 624 12 619 7 c 0
 617 5 612 1 609 0 c 0
 605 -2 600 -3 593 -3 c 0
 585 -3 582 -2 573 2 c 0
 567 5 562 9 561 10 c 0
 559 13 559 18 559 31 c 0
 559 41 560 51 560 54 c 0
 560 57 559 61 556 64 c 2
 553 69 550 71 547 72 c 0
 543 73 515 73 475 73 c 0
 416 73 408 74 405 76 c 0
 404 77 401 81 399 85 c 0
 397 90 396 95 396 117 c 0
 396 140 397 145 399 151 c 1
 401 154 406 161 410 166 c 0
 414 170 417 174 417 175 c 0
 417 176 419 179 421 181 c 0
 423 184 424 187 424 187 c 1
 424 188 428 191 432 196 c 0
 436 200 441 206 442 209 c 1
 444 212 446 216 448 218 c 0
 450 221 454 226 456 230 c 0
 458 233 464 241 470 247 c 0
 476 253 483 262 487 269 c 0
 491 276 497 285 500 289 c 1
 504 293 507 297 507 298 c 0
 507 299 510 303 515 308 c 0
 519 312 525 320 527 324 c 0
 530 329 534 336 537 340 c 0
 539 344 543 348 544 350 c 1
 546 352 549 354 552 356 c 1
136 588.001 m 0
 150.004 588.938 168 589.001 174 589.001 c 0
 183 588.001 189 587.001 192 586.001 c 1
 195 584.001 202 583.001 209 582.001 c 1
 217 582.001 222 581.001 225 579.001 c 0
 228 577.001 231 575.001 231 573.001 c 1
 232 571.001 240 562.001 248 554.001 c 0
 256 545.001 263 536.001 265 533.001 c 0
 266 531.001 268 527.001 269 526.001 c 1
 271 525.001 271 517.001 272 501.001 c 0
 272 489.001 272 475.001 271 470.001 c 0
 270 466.001 269 461.001 269 459.001 c 1
 268 458.001 266 453.001 263 448.001 c 0
 261 444.001 257 437.001 254 434.001 c 0
 251 430.001 246 425.001 243 422.001 c 0
 241 419.001 238 417.001 238 417.001 c 1
 237 417.001 236 416.001 236 415.001 c 2
 235 414.001 235 411.001 235 410.001 c 1
 236 409.001 239 406.001 242 405.001 c 0
 246 403.001 250 399.001 254 395.001 c 1
 257 391.001 260 386.001 260 384.001 c 1
 261 383.001 264 378.001 267 375.001 c 0
 270 372.001 274 365.001 276 360.001 c 0
 278 355.001 280 350.001 281 349.001 c 1
 281 348.001 282 343.001 282 338.001 c 0
 282 332.001 281 326.001 279 324.001 c 1
 278 321.001 277 316.001 276 311.001 c 0
 276 307.001 275 302.001 274 300.001 c 2
 274 299.001 272 294.001 270 289.001 c 0
 269 285.001 264 276.001 260 270.001 c 0
 255 263.001 249 256.001 245 254.001 c 2
 242 251.001 236 247.001 232 245.001 c 2
 229 242.001 221 239.001 216 237.001 c 0
 210 235.001 202 232.001 196 231.001 c 2
 191 229.001 182 227.001 176 225.001 c 0
 167 222.001 160 221.001 143 221.001 c 0
 126 220.001 120 221.001 117 222.001 c 1
 114 224.001 108 226.001 103 228.001 c 1
 97 229.001 92 231.001 90 231.001 c 0
 88 231.001 85 232.001 84 233.001 c 1
 82 234.001 77 236.001 72 237.001 c 0
 67 238.001 61 240.001 59 241.001 c 1
 57 243.001 52 246.001 49 250.001 c 0
 46 253.001 41 257.001 39 258.001 c 0
 37 259.001 33 264.001 31 269.001 c 0
 28 275.001 26 281.001 26 283.001 c 0
 26 285.001 25 290.001 23 295.001 c 0
 21 301.001 20 307.001 20 316.001 c 0
 20 327.001 21 329.001 23 332.001 c 0
 26 335.001 27 335.001 54 335.001 c 0
 81 335.001 81 335.001 85 332.001 c 1
 86 330.001 88 325.001 89 321.001 c 0
 90 318.001 92 312.001 94 308.001 c 0
 96 305.001 100 299.001 103 296.001 c 0
 106 292.001 111 288.001 114 287.001 c 0
 117 286.001 125 284.001 132 282.001 c 0
 139 281.001 147 280.001 150 280.001 c 0
 153 280.001 161 281.001 167 282.001 c 0
 172 283.001 180 285.001 183 286.001 c 0
 186 287.001 191 291.001 194 294.001 c 0
 197 298.001 200 302.001 200 303.001 c 1
 201 305.001 203 309.001 204 313.001 c 2
 207 318.001 207 322.001 207 331.001 c 0
 207 342.001 207 344.001 204 349.001 c 0
 202 352.001 198 358.001 196 362.001 c 0
 194 366.001 189 372.001 184 376.001 c 0
 180 380.001 175 384.001 173 384.001 c 2
 147 384.001 l 2
 127 384.001 122 385.001 118 387.001 c 0
 115 389.001 112 392.001 111 395.001 c 2
 109 398.001 108 404.001 108 414.001 c 0
 108 427.001 108 430.001 111 433.001 c 0
 113 435.001 115 438.001 117 439.001 c 0
 119 440.001 128 441.001 136 441.001 c 0
 146 442.001 153 443.001 157 444.001 c 0
 160 445.001 165 447.001 169 448.001 c 0
 173 449.001 178 451.001 180 453.001 c 1
 183 454.001 185 456.001 185 456.001 c 1
 186 456.001 189 458.001 193 460.001 c 0
 197 463.001 200 466.001 201 470.001 c 0
 202 473.001 203 481.001 202 493.001 c 0
 202 504.001 201 511.001 199 512.001 c 1
 198 513.001 195 516.001 191 519.001 c 0
 187 521.001 181 525.001 177 527.001 c 0
 170 531.001 168 531.001 148 531.001 c 0
 127 531.001 127 531.001 117 524.001 c 1
 111 521.001 106 516.001 104 514.001 c 1
 103 512.001 100 507.001 99 502.001 c 1
 97 497.001 95 492.001 92 489.001 c 0
 90 487.001 84 484.001 80 483.001 c 1
 76 483.001 73 481.001 72 480.001 c 1
 72 480.001 69 479.001 65 479.001 c 0
 62 479.001 56 480.001 52 482.001 c 2
 48 483.001 42 486.001 38 488.001 c 0
 35 489.001 31 492.001 29 494.001 c 0
 27 497.001 26 500.001 26 508.001 c 0
 26 515.001 27 519.001 29 523.001 c 0
 31 526.001 34 532.001 37 536.001 c 0
 40 540.001 42 544.001 42 545.001 c 0
 42 546.001 47 551.001 53 558.001 c 0
 58 564.001 66 571.001 71 574.001 c 0
 75 576.001 80 579.001 83 580.001 c 0
 85 581.001 91 582.001 96 583.001 c 0
 100 583.001 106 584.001 107 585.001 c 1
 109 586.001 120.005 586.93 136 588.001 c 0
495 594.001 m 2
 501 600.001 501.001 600.001 515.001 600.001 c 0
 522.001 600.001 532.001 599.001 536.001 598.001 c 1
 540.001 596.001 545.001 596.001 545.001 596.001 c 2
 546.001 596.001 548.001 596.001 550.001 595.001 c 1
 551.001 594.001 554.001 592.001 556.001 590.001 c 0
 558.001 587.001 558.001 584.001 558.001 577.001 c 0
 558.001 571.001 557.001 566.001 556.001 564.001 c 0
 555.001 562.001 553.001 558.001 550.001 555.001 c 0
 547.001 552.001 543.001 546.001 541.001 541.001 c 0
 539.001 537.001 535.001 530.001 532.001 527.001 c 0
 529.001 524.001 525.001 519.001 523.001 516.001 c 0
 520.001 513.001 518.001 509.001 518.001 503.001 c 1
 517.001 496.001 516.001 494.001 506.001 484.001 c 0
 498.001 475.001 495.001 471.001 494.001 467.001 c 1
 494.001 464.001 492.001 460.001 491.001 458.001 c 1
 491.001 456.001 489.001 453.001 487.001 451.001 c 0
 486.001 450.001 484.001 446.001 483.001 443.001 c 0
 482.001 440.001 480.001 435.001 477.001 432.001 c 0
 475.001 429.001 471.001 423.001 469.001 419.001 c 0
 467.001 414.001 464.001 409.001 463.001 408.001 c 1
 458.001 398.001 l 2
 456.001 393.001 454.001 389.001 453.001 388.001 c 0
 452.001 387.001 449.001 382.001 447.001 378.001 c 0
 445.001 374.001 440.001 367.001 437.001 361.001 c 1
 433.001 356.001 430.001 351.001 430.001 350.001 c 1
 430.001 350.001 429.001 348.001 427.001 346.001 c 1
 426.001 344.001 424.001 340.001 424.001 336.001 c 1
 423.001 332.001 421.001 328.001 416.001 323.001 c 0
 412.001 319.001 406.001 311.001 404.001 306.001 c 1
 401.001 302.001 398.001 296.001 397.001 295.001 c 1
 396.001 293.001 394.001 290.001 393.001 287.001 c 1
 391.001 285.001 388.001 280.001 387.001 275.001 c 1
 385.001 271.001 383.001 267.001 382.001 266.001 c 0
 381.001 265.001 376.001 257.001 371.001 250.001 c 0
 366.001 242.001 361.001 234.001 360.001 231.001 c 0
 359.001 228.001 356.001 223.001 353.001 219.001 c 0
 350.001 214.001 347.001 208.001 345.001 205.001 c 0
 343.001 202.001 341.001 196.001 341.001 192.001 c 0
 340.001 187.001 338.001 183.001 335.001 180.001 c 0
 333.001 178.001 328.001 172.001 325.001 168.001 c 0
 321.001 163.001 318.001 157.001 318.001 154.001 c 1
 317.001 151.001 315.001 147.001 312.001 144.001 c 1
 310.001 140.001 307.001 134.001 305.001 129.001 c 0
 303.001 124.001 300.001 116.001 297.001 112.001 c 0
 294.001 108.001 289.001 102.001 287.001 98.001 c 0
 285.001 94.001 280.001 87.001 277.001 83.001 c 0
 274.001 79.001 271.001 75.001 271.001 74.001 c 0
 271.001 73.001 269.001 70.001 266.001 66.001 c 0
 263.001 62.001 260.001 56.001 257.001 49.001 c 1
 255.001 41.001 252.001 35.001 247.001 29.001 c 0
 244.001 25.001 237.001 15.001 233.001 6.00098 c 0
 229.001 -1.99902 224.001 -9.99902 222.001 -11.999 c 0
 220.001 -13.999 213.001 -17.999 208.001 -20.999 c 0
 201.023 -24.875 198.253 -26.3477 194.564 -26.3477 c 0
 193.495 -26.3477 192.349 -26.2236 191 -25.999 c 0
 187 -25.999 179 -23.999 173 -21.999 c 2
 167 -20.999 160 -18.999 158 -17.999 c 0
 156 -16.999 153 -13.999 152 -11.999 c 0
 150 -7.99902 150 -6.99902 151 -2.99902 c 0
 152 0.000976562 156 8.00098 161 14.001 c 0
 166 20.001 171 27.001 171 29.001 c 1
 172 31.001 173 36.001 175 40.001 c 0
 177 43.001 180 49.001 182 52.001 c 0
 184 55.001 188 60.001 190 62.001 c 0
 194 65.001 195 68.001 196 73.001 c 0
 196 77.001 199 82.001 201 86.001 c 1
 204 89.001 208 95.001 210 99.001 c 0
 213 103.001 216 108.001 218 110.001 c 0
 220 112.001 225 120.001 228 128.001 c 1
 232 135.001 238 145.001 241 148.001 c 0
 244 152.001 247 158.001 249 162.001 c 1
 250 166.001 253 172.001 255 176.001 c 0
 257 179.001 259 185.001 261 190.001 c 0
 263 194.001 266 200.001 269 203.001 c 0
 272 207.001 275 211.001 276 213.001 c 0
 277 215.001 280 220.001 283 224.001 c 0
 286 228.001 289 233.001 289 236.001 c 1
 290 238.001 292 243.001 294 246.001 c 0
 296 248.001 299 253.001 301 256.001 c 1
 302 259.001 306 265.001 310 269.001 c 0
 314 273.001 318 280.001 320 284.001 c 0
 322 287.001 325 292.001 325 295.001 c 1
 326 298.001 328 304.001 330 309.001 c 0
 332 314.001 336 320.001 338 322.001 c 0
 340 324.001 342 327.001 343 330.001 c 1
 343 333.001 346 339.001 349 342.001 c 1
 351 346.001 356 353.001 358 358.001 c 0
 360 363.001 364 369.001 367 372.001 c 0
 369 375.001 373 381.001 374 386.001 c 1
 376 391.001 379 396.001 380 397.001 c 0
 381 398.001 383 402.001 385 406.001 c 0
 387 410.001 389 416.001 390 419.001 c 0
 391 423.001 393 428.001 398 432.001 c 1
 402 437.001 408 445.001 411 450.001 c 0
 415 456.001 419 463.001 421 466.001 c 1
 422 469.001 425 472.001 426 474.001 c 1
 428 476.001 432 484.001 437 492.001 c 0
 441 501.001 448 515.001 453 523.001 c 0
 457 532.001 463 542.001 466 547.001 c 0
 468 551.001 471 556.001 472 558.001 c 2
 473 559.001 476 564.001 478 569.001 c 0
 480 573.001 484 579.001 486 582.001 c 0
 487 584.001 489 587.001 489 588.001 c 1
 495 594.001 l 2
EndSplineSet
Validated: 33
EndChar
StartChar: uni00C0
Encoding: 192 192 124
Width: 633
GlyphClass: 2
Flags: W
LayerCount: 2
Fore
SplineSet
323 541 m 1
 321 542 317 544 315 544 c 1
 314.414 544.293 313.742 544.414 313.035 544.414 c 0
 311.328 544.414 309.414 543.707 308 543 c 0
 306 542 304 540 302 538 c 0
 300 536 297 528 295 522 c 0
 292 515 289 507 288 504 c 0
 287 502 285 497 285 494 c 1
 284 491 282 484 279 479 c 0
 276 474 274 468 273 465 c 1
 273 463 270 453 267 444 c 0
 264 435 258 420 254 411 c 0
 248 400 245 393 244 385 c 0
 244 380 242 372 241 369 c 2
 241 365 237 356 234 349 c 0
 230 342 227 333 226 331 c 1
 226 328 224 324 223 323 c 2
 222 321 221 318 219 317 c 1
 218 315 216 310 214 306 c 1
 213 301 211 291 210 284 c 0
 209 276 208 267 208 264 c 0
 208 261 209 257 209 255 c 1
 210 253 213 250 215 249 c 0
 218 247 222 246 231 246 c 0
 238 246 247 245 251 245 c 0
 253 244.667 254.556 244.444 256.037 244.444 c 0
 259 244.444 261.667 245.333 267 248 c 0
 273 252 278 253 283 253 c 0
 286 253 292 252 295 250 c 1
 300 248 308 248 347 247 c 0
 378 247 396 247 401 248 c 1
 406 250 409 252 412 255 c 0
 416 259 417 261 417 268 c 0
 417 272 416 278 415 280 c 0
 414 283 412 287 410 290 c 0
 407 294 404 299 403 303 c 0
 402 306 401 311 400 312 c 1
 399 314 397 318 396 321 c 0
 395 324 394 328 394 331 c 0
 394 334 392 341 388 347 c 0
 385 353 381 361 379 364 c 0
 376 369 375 373 375 380 c 0
 375 385 374 391 373 394 c 0
 372 397 370 403 368 407 c 0
 366 412 364 419 364 424 c 1
 363 429 360 437 358 442 c 1
 355 447 352 456 351 463 c 0
 350 470 348 476 348 477 c 1
 347 479 346 482 345 486 c 1
 345 489 342 495 340 500 c 0
 337 506 336 510 336 517 c 0
 336 524 335 527 331 532 c 0
 329 535 325 539 323 541 c 1
351 673 m 0
 354 674 356 674 357 674 c 0
 358 674 362 674 367 672 c 1
 372 671 379 670 382 670 c 0
 386 670 390 669 392 668 c 0
 394 667 397 662 399 659 c 0
 401 655 404 647 406 640 c 2
 409 634 411 627 412 625 c 1
 413 624 414 618 415 613 c 0
 416 608 419 600 421 595 c 0
 423 591 426 584 426 580 c 1
 427 576 428 571 429 569 c 0
 430 567 431 562 432 559 c 1
 432 556 434 552 435 551 c 1
 436 549 439 544 440 538 c 2
 442 532 443 525 443 523 c 0
 443 521 444 517 444 515 c 1
 445 513 448 509 450 506 c 0
 453 503 455 498 456 495 c 1
 456 492 458 487 461 484 c 0
 463 481 466 476 466 473 c 2
 467 470 468 466 468 463 c 0
 468 461 469 455 471 450 c 0
 472 446 476 439 479 434 c 0
 483 428 484 425 485 416 c 0
 485 408 487 402 489 396 c 0
 491 391 495 384 497 380 c 0
 500 375 501 369 502 361 c 0
 502 355 504 348 505 345 c 0
 506 342 509 336 511 330 c 0
 513 325 517 316 519 310 c 0
 521 305 524 298 525 294 c 1
 527 290 529 285 531 283 c 1
 532 280 533 274 533 268 c 1
 534 261 535 256 538 250 c 0
 540 245 545 236 547 228 c 1
 550 221 553 215 553 214 c 1
 554 213 555 208 555 204 c 0
 556 199 557 193 558 191 c 0
 559 189 561 185 561 181 c 1
 562 178 563 174 564 172 c 1
 566 170 568 165 569 160 c 2
 571 156 572 150 572 148 c 0
 572 146 573 142 574 139 c 0
 575 136 576 133 577 132 c 0
 578 131 581 126 583 120 c 1
 586 115 588 110 589 109 c 2
 590 107 592 104 593 102 c 0
 595 99 597 93 598 88 c 0
 599 83 601 75 602 70 c 0
 603 66 607 57 610 50 c 0
 614 41 615 37 615 29 c 0
 615 20 615 19 610 14 c 0
 606 10 604 9 597 8 c 0
 593 8 587 6 584 5 c 0
 580 4 576 4 568 7 c 0
 559 9 554 9 538 8 c 0
 527 7 517 7 515 7 c 0
 513 7 508 9 505 11 c 0
 501 14 497 17 496 19 c 0
 495 21 494 25 494 29 c 1
 493 32 491 38 489 43 c 0
 487 48 486 54 486 57 c 0
 486 60 483 66 481 72 c 1
 478 78 475 85 475 88 c 1
 474 91 471 100 467 107 c 0
 464 114 461 121 461 123 c 0
 461 125 459 130 458 134 c 1
 456 138 453 143 452 145 c 1
 450 147 445 150 440 151 c 2
 433 154 428 154 371 155 c 0
 331 155 309 156 306 157 c 1
 303 159 298 158 288 157 c 0
 279 156 262 155 245 155 c 0
 230 156 215 157 213 158 c 1
 209 159 206 159 197 157 c 0
 191 155 183 152 180 150 c 0
 176 148 170 144 166 140 c 2
 160 136 158 133 156 128 c 1
 156 125 154 118 152 113 c 0
 150 108 148 102 147 101 c 1
 147 99 145 94 143 90 c 0
 141 85 138 76 137 70 c 0
 135 63 133 55 133 51 c 1
 132 47 128 38 125 31 c 0
 121 24 116 16 114 13 c 0
 112 11 108 8 106 6 c 1
 103 5 99 4 95 5 c 2
 91 5 84 6 80 7 c 0
 74 8 68 8 59 6 c 0
 53 4 40 3 31 3 c 0
 15 3 15 3 10 8 c 0
 7 11 5 15 5 18 c 2
 4.5 19 4.25 20.5 4.25 22.125 c 0
 4.25 23.75 4.5 25.5 5 27 c 0
 6 29 8 36 10 42 c 0
 12 48 16 55 17 58 c 1
 19 60 22 68 24 74 c 0
 26 81 28 87 29 88 c 0
 30 89 31 91 31 92 c 1
 31 92 33 97 35 101 c 0
 38 106 40 113 40 118 c 0
 40 123 41 128 42 128 c 1
 42 129 44 133 45 136 c 0
 46 139 48 144 49 146 c 0
 50 149 53 153 54 155 c 0
 55 157 58 166 61 174 c 0
 63 183 68 193 70 197 c 0
 73 201 76 208 77 212 c 2
 79 216 81 224 82 228 c 0
 83 233 85 242 87 247 c 1
 88 252 89 258 90 261 c 0
 91 263 92 266 92 268 c 0
 92 270 94 277 98 284 c 0
 101 291 103 297 103 298 c 0
 103 299 104 300 105 301 c 1
 107 302 108 305 108 307 c 1
 109 309 111 316 113 323 c 0
 115 330 119 338 121 341 c 0
 123 343 126 349 128 353 c 1
 129 357 132 364 133 368 c 0
 134 372 135 376 136 378 c 1
 138 380 139 384 140 387 c 0
 141 390 143 398 144 404 c 1
 146 410 148 418 150 422 c 0
 151 425 153 429 153 430 c 1
 154 431 155 434 157 438 c 1
 158 442 160 449 161 454 c 1
 161 459 164 465 165 468 c 1
 167 470 170 474 171 475 c 0
 173 477 174 481 175 485 c 1
 175 488 177 494 178 497 c 0
 179 499 182 506 185 511 c 1
 188 519 189 525 191 538 c 0
 192 550 193 556 195 559 c 0
 197 562 201 566 204 569 c 0
 210 574 210 574 210 586 c 1
 211 592 212 599 213 601 c 0
 214 603 216 607 218 609 c 1
 219 611 221 615 222 618 c 1
 222 621 224 626 226 630 c 0
 228 633 231 641 232 647 c 0
 233 653 235 659 238 661 c 2
 239 663 243 666 247 667 c 2
 252 670 258 670 300 671 c 0
 326 671 349 672 351 673 c 0
220 851 m 2
 222.536 852.902 224.268 853.599 231.566 853.599 c 0
 235.78 853.599 241.85 853.366 251 853 c 0
 266 852 280 851 284 850 c 0
 288 849 293 848 295 848 c 0
 297 848 302 847 305 845 c 0
 307 843 312 839 315 835 c 0
 318 831 323 824 325 819 c 0
 327 815 331 808 333 805 c 0
 335 802 338 797 339 792 c 0
 340 786 342 781 347 775 c 0
 351 769 355 762 356 758 c 0
 357 754 358 749 358 747 c 0
 358 743 357 742 353 740 c 0
 350 739 344 737 340 735 c 0
 333 732 330 732 327 733 c 0
 324 734 321 736 318 738 c 0
 316 739 311 742 307 744 c 0
 303 746 299 749 295 755 c 0
 292 759 287 765 283 768 c 0
 280 770 275 775 272 778 c 0
 269 781 266 785 264 786 c 1
 263 788 258 793 252 798 c 0
 247 803 241 808 239 810 c 0
 238 811 236 812 235 812 c 1
 234 813 231 817 227 822 c 0
 224 826 220 831 218 833 c 1
 216 834 214 837 213 839 c 1
 213 841 213 843 214 845 c 0
 215 847 217 850 220 851 c 2
EndSplineSet
Validated: 33
EndChar
StartChar: uni00CD
Encoding: 205 205 137
Width: 210
GlyphClass: 2
Flags: W
LayerCount: 2
Fore
SplineSet
148 666 m 1
 148 667 151.999 667.001 156.999 667.001 c 1
 160.999 666.001 166.999 664.001 169.999 662.001 c 0
 173.999 660.001 176.999 656.001 178.999 652.001 c 0
 180.999 648.001 181.999 642.001 181.999 639.001 c 0
 181.999 635.001 180.999 629.001 179.999 624.001 c 0
 177.999 618.001 177.999 606.001 177.999 560.001 c 0
 177.999 528.001 176.999 498.001 176.999 492.001 c 2
 175.999 485.001 176.999 480.001 177.999 477.001 c 0
 178.999 474.001 178.999 457.001 178.999 417.001 c 2
 178.999 348.001 l 1
 178.999 325.001 l 2
 178.999 321.001 178.999 291.001 177.999 259.001 c 0
 176.999 228.001 175.999 199.001 175.999 195.001 c 0
 175.999 191.001 176.999 182.001 177.999 176.001 c 0
 178.999 170.001 179.999 159.001 179.999 152.001 c 0
 179.999 145.001 180.999 135.001 180.999 131.001 c 0
 180.999 127.001 179.999 99.001 179.999 68.001 c 0
 179.999 37.001 178.999 11.001 177.999 10.001 c 2
 177.999 9.00098 174.999 7.00098 171.999 6.00098 c 0
 168.999 5.00098 158.999 4.00098 140.999 3.00098 c 0
 120.999 3.00098 113.999 2.00098 106.999 0.000976562 c 0
 101.999 -1.99902 95.999 -2.99902 92.999 -2.99902 c 0
 89.999 -2.99902 83.999 -1.99902 78.999 0.000976562 c 0
 73.999 2.00098 66.999 4.00098 63.999 5.00098 c 0
 59.999 6.00098 55.999 9.00098 53.999 12.001 c 0
 51.999 14.001 49.999 19.001 49.999 22.001 c 2
 48.999 26.001 48.999 31.001 50.999 36.001 c 1
 51.999 41.001 52.999 48.001 52.999 53.001 c 0
 52.999 58.001 51.999 64.001 50.999 67.001 c 0
 48.999 71.001 48.999 76.001 48.999 80.001 c 1
 49.999 84.001 49.999 100.001 49.999 115.001 c 0
 50.292 120.566 50.4131 125.445 50.4131 129.713 c 0
 50.4131 140.017 49.7061 146.759 48.999 151.001 c 0
 46.999 159.001 46.999 162.001 47.999 166.001 c 0
 48.999 170.001 49.999 177.001 50.999 184.001 c 1
 50.999 208.001 l 2
 50.999 215.001 50.999 224.001 49.999 228.001 c 1
 49.999 232.001 49.999 236.001 51.999 239.001 c 0
 52.999 241.001 52.999 246.001 52.999 250.001 c 0
 52.999 253.001 51.999 270.001 51.999 286.001 c 0
 51.999 302.001 50.999 336.001 50.999 361.001 c 0
 50.585 376.741 50.3428 387.849 50.3428 395.958 c 0
 50.3428 407.427 50.8281 412.899 52 417 c 0
 53 423 55 431 56 435 c 0
 57 443 57 445 54 453 c 0
 53 457 51 464 51 467 c 0
 51 470 50 475 48 479 c 0
 46 485 45 486 47 494 c 0
 49 499 50 510 50 518 c 0
 51 531 51 535 48 542 c 1
 47 547 45 554 45 558 c 0
 45 561 46 567 47 570 c 0
 48 573 50 582 52 590 c 0
 54 602 54 607 53 617 c 0
 52 624 51 635 51 640 c 0
 51 647 52 653 53 656 c 1
 55 658 58 661 60 662 c 0
 64 664 72 664 106 665 c 0
 128 665 147 666 148 666 c 1
188.999 848.001 m 0
 190.999 849.001 194.998 849.001 197.998 849.001 c 0
 201.998 849.001 204.998 848.001 209.998 845.001 c 0
 212.998 843.001 215.998 839.001 216.998 836.001 c 0
 217.897 834.203 218.393 833.012 218.393 831.699 c 0
 218.393 830.092 217.65 828.304 215.999 825.001 c 0
 213.999 821.001 206.999 812.001 199.999 805.001 c 0
 192.999 798.001 182.999 787.001 178.999 782.001 c 0
 173.999 776.001 167.999 771.001 163.999 769.001 c 0
 159.999 767.001 150.999 761.001 145.999 756.001 c 0
 139.999 750.001 132.999 742.001 129.999 738.001 c 0
 126.999 733.001 122.999 729.001 120.999 728.001 c 0
 118.999 727.001 113.999 726.001 109.999 726.001 c 0
 105.999 726.001 99.999 727.001 95.999 728.001 c 1
 84.999 735.001 l 1
 81.999 739.001 80.999 741.001 80.999 746.001 c 0
 80.999 750.001 81.999 754.001 88.999 763.001 c 1
 92.999 770.001 96.999 776.001 96.999 777.001 c 0
 96.999 778.001 98.999 782.001 100.999 786.001 c 0
 102.999 790.001 107.999 798.001 110.999 803.001 c 0
 114.999 809.001 118.999 816.001 119.999 819.001 c 0
 120.999 821.001 122.999 826.001 123.999 828.001 c 1
 125.999 830.001 128.999 834.001 130.999 837.001 c 0
 132.999 841.001 135.999 844.001 137.999 845.001 c 1
 138.999 846.001 150.999 847.001 162.999 847.001 c 0
 175.999 847.001 186.999 847.001 188.999 848.001 c 0
EndSplineSet
Validated: 33
EndChar
StartChar: uni00D7
Encoding: 215 215 147
Width: 499
GlyphClass: 2
Flags: W
LayerCount: 2
Fore
SplineSet
91 554 m 0
 93 555 97 555 100 555 c 0
 101.292 555.215 102.352 555.338 103.279 555.338 c 0
 106.662 555.338 108.291 553.709 112.999 549 c 0
 116.999 545 121.999 538 124.999 534 c 1
 127.999 528 132.999 522 141.999 515 c 0
 148.999 510 155.999 503 158.999 499 c 0
 160.999 496 166.999 490 170.999 486 c 0
 174.999 482 178.999 477 178.999 474 c 1
 179.999 471 182.999 468 189.999 463 c 0
 194.999 460 199.999 456 202.999 455 c 1
 204.999 453 207.999 451 209.999 449 c 1
 210.999 447 213.999 444 214.999 442 c 0
 215.999 439 220.999 433 225.999 428 c 0
 233.999 421 236.999 419 245.999 416 c 0
 251.999 414 257.999 413 259.999 413 c 1
 261.999 414 265.999 417 269.999 420 c 0
 272.999 423 276.999 427 277.999 427 c 1
 278.999 428 281.999 430 283.999 431 c 0
 286.999 433 290.999 437 293.999 441 c 0
 296.999 446 308.999 459 319.999 470 c 2
 349.999 500 l 2
 355.999 505 358.999 509 359.999 512 c 0
 360.999 515 364.999 521 368.999 526 c 0
 372.999 530 376.999 535 376.999 535 c 1
 376.999 536 380.999 539 385.999 543 c 0
 389.999 547 394.999 550 395.999 551 c 0
 396.999 552 398.999 553 401.999 553 c 2
 403.999 554 408.999 554 411.999 553 c 0
 415.999 552 421.999 546 438.999 529 c 2
 462.999 506 l 1
 464.999 506 466.999 504 468.999 502 c 0
 470.999 499 471.999 496 470.999 492 c 2
 470.999 488 469.999 483 468.999 480 c 0
 467.999 477 464.999 472 462.999 470 c 0
 460.999 467 458.999 464 457.999 464 c 0
 456.999 464 453.999 463 451.999 461 c 0
 448.999 459 444.999 456 442.999 454 c 0
 440.999 452 433.999 447 428.999 444 c 0
 420.999 439 416.999 435 410.999 425 c 0
 406.999 419 400.999 411 396.999 408 c 1
 393.999 404 386.999 397 380.999 391 c 0
 374.999 385 367.999 379 364.999 378 c 0
 359.999 376 356.999 373 353.999 369 c 0
 351.999 365 347.999 359 344.999 356 c 0
 341.999 352 337.999 347 335.999 344 c 0
 334.999 342 331.999 337 330.999 334 c 0
 329.999 329 329.999 326 330.999 322 c 1
 332.999 318 333.999 315 337.999 314 c 1
 339.999 312 346.999 307 352.999 301 c 0
 358.999 296 368.999 287 374.999 281 c 0
 381.999 275 388.999 268 389.999 265 c 0
 390.999 263 393.999 260 395.999 258 c 0
 397.999 256 405.999 249 413.999 241 c 0
 421.999 233 429.999 226 430.999 226 c 1
 432.999 225 435.999 222 438.999 220 c 2
 442.999 216 l 1
 442.999 215 446.999 210 450.999 205 c 0
 454.999 200 458.999 195 459.999 195 c 1
 465.999 191 l 1
 470.999 186 470.999 186 470.999 173 c 0
 470.999 161 470.999 161 465.999 154 c 0
 462.999 151 457.999 147 453.999 145 c 0
 450.999 143 446.999 139 444.999 137 c 0
 442.999 135 437.999 131 433.999 128 c 1
 428.999 126 424.999 121 422.999 119 c 0
 420.999 116 415.999 113 412.999 111 c 1
 409.999 110 405.999 109 404.999 109 c 0
 402.999 109 398.999 110 396.999 111 c 0
 393.999 113 389.999 115 388.999 116 c 2
 386.999 117 385.999 119 384.999 119 c 0
 383.999 119 381.999 122 378.999 126 c 0
 376.999 129 373.999 134 372.999 138 c 0
 371.999 143 369.999 145 364.999 148 c 0
 361.999 150 355.999 154 351.999 158 c 0
 348.999 161 342.999 165 340.999 167 c 0
 337.999 169 334.999 170 334.999 170 c 1
 333.999 170 330.999 173 328.999 176 c 2
 325.999 178 323.999 181 323.999 182 c 0
 323.999 183 316.999 191 307.999 200 c 0
 298.999 210 286.999 222 281.999 227 c 0
 275.999 233 268.999 241 265.999 245 c 0
 261.999 250 257.999 253 253.999 254 c 0
 249.999 255 246.999 255 242.999 254 c 0
 239.999 253 235.999 250 233.999 248 c 0
 231.999 245 226.999 239 221.999 233 c 0
 217.999 228 208.999 219 201.999 214 c 0
 194.999 208 182.999 197 174.999 189 c 2
 149.999 163 l 2
 144.999 157 138.999 149 135.999 146 c 0
 133.999 143 131.999 140 131.999 139 c 0
 131.999 138 128.999 135 124.999 131 c 1
 120.999 128 114.999 123 111.999 119 c 1
 106.999 114 103.999 113 99.999 112 c 0
 94.999 111 91.999 112 86.999 114 c 0
 82.999 116 74.999 123 68.999 129 c 0
 61.999 135 50.999 146 43.999 154 c 0
 32.999 166 31.999 168 31.999 174 c 0
 31.999 177 32.999 182 34.999 186 c 0
 36.999 189 40.999 195 44.999 198 c 1
 47.999 202 53.999 208 56.999 211 c 0
 59.999 214 65.999 219 70.999 222 c 0
 75.999 225 80.999 230 84.999 235 c 0
 87.999 239 95.999 248 101.999 254 c 0
 107.999 260 116.999 267 120.999 270 c 0
 125.999 273 130.999 278 133.999 280 c 1
 135.999 283 140.999 288 143.999 292 c 2
 147.999 296 150.999 300 151.999 302 c 2
 152.999 303 158.999 309 163.999 315 c 0
 170.999 323 172.999 326 172.999 330 c 0
 172.999 334 170.999 337 164.999 343 c 0
 160.999 348 155.999 353 153.999 355 c 0
 151.999 357 147.999 361 145.999 365 c 1
 142.999 368 136.999 376 130.999 381 c 0
 124.999 387 118.999 393 117.999 396 c 0
 116.999 398 111.999 402 106.999 406 c 0
 101.999 409 92.999 417 86.999 424 c 2
 79.999 430 71.999 439 67.999 442 c 1
 58.999 451 l 2
 56.999 453 51.999 458 46.999 462 c 0
 42.999 466 37.999 472 34.999 476 c 0
 32.999 480 30.999 485 28.999 488 c 1
 28.585 490.071 28.3428 491.628 28.3428 493.096 c 0
 28.3428 495.172 28.8281 497.071 30 500 c 0
 31 504 33 508 34 510 c 1
 35 511 39 514 43 516 c 1
 46 519 51 522 53 525 c 0
 55 528 59 531 60 532 c 1
 62 533 69 538 76 543 c 1
 82 549 89 553 91 554 c 0
EndSplineSet
Validated: 1
EndChar
StartChar: uni00D8
Encoding: 216 216 148
Width: 687
GlyphClass: 2
Flags: W
LayerCount: 2
Fore
SplineSet
504 472 m 2
 502 474 499 475 499 475 c 1
 498 475 495 474 493 473 c 0
 491 472 486 468 483 466 c 0
 480 463 474 458 471 455 c 0
 468 451 462 447 459 445 c 0
 456 442 451 438 449 435 c 0
 447 432 445 429 445 428 c 0
 445 426 444 423 442 420 c 0
 440 416 437 412 434 409 c 0
 432 407 424 401 418 395 c 0
 412 390 402 381 397 376 c 0
 392 370 388 365 388 364 c 0
 388 363 384 358 379 353 c 0
 374 349 368 341 366 336 c 1
 363 331 358 325 353 320 c 0
 348 316 343 312 341 311 c 0
 339 310 335 308 333 306 c 1
 330 305 326 301 323 298 c 0
 320 294 314 287 309 282 c 0
 304 277 298 269 295 264 c 0
 292 260 274 241 256 223 c 0
 237 204 221 188 221 186 c 1
 219 184 l 1
 218 184 217 183 217 182 c 0
 217 181 215 177 211 173 c 1
 208 169 206 164 206 163 c 0
 206 161 207 155 209 150 c 0
 211 143 215 138 222 131 c 2
 227 124 235 118 241 115 c 1
 246 111 253 107 255 105 c 0
 257 102 262 98 265 96 c 0
 270 92 271 92 280 93 c 0
 288 94 292 94 296 92 c 0
 300 90 309 89 320 88 c 0
 325.5 87.5 333 87.25 341.125 87.25 c 0
 349.25 87.25 358 87.5 366 88 c 0
 381 89 396 91 399 92 c 0
 402 93 407 94 410 95 c 1
 413 95 420 99 427 104 c 0
 434 108 442 113 443 114 c 2
 445 115 449 117 451 119 c 2
 453 120 457 125 459 129 c 1
 462 132 467 138 471 140 c 1
 476 144 480 148 482 153 c 1
 485 158 488 167 490 173 c 0
 492 179 497 190 501 197 c 0
 505 205 509 213 510 216 c 0
 511 219 512 227 514 233 c 2
 515 240 517 248 519 253 c 0
 521 259 522 266 523 284 c 0
 524 296 525 309 525 312 c 0
 525 315 524 335 524 356 c 0
 523 385 523 395 521 403 c 0
 519 411 518 414 520 420 c 0
 521 424 521 431 521 435 c 0
 521 440 519 445 518 448 c 0
 517 450 516 454 516 455 c 0
 516 456 514 460 512 464 c 0
 510 467 506 471 504 472 c 2
353 610 m 0
 348 611 343 613 342 613 c 1
 342 613 338 611 334 608 c 0
 330 605 324 602 321 601 c 0
 317 600 310 600 305 600 c 0
 300 600 292 599 288 598 c 0
 283 597 275 594 270 592 c 0
 264 589 256 584 252 581 c 0
 248 579 243 575 241 573 c 1
 238 572 236 570 235 570 c 1
 235 570 229 565 222 558 c 0
 216 551 208 543 205 539 c 0
 202 536 197 527 193 519 c 0
 190 512 185 502 184 497 c 1
 182 493 179 485 177 481 c 0
 175 476 174 469 174 460 c 0
 173 449 172 443 168 431 c 0
 163 417 162 416 162 400 c 0
 163 391 163 381 164 378 c 0
 166 374 166 371 164 363 c 0
 162.536 356.411 161.608 350.895 161.608 333.896 c 0
 161.608 327.674 161.732 319.914 162 310 c 0
 162 276 163 265 165 260 c 0
 166 256 168 250 170 247 c 0
 172 244 173 239 174 236 c 0
 175 233 177 229 179 228 c 1
 181 226 185 225 190 225 c 0
 196 225 197 225 202 232 c 0
 205 236 215 246 224 256 c 0
 233 265 241 275 242 277 c 2
 244 279 246 283 247 285 c 0
 249 288 254 292 258 295 c 0
 262 297 267 302 269 304 c 0
 271 307 273 311 274 313 c 0
 275 315 278 319 281 321 c 0
 284 324 291 330 297 335 c 0
 302 340 308 347 311 350 c 1
 313 354 319 360 323 364 c 0
 327 368 331 372 332 372 c 1
 332 372 336 375 340 379 c 0
 345 383 351 391 355 396 c 0
 359 401 367 410 373 416 c 0
 379 423 385 431 387 434 c 0
 389 437 393 442 396 445 c 0
 398 448 401 450 402 450 c 0
 403 450 408 453 412 458 c 0
 416 462 420 467 421 469 c 1
 421 470 423 472 425 472 c 1
 426 473 428 474 428 475 c 1
 428 475 429 477 432 478 c 0
 434 479 438 483 442 488 c 1
 444 493 451 501 457 506 c 0
 462 511 469 516 471 518 c 0
 475 521 475 522 476 532 c 0
 476 541 476 544 474 548 c 1
 472 550 467 557 463 562 c 0
 458 567 452 573 446 576 c 0
 441 579 431 583 425 586 c 1
 418 588 408 592 402 594 c 2
 396 597 388 600 383 601 c 0
 379 602 373 604 369 605 c 0
 366 606 359 608 353 610 c 0
644 699 m 1
 650.999 698.999 l 1
 651.535 699.267 652.234 699.391 653 699.391 c 0
 655.091 699.391 657.804 698.463 660 696.999 c 0
 662 695.999 665 692.999 666 688.999 c 2
 668 685.999 669 680.999 669 676.999 c 0
 669 673.999 668 668.999 666 665.999 c 0
 665 663.999 660 657.999 655 652.999 c 0
 650 647.999 641 638.999 636 632.999 c 0
 630 626.999 624 619.999 622 616.999 c 0
 620 613.999 614 605.999 608 600.999 c 0
 597 590.999 597 590.999 597 579.999 c 0
 597 569.999 598 566.999 602 559.999 c 0
 604 554.999 607 549.999 609 547.999 c 0
 611 544.999 616 537.999 619 530.999 c 0
 622 524.999 626 514.999 627 509.999 c 2
 629 504.999 632 496.999 633 491.999 c 2
 635 487.999 638 479.999 640 474.999 c 0
 642 468.999 644 462.999 644 459.999 c 0
 644 456.999 645 449.999 646 445.999 c 0
 648 440.999 650 434.999 650 430.999 c 1
 651 427.999 652 422.999 653 420.999 c 0
 654 418.999 656 411.999 656 405.999 c 0
 656 399.999 657 393.999 659 390.999 c 1
 660 387.999 661 382.999 661 378.999 c 0
 661 375.999 660 367.999 658 360.999 c 0
 657 354.999 655 345.999 655 340.999 c 0
 655 334.999 656 327.999 658 323.999 c 1
 659 319.999 660 309.999 661 301.999 c 0
 661 290.999 660 284.999 658 277.999 c 0
 657 271.999 654 263.999 653 257.999 c 2
 651 252.999 650 246.999 650 244.999 c 0
 650 243.999 647 237.999 644 232.999 c 1
 642 227.999 639 220.999 638 217.999 c 1
 638 214.999 635 206.999 633 199.999 c 1
 630 193.999 627 186.999 627 185.999 c 0
 627 184.999 626 181.999 625 179.999 c 0
 624 177.999 623 171.999 622 167.999 c 0
 621 163.999 619 157.999 616 153.999 c 0
 613 149.999 611 145.999 611 145.999 c 1
 611 144.999 610 142.999 609 141.999 c 0
 607 139.999 604 134.999 602 130.999 c 0
 600 126.999 598 122.999 598 121.999 c 0
 598 120.999 595 117.999 592 115.999 c 0
 589 112.999 583 107.999 580 104.999 c 0
 577 101.999 575 98.999 575 97.999 c 0
 575 96.999 573 92.999 571 88.999 c 0
 569 84.999 564 76.999 559 72.999 c 1
 555 67.999 549 61.999 547 59.999 c 0
 545 57.999 541 55.999 539 54.999 c 1
 535 53.999 530 50.999 525 45.999 c 0
 519 40.999 513 37.999 506 35.999 c 0
 501 33.999 496 31.999 494 31.999 c 0
 493 31.999 488 30.999 484 28.999 c 2
 476 24.999 l 1
 475 24.999 470 21.999 463 19.999 c 2
 453 14.999 451 13.999 436 13.999 c 0
 420 12.999 419 12.999 403 4.99902 c 0
 387 -3.00098 385 -3.00098 378 -2.00098 c 1
 373 -2.00098 368 -1.00098 365 -1.00098 c 0
 363 -1.00098 353 -2.00098 343 -3.00098 c 0
 330 -4.00098 323 -4.00098 318 -3.00098 c 0
 315 -3.00098 308 -0.000976562 304 0.999023 c 2
 298 3.99902 293 3.99902 290 3.99902 c 1
 287 2.99902 282 1.99902 278 1.99902 c 0
 273 0.999023 271 1.99902 263 5.99902 c 0
 255 9.99902 250 11.999 241 12.999 c 0
 234 13.999 227 15.999 225 16.999 c 0
 223 17.999 219 18.999 217 19.999 c 1
 214 19.999 208 22.999 202 25.999 c 1
 196 27.999 189 30.999 187 30.999 c 1
 184 31.999 179 33.999 175 35.999 c 0
 171 37.999 165 41.999 161 44.999 c 0
 158 47.999 156 50.999 156 51.999 c 0
 156 52.999 154 54.999 152 56.999 c 1
 150 57.999 143 60.999 137 63.999 c 1
 128 65.999 123 67.999 119 66.999 c 0
 115 65.999 111 62.999 100 51.999 c 0
 93 43.999 85 36.999 82 35.999 c 0
 80 34.999 76 30.999 73 27.999 c 0
 71 24.999 69 21.999 69 20.999 c 1
 69 20.999 67 16.999 64 13.999 c 0
 61 10.999 57 3.99902 54 -0.000976562 c 0
 51 -5.00098 46 -10.001 44 -13.001 c 1
 41 -15.001 37 -18.001 35 -19.001 c 0
 33 -20.001 29 -21.001 25 -21.001 c 0
 22 -21.001 17 -20.001 15 -19.001 c 0
 12 -17.001 9 -14.001 7 -12.001 c 1
 6 -9.00098 4 -4.00098 3 -1.00098 c 0
 2 0.999023 1.5 2.74902 1.5 4.37402 c 0
 1.5 5.99902 2 7.49902 3 8.99902 c 0
 4 11.999 5 14.999 6 14.999 c 1
 6 14.999 11 20.999 16 27.999 c 0
 21 34.999 30 44.999 36 50.999 c 2
 41 57.999 49 65.999 53 69.999 c 0
 57 73.999 61 78.999 64 80.999 c 0
 66 82.999 70 87.999 73 91.999 c 0
 76 95.999 80 100.999 81 103.999 c 0
 82 106.999 84 110.999 84 112.999 c 0
 84 114.999 84 118.999 82 122.999 c 2
 81 126.999 78 132.999 76 136.999 c 0
 74 139.999 71 145.999 68 149.999 c 0
 66 152.999 63 158.999 61 161.999 c 1
 60 165.999 58 170.999 58 174.999 c 1
 57 178.999 56 183.999 54 185.999 c 0
 53 186.999 51 189.999 50 191.999 c 2
 48 193.999 47 199.999 46 203.999 c 1
 46 207.999 44 213.999 43 215.999 c 0
 42 218.999 40 224.999 38 228.999 c 2
 37 233.999 34 240.999 33 244.999 c 0
 31 249.999 30 255.999 29 257.999 c 0
 28 260.999 29 265.999 30 271.999 c 0
 32 279.999 32 280.999 30 286.999 c 0
 29 289.999 28 297.999 28 302.999 c 0
 27.667 304.666 27.5557 307.777 27.5557 311.852 c 0
 27.5557 320 28 332 28 344 c 0
 29 361 29 383 29 392 c 0
 29 405 30 410 31 414 c 1
 33 417 34 421 35 424 c 1
 35 427 36 432 37 435 c 0
 38 438 40 443 40 447 c 1
 41 451 42 457 43 459 c 1
 45 461 46 469 47 475 c 0
 48 482 49 490 51 494 c 2
 52 498 55 503 57 506 c 0
 59 508 62 513 64 517 c 0
 66 520 69 527 71 533 c 0
 73 538 77 547 79 551 c 0
 81 556 87 563 96 572 c 0
 106 582 111 588 115 596 c 0
 119 603 124 609 130 615 c 0
 136 621 143 626 146 628 c 1
 149 629 154 632 156 634 c 0
 158 636 163 639 167 641 c 0
 171 644 178 648 183 652 c 0
 187 656 193 660 195 662 c 1
 197 663 203 664 206 665 c 1
 210 665 215 667 218 669 c 0
 220 670 224 672 227 674 c 1
 230 675 234 676 237 676 c 0
 240 676 244 677 247 678 c 0
 251 680 259 681 267 682 c 0
 275 683 282 684 285 686 c 0
 289 688 294 688 319 688 c 0
 345 688 348 688 357 691 c 0
 366 694 366 694 371 692 c 1
 374 690 380 689 384 689 c 1
 388 688 393 686 396 685 c 1
 399 683 403 681 404 680 c 0
 405 679 413 678 423 678 c 0
 437 678 442 677 447 675 c 0
 451 673 456 671 457 670 c 1
 458 668 463 667 467 665 c 1
 472 664 479 662 484 662 c 1
 490 661 495 659 498 657 c 0
 501 655 506 651 509 647 c 0
 512 644 518 639 522 636 c 0
 525 633 530 630 533 630 c 1
 536 629 540 628 542 626 c 1
 545 625 550 624 554 624 c 2
 565 624 l 1
 567 625 571 627 577 633 c 0
 582 638 589 646 593 651 c 0
 598 656 603 664 605 668 c 0
 607 672 612 679 616 682 c 2
 620 686 627 691 632 693 c 2
 637 696 642 698 644 699 c 1
EndSplineSet
Validated: 33
EndChar
StartChar: uni00D9
Encoding: 217 217 149
Width: 719
GlyphClass: 2
Flags: W
LayerCount: 2
Fore
SplineSet
107 673 m 0
 111 674 119 676 124 676 c 0
 130 676 135 675 138 674 c 0
 142 672 145 672 151 672 c 1
 156 673 163 673 168 672 c 0
 173 671 181 668 185 666 c 0
 189 664 194 661 196 659 c 0
 199 656 201 652 201 650 c 0
 201 648 200 637 199 626 c 0
 197 607 197 606 200 596 c 0
 203 586 203 585 201 578 c 0
 199 571 199 561 199 536 c 2
 199 467 l 2
 199 445 200 429 201 425 c 0
 203 420 203 417 201 410 c 0
 200 403 199 389 199 353 c 0
 199 319 200 302 201 295 c 0
 202 290 203 285 202 285 c 1
 202 284 201 280 200 274 c 0
 199 267 199 262 200 255 c 0
 201 250 202 244 202 240 c 0
 202 237 200 231 198 227 c 0
 196 223 194 218 194 215 c 0
 194 212 195 208 196 205 c 1
 198 202 199 197 199 195 c 1
 200 192 203 186 207 181 c 1
 210 175 216 165 219 158 c 0
 223 150 230 139 236 131 c 0
 242 124 250 116 253 113 c 0
 256 110 262 107 266 105 c 0
 271 103 277 101 281 101 c 0
 285 101 292 100 298 98 c 2
 304 97 310 95 313 95 c 0
 316 95 320 94 324 92 c 0
 328 90 332 89 340 89 c 0
 346 89 354 91 358 92 c 0
 363 93 370 94 377 94 c 0
 384 94 392 95 396 96 c 1
 399 98 409 99 418 100 c 0
 431 101 435 101 437 104 c 0
 439 106 447 110 454 114 c 0
 461 118 470 123 473 126 c 0
 476 129 480 134 482 137 c 0
 485 141 487 146 488 149 c 0
 489 152 492 157 495 160 c 0
 498 164 502 169 503 172 c 0
 505 176 508 181 509 184 c 2
 511 187 512 192 512 196 c 0
 512 200 513 206 515 210 c 0
 517 216 518 223 519 236 c 0
 520 246 520 255 519 256 c 1
 519 258 518 273 518 290 c 0
 518 309 517 322 516 326 c 0
 515 331 515 333 516 339 c 0
 517 343 518 356 519 369 c 2
 519 469 l 1
 519 553 l 1
 518 556 518 567 519 576 c 0
 520 585 521 597 521 602 c 0
 521 609 520 612 517 619 c 0
 515 623 513 629 513 631 c 0
 513 634 514 637 515 637 c 1
 515 637 517 641 518 645 c 0
 519 649 520 654 522 656 c 2
 523 659 527 663 531 666 c 0
 537 671 537 671 572 671 c 0
 591 672 611 672 616 672 c 0
 624 672 627 672 631 669 c 0
 633 667 636 663 638 659 c 1
 639 655 641 649 643 645 c 0
 645 641 646 635 646 628 c 0
 646 620 645 614 643 610 c 0
 641 606 640 598 639 581 c 0
 639 568 638 551 638 542 c 0
 638 534 639 524 640 521 c 1
 640 495 l 2
 639 479 639 474 641 465 c 0
 643 456 643 453 641 447 c 0
 640 442 640 426 640 403 c 0
 640 371 640 367 643 358 c 0
 646 348 646 348 643 339 c 0
 640 330 640 328 640 287 c 0
 640 250 641 244 643 240 c 0
 644 237 646 233 646 231 c 0
 646 229 644 223 642 219 c 0
 640 215 638 209 638 207 c 0
 638 204 637 197 636 191 c 0
 635 186 633 178 631 175 c 2
 630 171 627 164 624 160 c 1
 622 155 619 150 618 148 c 1
 618 146 616 142 614 138 c 0
 612 134 607 127 603 121 c 0
 599 116 596 111 596 111 c 1
 596 110 593 105 589 99 c 0
 585 94 579 86 576 83 c 0
 573 80 566 74 562 71 c 0
 557 68 551 63 547 59 c 1
 543 56 538 52 534 51 c 0
 530 50 525 47 521 43 c 1
 517 40 511 35 507 33 c 2
 489 26 l 1
 483 25 477 22 474 21 c 0
 472 20 467 18 464 17 c 1
 461 15 455 14 450 13 c 0
 446 12 437 11 432 10 c 0
 426 9 416 8 410 7 c 0
 404 6 398 4 396 3 c 0
 394 2 380 2 350 2 c 0
 326 3 306 3 305 4 c 1
 303 4 297 5 291 6 c 0
 285 7 275 8 269 8 c 1
 262 9 256 11 253 13 c 0
 250 15 244 18 238 21 c 1
 232 23 226 25 220 26 c 1
 215 26 209 28 207 29 c 0
 204 30 201 33 198 35 c 0
 196 37 192 40 189 41 c 2
 186 43 179 46 174 49 c 0
 170 52 163 56 160 58 c 0
 157 60 147 68 140 75 c 0
 132 82 124 90 123 92 c 0
 122 95 118 99 114 102 c 0
 110 105 105 111 101 117 c 0
 97 124 95 129 94 137 c 0
 94 142 92 150 90 153 c 2
 89 157 86 163 83 168 c 0
 79 175 78 178 77 185 c 1
 77 190 76 196 74 199 c 0
 72.0977 202.804 71.4014 205 71.4014 212.978 c 0
 71.4014 217.584 71.6338 224.117 72 234 c 0
 72 249 73 266 73 271 c 0
 73 277 72 283 69 290 c 0
 67.5 295 66.75 297.5 66.75 299.375 c 0
 66.75 301.25 67.5 302.5 69 305 c 1
 71 311 71 316 72 428 c 0
 72 513 71 547 70 553 c 0
 69 561 69 564 71 575 c 0
 74 586 74 589 73 595 c 0
 72 599 71 604 71 606 c 0
 71 609 71 621 72 634 c 0
 73 656 73 658 76 662 c 0
 78 664 82 667 84 668 c 0
 86 669 91 670 94 670 c 0
 97 670 103 672 107 673 c 0
274 861 m 2
 278 863 285 864 289 864 c 0
 292 864 298 863 302 862 c 0
 305 861 314 859 321 859 c 0
 329 858 337 856 340 855 c 0
 344 853 348 850 351 847 c 0
 354 844 356 840 357 836 c 0
 358 832 362 823 366 817 c 0
 370 811 373 805 374 804 c 0
 375 803 379 798 382 792 c 2
 386 787 391 779 393 774 c 0
 396 767 398 762 398 758 c 0
 398 754 397 750 394 747 c 1
 392 743 390 742 381 741 c 0
 375 740 368 739 366 740 c 2
 363 740 358 743 354 747 c 0
 351 750 345 753 342 754 c 1
 339 756 335 758 334 760 c 1
 332 762 326 768 321 774 c 0
 316 780 306 790 299 797 c 0
 292 804 284 811 280 813 c 0
 276 816 271 819 270 821 c 1
 268 822 265 827 263 830 c 1
 262 833 260 839 260 843 c 0
 260 849 261 852 264 855 c 0
 266 857 270 860 274 861 c 2
EndSplineSet
Validated: 33
EndChar
StartChar: uni00DA
Encoding: 218 218 150
Width: 718
GlyphClass: 2
Flags: W
LayerCount: 2
Fore
SplineSet
119 668 m 1
 122 669 127.001 669.999 131.001 669.999 c 0
 134.001 669.999 141.001 668.999 146.001 666.999 c 0
 154.001 663.999 156.996 664.07 170.001 664.999 c 0
 184.001 665.999 185.001 665.999 189.001 661.999 c 0
 191.001 659.999 194.001 655.999 195.001 652.999 c 0
 197.001 648.999 198.001 640.999 199.001 627.999 c 2
 199.001 576.999 l 2
 198.001 558.999 197.001 538.999 196.001 532.999 c 0
 194.001 522.999 195.001 519.999 197.001 510.999 c 0
 200.001 500.999 200.001 496.999 200.001 460.999 c 0
 199.708 453.384 199.587 446.626 199.587 440.776 c 0
 199.587 426.655 200.294 417.827 201.001 414.999 c 2
 201.001 411.999 202.001 406.999 202.001 402.999 c 0
 202.001 399.999 201.001 381.999 200.001 362.999 c 0
 200.001 342.999 198.001 324.999 197.001 319.999 c 0
 196.001 313.999 195.001 309.999 196.001 303.999 c 0
 196.708 301.171 197.415 290.343 197.415 277.171 c 0
 197.415 271.715 197.294 265.857 197.001 260 c 2
 197.001 215 l 2
 197.001 209 198.001 204 200.001 198 c 0
 202.001 194 204.001 188 205.001 186 c 1
 205.001 183 207.001 177 207.001 172 c 1
 208.001 166 211.001 158 214.001 151 c 0
 218.001 144 224.001 136 232.001 127 c 0
 241.001 118 247.001 113 255.001 108 c 0
 260.001 105 270.001 101 276.001 99 c 0
 282.001 97 289.001 95 291.001 95 c 0
 293.001 95 298.001 94 301.001 92 c 0
 305.001 90 313.001 89 320.001 88 c 0
 327.001 87 334.001 86 337.001 85 c 0
 341.001 84 343.001 84 350.001 86 c 0
 356.001 88 361.001 88 364.001 87 c 1
 368.001 87 373.001 86 377.001 86 c 0
 380.001 86 390.001 87 397.001 88 c 0
 405.001 89 413.001 91 415.001 92 c 0
 418.001 93 421.001 94 422.001 94 c 0
 423.001 94 426.001 95 429.001 96 c 1
 431.001 98 434.001 99 434.001 100 c 1
 434.001 100 438.001 103 442.001 105 c 0
 446.001 108 451.001 111 454.001 111 c 1
 456.001 112 460.001 113 462.001 114 c 1
 464.001 114 470.001 119 476.001 123 c 1
 481.001 128 487.001 134 488.001 137 c 0
 489.001 139 492.001 143 495.001 146 c 0
 498.001 149 501.001 153 501.001 155 c 1
 502.001 158 503.001 162 505.001 165 c 1
 506.001 169 507.001 175 507.001 180 c 0
 507.001 187 508.001 191 510.001 195 c 0
 512.001 199 513.001 203 513.001 205 c 0
 513.001 207 515.001 213 517.001 217 c 1
 518.465 222.856 519.394 225.497 519.394 236.691 c 0
 519.394 240.789 519.27 246.032 519.002 252.999 c 0
 518.002 268.999 518.002 286.999 518.002 294.999 c 0
 518.002 301.999 518.002 309.999 519.002 311.999 c 0
 520.002 313.999 520.002 322.999 519.002 336.999 c 0
 518.002 348.999 518.002 363.999 518.002 368.999 c 0
 518.002 373.999 517.002 380.999 516.002 384.999 c 1
 514.002 387.999 513.002 393.999 513.002 395.999 c 0
 513.002 398.999 515.002 404.999 516.002 409.999 c 1
 519.002 416.999 519.002 421.999 519.002 428.999 c 1
 518.002 433.999 517.002 439.999 516.002 441.999 c 0
 514.002 444.999 513.002 447.999 513.002 448.999 c 0
 513.002 449.999 516.002 455.999 519.002 461.999 c 0
 524.002 472.999 524.002 473.999 522.002 479.999 c 0
 521.002 482.999 520.033 499.001 519.002 515.999 c 0
 518.031 532.001 518.002 550.999 518.002 557.999 c 0
 518.002 563.999 519.002 572.999 520.002 576.999 c 0
 523.002 584.999 523.002 585.999 520.002 599.999 c 0
 519.002 607.999 517.002 622.999 517.002 631.999 c 0
 517.002 646.999 517.002 648.999 519.002 653.999 c 1
 521.002 655.999 524.002 659.999 526.002 660.999 c 0
 530.002 663.999 534.002 663.999 578.002 664.999 c 0
 626.002 664.999 626.002 664.999 631.002 661.999 c 1
 633.002 658.999 636.002 654.999 638.002 649.999 c 0
 641.002 643.999 641.002 639.999 641.002 606.999 c 0
 641.002 576.999 641.002 569.999 643.002 562.999 c 0
 644.002 559.999 644.502 557.999 644.502 555.999 c 0
 644.502 553.999 644.002 551.999 643.002 548.999 c 0
 642.002 544.999 641.002 535.999 640.002 529.999 c 0
 639.002 522.999 638.002 515.999 639.002 514.999 c 1
 639.002 512.999 640.002 483.999 640.002 449.999 c 0
 640.416 428.46 640.658 414.127 640.658 404.441 c 0
 640.658 390.744 640.173 386.342 639.001 383.999 c 0
 637.001 380.999 637.001 376.999 637.001 373.999 c 1
 638.001 370.999 639.001 365.999 639.001 362.999 c 1
 640.001 360.999 639.001 346.999 638.001 333.999 c 0
 635.001 313.999 635.001 308.999 637.001 305.999 c 0
 638.001 303.999 640.001 294.999 641.001 286.999 c 0
 642.001 278.999 642.001 270.999 642.001 269.999 c 0
 642.001 267.999 641.001 259.999 640.001 251.999 c 0
 639.001 243.999 637.001 232.999 637.001 227.999 c 2
 636.001 221.999 635.001 210.999 634.001 202.999 c 0
 634.001 189.999 633.001 183.999 628.001 170.999 c 0
 625.001 161.999 621.001 150.999 619.001 145.999 c 0
 617.001 140.999 614.001 133.999 611.001 129.999 c 0
 609.001 125.999 605.001 119.999 603.001 116.999 c 0
 602.001 114.999 599.001 107.999 597.001 101.999 c 0
 594.001 94.999 591.001 89.999 587.001 86.999 c 2
 585.001 83.999 581.001 81.999 580.001 81.999 c 0
 579.001 81.999 575.001 78.999 571.001 73.999 c 0
 567.001 69.999 561.001 63.999 558.001 61.999 c 0
 555.001 58.999 550.001 55.999 548.001 52.999 c 0
 546.001 50.999 541.001 47.999 538.001 46.999 c 0
 534.001 44.999 529.001 43.999 526.001 42.999 c 1
 523.001 42.999 518.001 40.999 516.001 38.999 c 0
 513.001 36.999 510.001 34.999 508.001 33.999 c 2
 507.001 32.999 504.001 31.999 502.001 30.999 c 0
 500.001 29.999 497.001 28.999 496.001 27.999 c 0
 495.001 26.999 492.001 25.999 490.001 24.999 c 0
 488.001 23.999 480.001 19.999 471.001 15.999 c 0
 462.001 11.999 455.001 8.99902 452.001 8.99902 c 0
 449.001 8.99902 444.001 7.99902 441.001 6.99902 c 2
 439.001 6.99902 428.001 4.99902 419.001 3.99902 c 0
 409.001 1.99902 399.001 -0.000976562 396.001 -1.00098 c 1
 392.831 -2.90332 389.661 -3.59961 378.592 -3.59961 c 0
 372.201 -3.59961 363.178 -3.36719 350.001 -3.00098 c 0
 315.001 -3.00098 309.001 -3.00098 302.001 -0.000976562 c 0
 297.001 1.99902 290.001 2.99902 282.001 2.99902 c 0
 275.001 2.99902 269.001 3.99902 267.001 4.99902 c 0
 265.001 5.99902 260.001 6.99902 256.001 7.99902 c 1
 252.001 7.99902 245.001 9.99902 239.001 11.999 c 0
 233.001 13.999 225.001 15.999 222.001 16.999 c 2
 210.001 22.999 l 1
 206.001 23.999 198.001 27.999 191.001 30.999 c 0
 185.001 33.999 178.001 36.999 174.001 38.999 c 0
 171.001 39.999 166.001 42.999 164.001 44.999 c 1
 161.001 45.999 154.001 52.999 147.001 58.999 c 0
 139.001 65.999 134.001 72.999 129.001 79.999 c 1
 126.001 85.999 120.001 92.999 117.001 96.999 c 1
 113.001 100.999 107.001 106.999 104.001 111.999 c 0
 101.001 116.999 96.001 124.999 93.001 130.999 c 0
 91.001 135.999 88.001 142.999 87.001 144.999 c 0
 86.001 147.999 86.001 151.999 86.001 154.999 c 0
 86.001 157.999 84.001 163.999 83.001 167.999 c 1
 80.001 173.999 80.001 177.999 81.001 182.999 c 1
 81.001 187.999 81.001 189.999 77.001 195.999 c 0
 72.001 201.999 72.001 201.999 71.001 245.999 c 0
 71.001 287.999 71.001 288.999 74.001 295.999 c 0
 75.001 298.999 77.001 303.999 77.001 305.999 c 0
 77.001 307.999 76.001 311.999 74.001 314.999 c 1
 73.001 318.999 72.001 327.999 71.001 348.999 c 0
 71.001 363.999 70.001 379.999 70.001 383.999 c 0
 70.001 387.999 69.001 393.999 68.001 397.999 c 0
 67.1016 400.246 66.6064 401.888 66.6064 403.468 c 0
 66.6064 405.403 67.3486 407.247 69 410 c 1
 71 416 71 422 72 456 c 0
 72 478 73 497 73 499 c 0
 73 501 73 513 72 527 c 0
 71 546 71 554 72 558 c 0
 73 564 73 567 71 576 c 0
 70 586 69 590 71 601 c 0
 72 612 72 614 69 620 c 1
 68 624 67 628 67 630 c 0
 67 633 68 638 69 642 c 0
 70 646 73 651 75 654 c 0
 77 656 82 660 85 661 c 0
 89 663 95 664 103 665 c 0
 109 665 117 666 119 668 c 1
425.001 855.999 m 1
 428.001 856.999 434.001 857.999 440.001 857.999 c 0
 445.001 857.999 451.001 856.999 453.001 855.999 c 0
 455.001 854.999 459.001 851.999 460.001 849.999 c 0
 462.001 846.999 463.001 843.999 463.001 841.999 c 0
 463.001 838.999 463.001 835.999 462.001 833.999 c 1
 461.001 832.999 458.001 828.999 456.001 824.999 c 0
 454.001 821.999 447.001 813.999 441.001 807.999 c 0
 435.001 801.999 426.001 792.999 420.001 788.999 c 0
 414.001 784.999 407.001 778.999 405.001 774.999 c 1
 402.001 771.999 397.001 765.999 394.001 761.999 c 1
 378.001 745.999 l 2
 372.001 739.999 367.001 735.999 364.001 735.999 c 2
 362.001 734.999 354.001 734.999 346.001 735.999 c 0
 335.001 736.999 332.001 737.999 329.001 740.999 c 0
 327.001 742.999 325.001 745.999 325.001 746.999 c 0
 325.001 748.999 327.001 753.999 328.001 757.999 c 0
 330.001 762.999 333.001 768.999 334.001 771.999 c 0
 336.001 775.999 340.001 781.999 345.001 787.999 c 0
 349.001 792.999 353.001 797.999 353.001 798.999 c 0
 353.001 799.999 355.001 802.999 357.001 806.999 c 1
 358.001 810.999 362.001 817.999 365.001 821.999 c 0
 368.001 826.999 372.001 831.999 373.001 832.999 c 0
 374.001 833.999 376.001 837.999 377.001 840.999 c 0
 378.001 842.999 380.001 847.999 381.001 849.999 c 1
 384.001 852.999 385.001 852.999 402.001 852.999 c 0
 415.001 853.999 422.001 853.999 425.001 855.999 c 1
EndSplineSet
Validated: 33
EndChar
StartChar: uni00DD
Encoding: 221 221 153
Width: 572
GlyphClass: 2
Flags: W
LayerCount: 2
Fore
SplineSet
64 660 m 0
 65.5 660.5 67.498 660.753 69.623 660.753 c 0
 71.748 660.753 73.998 660.503 75.998 660.003 c 1
 78.998 660.003 94.998 659.003 110.998 659.003 c 0
 130.998 658.003 140.998 657.003 143.998 656.003 c 0
 145.998 655.003 149.998 651.003 152.998 648.003 c 0
 155.998 644.003 160.998 637.003 162.998 631.003 c 2
 166.998 624.003 168.998 616.003 169.998 610.003 c 0
 170.998 605.003 172.998 600.003 173.998 597.003 c 1
 175.998 595.003 177.998 591.003 178.998 588.003 c 2
 180.998 585.003 181.998 582.003 181.998 581.003 c 1
 181.998 581.003 183.998 577.003 186.998 572.003 c 0
 189.998 568.003 193.998 559.003 196.998 552.003 c 2
 202.998 534.003 l 2
 203.998 531.003 205.998 527.003 205.998 524.003 c 0
 205.998 522.003 206.998 518.003 209.998 516.003 c 1
 211.998 513.003 215.998 509.003 217.998 506.003 c 0
 219.998 504.003 222.998 500.003 224.998 496.003 c 0
 226.998 493.003 229.998 485.003 231.998 479.003 c 0
 233.998 473.003 236.998 464.003 237.998 459.003 c 1
 239.998 454.003 243.998 447.003 246.998 443.003 c 0
 249.998 439.003 252.998 434.003 254.998 431.003 c 1
 255.998 428.003 256.998 424.003 256.998 421.003 c 0
 256.998 418.003 257.998 412.003 258.998 409.003 c 1
 260.998 406.003 261.998 400.003 263.998 396.003 c 2
 264.998 392.003 266.998 388.003 267.998 386.003 c 1
 269.998 384.003 272.998 379.003 274.998 375.003 c 0
 276.998 371.003 281.998 365.003 284.998 362.003 c 0
 288.998 359.003 292.998 355.003 294.998 354.003 c 1
 301.998 354.003 l 1
 303.998 355.003 306.998 358.003 307.998 360.003 c 0
 309.998 363.003 311.998 368.003 311.998 372.003 c 1
 312.998 376.003 313.998 382.003 315.998 385.003 c 2
 316.998 388.003 319.998 391.003 320.998 391.003 c 1
 321.998 392.003 323.998 395.003 325.998 399.003 c 0
 327.998 403.003 330.998 408.003 331.998 410.003 c 0
 332.998 412.003 334.998 417.003 335.998 422.003 c 0
 336.998 427.003 339.998 432.003 342.998 436.003 c 0
 344.998 439.003 347.998 442.003 348.998 443.003 c 1
 349.998 443.003 351.998 446.003 352.998 449.003 c 1
 352.998 452.003 353.998 460.003 353.998 465.003 c 0
 353.998 475.003 353.998 476.003 358.998 481.003 c 1
 361.998 485.003 365.998 490.003 367.998 494.003 c 0
 369.998 497.003 373.998 503.003 375.998 505.003 c 0
 378.998 508.003 380.998 513.003 381.998 516.003 c 0
 382.998 519.003 382.998 522.003 383.998 524.003 c 1
 383.998 526.003 384.998 530.003 386.998 533.003 c 0
 388.998 536.003 391.998 541.003 393.998 545.003 c 0
 395.998 548.003 398.998 555.003 400.998 560.003 c 0
 402.998 565.003 405.998 572.003 406.998 575.003 c 1
 408.998 577.003 411.998 586.003 413.998 594.003 c 2
 416.998 601.003 419.998 611.003 420.998 616.003 c 2
 422.998 620.003 423.998 625.003 424.998 626.003 c 0
 425.998 627.003 428.998 632.003 431.998 637.003 c 1
 433.998 642.003 437.998 648.003 439.998 650.003 c 0
 441.998 652.003 444.998 655.003 447.998 656.003 c 0
 451.998 658.003 458.998 659.003 483.998 659.003 c 0
 500.998 660.003 523.998 660.003 535.998 660.003 c 0
 540.821 660.271 544.567 660.395 547.525 660.395 c 0
 555.606 660.395 557.803 659.466 559.999 658.002 c 1
 560.999 656.002 562.999 653.002 563.999 651.002 c 1
 563.999 648.002 562.999 644.002 557.999 634.002 c 0
 553.999 627.002 548.999 620.002 545.999 617.002 c 0
 542.999 614.002 538.999 611.002 537.999 611.002 c 1
 536.999 610.002 534.999 603.002 532.999 595.002 c 0
 529.999 584.002 526.999 576.002 520.999 567.002 c 2
 511.999 549.002 l 2
 510.999 547.002 507.999 543.002 505.999 540.002 c 0
 503.999 537.002 499.999 531.002 497.999 526.002 c 0
 496.999 522.002 493.999 515.002 492.999 511.002 c 0
 491.999 507.002 489.999 502.002 488.999 500.002 c 0
 487.999 498.002 484.999 493.002 481.999 489.002 c 0
 478.999 485.002 473.999 479.002 471.999 475.002 c 0
 469.999 471.002 465.999 466.002 462.999 463.002 c 0
 458.999 458.002 457.999 455.002 456.999 450.002 c 0
 455.999 446.002 454.999 441.002 453.999 439.002 c 0
 452.999 437.002 449.999 432.002 446.999 428.002 c 0
 444.999 425.002 440.999 417.002 437.999 411.002 c 1
 435.999 404.002 431.999 396.002 428.999 392.002 c 0
 425.999 388.002 420.999 382.002 418.999 378.002 c 0
 415.999 374.002 411.999 367.002 409.999 361.002 c 1
 406.999 356.002 403.999 351.002 402.999 350.002 c 0
 401.999 349.002 399.999 342.002 396.999 334.002 c 0
 393.999 324.002 391.999 319.002 385.999 311.002 c 1
 380.999 306.002 375.999 298.002 372.999 292.002 c 0
 370.999 287.002 366.999 281.002 364.999 278.002 c 0
 361.999 275.002 357.999 268.002 355.999 262.002 c 0
 353.999 257.002 350.999 251.002 349.999 250.002 c 0
 348.999 249.002 347.999 245.002 346.999 242.002 c 0
 346.499 241.002 346.249 236.752 346.249 230.877 c 0
 346.249 225.002 346.499 217.502 346.999 210.002 c 2
 346.999 181.002 l 1
 345.999 181.002 345.999 157.002 345.999 130.002 c 0
 345.731 117.408 345.607 107.902 345.607 100.56 c 0
 345.607 80.499 346.535 76.5898 347.999 70.001 c 1
 350.999 63.001 350.999 59.001 349.999 54.001 c 1
 349.999 49.001 348.999 41.001 348.999 34.001 c 0
 348.999 28.001 347.999 20.001 347.999 16.001 c 1
 346.999 12.001 344.999 8.00098 343.999 7.00098 c 1
 342.999 5.00098 335.999 3.00098 329.999 1.00098 c 0
 324.142 -1.3418 321.029 -2.3125 318.651 -2.3125 c 0
 316.97 -2.3125 315.656 -1.82715 313.999 -0.999023 c 0
 311.999 0.000976562 307.999 1.00098 303.999 1.00098 c 2
 299.999 2.00098 294.999 2.00098 288.999 0.000976562 c 0
 284.898 -1.1709 281.484 -1.65625 277.551 -1.65625 c 0
 274.77 -1.65625 271.728 -1.41406 268 -1 c 0
 262 -1 252 0 247 1 c 0
 240 2 236 4 232 7 c 0
 229 9 226 13 225 16 c 0
 224 20 224 27 224 43 c 0
 225 60 225 65 223 70 c 0
 221 74 220 78 220 80 c 0
 220 82 221 86 223 89 c 1
 225 95 225 97 223 105 c 0
 222 113 222 116 223 121 c 0
 224 125 225 131 225 135 c 0
 225 139 224 145 222 149 c 0
 221 152 220 157 221 160 c 0
 222 163 223 169 223 175 c 0
 224 183 224 185 222 191 c 0
 219 198 219 198 222 206 c 0
 224 212 225 216 224 227 c 0
 224 235 223 242 221 245 c 1
 220 248 219 253 218 256 c 0
 217 259 216 265 214 268 c 2
 213 271 210 275 209 276 c 1
 207 277 205 281 203 283 c 1
 202 285 198 291 196 296 c 0
 194 301 190 307 188 309 c 0
 186 311 183 315 182 318 c 0
 181 320 179 325 178 327 c 0
 177 329 175 335 174 339 c 0
 172 344 170 350 170 353 c 1
 169 356 168 361 166 364 c 2
 165 367 162 372 161 374 c 1
 159 376 156 381 155 384 c 1
 153 387 150 391 147 393 c 0
 145 395 141 398 139 400 c 0
 137 403 133 411 129 418 c 0
 126 425 122 434 120 437 c 1
 119 440 117 443 117 445 c 0
 117 446 116 450 114 454 c 2
 113 458 108 464 104 468 c 0
 100 473 95 480 92 486 c 0
 90 491 87 498 86 500 c 0
 84 503 82 507 81 510 c 2
 79 513 77 518 76 521 c 0
 75 525 74 528 73 529 c 1
 71 530 70 532 70 532 c 1
 70 533 68 537 65 541 c 0
 62 544 58 549 57 551 c 0
 56 553 54 557 53 561 c 0
 52 564 50 570 48 573 c 2
 47 577 44 582 43 584 c 0
 42 587 38 592 35 597 c 0
 32 601 28 608 27 611 c 2
 25 614 21 622 18 630 c 0
 15 637 13 644 14 645 c 2
 14 647 16 649 18 651 c 0
 20 653 24 655 27 656 c 0
 32 658 33 658 38 656 c 0
 44 654 45 654 52 656 c 0
 56 658 62 659 64 660 c 0
318.998 849.003 m 1
 335.998 849.003 l 2
 343.998 848.003 356.998 848.003 365.998 847.003 c 0
 375.998 847.003 381.998 846.003 383.998 844.003 c 0
 386.998 842.003 387.998 840.003 387.998 836.003 c 0
 387.998 831.003 385.998 829.003 367.998 811.003 c 0
 357.998 800.003 346.998 789.003 344.998 786.003 c 0
 341.998 782.003 336.998 777.003 332.998 773.003 c 0
 328.998 769.003 323.998 765.003 321.998 763.003 c 1
 319.998 762.003 317.998 759.003 316.998 758.003 c 1
 315.998 756.003 314.998 753.003 312.998 751.003 c 1
 311.998 749.003 308.998 744.003 306.998 741.003 c 0
 303.998 738.003 301.998 734.003 299.998 734.003 c 2
 298.998 733.003 292.998 732.003 286.998 731.003 c 1
 281.998 731.003 272.998 729.003 268.998 728.003 c 0
 262.998 726.003 260.998 726.003 256.998 728.003 c 0
 254.998 729.003 251.998 732.003 250.998 734.003 c 0
 248.998 737.003 247.998 741.003 247.998 746.003 c 0
 247.998 750.003 248.998 756.003 249.998 759.003 c 1
 251.998 762.003 253.998 767.003 256.998 770.003 c 0
 258.998 773.003 262.998 778.003 265.998 781.003 c 2
 275.998 794.003 l 2
 277.998 797.003 280.998 803.003 282.998 806.003 c 0
 284.998 809.003 287.998 814.003 289.998 816.003 c 0
 291.998 818.003 293.998 823.003 294.998 826.003 c 0
 295.998 830.003 297.998 835.003 299.998 838.003 c 1
 309.998 845.003 l 2
 313.998 847.003 317.998 848.003 318.998 849.003 c 1
EndSplineSet
Validated: 33
EndChar
StartChar: uni00E0
Encoding: 224 224 156
Width: 498
GlyphClass: 2
Flags: W
LayerCount: 2
Fore
SplineSet
315 231 m 1
 311 231 298 232.001 285 232.001 c 0
 272 232.001 259 231.001 257 231.001 c 1
 254 230.001 251 229.001 250 228.001 c 1
 249 228.001 242 227.001 233 226.001 c 0
 219 225.001 219 225.001 206 217.001 c 0
 199 212.001 190 206.001 185 203.001 c 0
 181 200.001 176 196.001 173 194.001 c 0
 170 191.001 166 186.001 163 182.001 c 0
 158 175.001 158 175.001 158 152.001 c 0
 157.691 144.584 157.478 139.46 157.478 135.683 c 0
 157.478 127.236 158.545 125.528 162 120 c 0
 165 116 168 110 169 107 c 1
 169 104 171 100 172 98 c 0
 173 95 174 91 175 89 c 0
 176 86 179 84 182 83 c 0
 185 82 194 78 202 74 c 0
 210.632 69.291 214.338 67.6621 217.466 67.6621 c 0
 218.324 67.6621 219.139 67.7852 220 68 c 0
 223 69 228 70 233 70 c 2
 237 71 249 73 259 75 c 0
 268 77 278 79 281 81 c 0
 283 82 287 86 289 89 c 0
 292 92 296 95 298 97 c 0
 301 99 306 104 310 111 c 0
 315 121 317 125 318 134 c 0
 319 142 320 147 324 154 c 0
 329 162 329 162 329 192 c 0
 329 221 329 222 326 225 c 0
 324 227 319 230 315 231 c 1
228 476.001 m 0
 244 477.001 265 477 275 477 c 0
 284 476 297 475 303 475 c 1
 308 474 317 472 321 471 c 0
 325 470 334 466 339 464 c 0
 345 461 351 458 352 457 c 0
 353 456 361 453 368 449 c 0
 376 445 383 442 383 441 c 0
 383 440 385 438 389 436 c 0
 392 434 395 432 396 432 c 1
 396 432 398 431 400 429 c 0
 401 428 404 426 406 425 c 0
 408 424 411 421 413 418 c 0
 415 416 417 412 417 411 c 0
 417 409 418 405 419 402 c 1
 421 399 424 391 426 384 c 0
 428 377 431 368 432 365 c 1
 432 362 434 356 435 353 c 0
 437 348 438 336 439 309 c 0
 440 289 440 269 440 265 c 2
 440 228 l 2
 440 207 441 197 442 193 c 0
 443 189 444 186 443 181 c 0
 442 177 441 173 441 172 c 0
 441 171 442 164 443 157 c 0
 445 147 445 144 442 137 c 0
 440 130 440 125 441 118 c 2
 441 112 442 106 443 104 c 0
 444 102 445 86 445 70 c 0
 446 53 447 37 448 32 c 0
 449 27 450 22 450 19 c 0
 450 17 449 14 446 11 c 0
 442 7 440 7 434 7 c 0
 431 7 410 7 389 8 c 0
 355 9 350 9 348 12 c 0
 347 13 345 17 344 20 c 0
 343 23 342 31 342 37 c 0
 342 43 341 51 340 53 c 0
 338 57 336 59 333 60 c 0
 330 61 327 61 324 60 c 0
 321 59 317 57 315 56 c 0
 313 55 306 49 299 42 c 2
 277 24 l 2
 271 20 258 12 247 7 c 0
 227 -3 226.997 -2.93457 201 -4 c 0
 192.58 -4.34473 186.708 -4.59766 182.351 -4.59766 c 0
 174.804 -4.59766 171.804 -3.90137 168 -1.99902 c 1
 164 -0.999023 156 1.00098 150 1.00098 c 1
 143 2.00098 135 3.00098 131 5.00098 c 1
 127 6.00098 122 7.00098 120 7.00098 c 0
 118 7.00098 113 9.00098 109 12.001 c 0
 105 14.001 99 17.001 96 18.001 c 2
 93 20.001 89 22.001 87 23.001 c 0
 84 24.001 79 28.001 75 32.001 c 0
 70 37.001 68 41.001 65 48.001 c 1
 64 54.001 60 61.001 57 65.001 c 0
 55 69.001 52 76.001 51 79.001 c 0
 50 83.001 47 91.001 45 96.001 c 0
 43 102.001 42 110.001 42 114.001 c 0
 42 118.001 41 124.001 40 128.001 c 0
 39 131.001 38 136.001 38 139.001 c 1
 37 142.001 38 147.001 42 155.001 c 1
 44 161.001 46 169.001 47 172.001 c 1
 47 176.001 50 184.001 52 190.001 c 0
 54 196.001 58 204.001 60 206.001 c 0
 62 208.001 67 214.001 71 219.001 c 1
 76 223.001 86 233.001 93 240.001 c 0
 101 247.001 108 253.001 110 254.001 c 1
 113 254.001 122 258.001 132 263.001 c 0
 144 269.001 151 272.001 155 272.001 c 0
 158 272.001 166 274.001 174 277.001 c 0
 182 280.001 193 282.001 199 283.001 c 1
 205 283.001 213 285.001 216 286.001 c 0
 220 287.001 228 288.001 237 288.001 c 0
 248 288.001 254 289.001 261 291.001 c 0
 268 293.001 274 294.001 284 294.001 c 0
 293 294.001 300 293.001 305 291.001 c 0
 312 289.001 312 289.001 320 293.001 c 0
 327 296.001 329 299.001 330 302.001 c 0
 331 304.001 331 309.001 330 314.001 c 0
 329 319.001 328 330.001 328 339.001 c 0
 328 352.001 328 356.001 325 361.001 c 1
 324 364.001 323 368.001 323 371.001 c 1
 322 373.001 321 377.001 320 379.001 c 0
 319 382.001 312 389.001 304 395.001 c 2
 297 402.001 290 407.001 289 407.001 c 1
 283 409.001 l 1
 281 411.001 272 412.001 261 413.001 c 0
 252 414.001 239 414.001 234 414.001 c 0
 229 414.001 222 412.001 219 411.001 c 0
 217 410.001 213 408.001 210 408.001 c 1
 207 407.001 205 404.001 202 400.001 c 0
 200 396.001 198 392.001 197 391.001 c 0
 196 390.001 193 385.001 191 381.001 c 1
 190 377.001 185 370.001 182 366.001 c 1
 178 362.001 175 358.001 175 357.001 c 1
 175 357.001 173 354.001 170 352.001 c 0
 166 350.001 160 348.001 151 346.001 c 0
 142 345.001 129 344.001 113 344.001 c 0
 100 344.001 89 344.001 88 345.001 c 1
 88 346.001 84 347.001 80 348.001 c 0
 75 349.001 70 351.001 69 353.001 c 1
 67 355.001 65 358.001 65 360.001 c 0
 65 362.001 66 366.001 67 370.001 c 0
 68 373.001 71 380.001 72 386.001 c 2
 74 391.001 75 399.001 75 403.001 c 0
 75 409.001 76 410.001 85 419.001 c 0
 91 424.001 98 431.001 101 434.001 c 0
 105 439.001 109 441.001 118 445.001 c 0
 124 447.001 132 450.001 135 452.001 c 0
 138 454.001 143 456.001 149 457.001 c 0
 154 458.001 160 459.001 162 460.001 c 1
 164 460.001 169 463.001 173 466.001 c 0
 177 469.001 182 472.001 185 474.001 c 0
 188 476.001 191 476.001 194 476.001 c 1
 195 475.668 197.444 475.557 200.814 475.557 c 0
 207.556 475.557 218 476.001 228 476.001 c 0
163 676 m 2
 169 677 183 677 196 677 c 0
 215 677 220 677 226 674 c 2
 231 673 237 669 240 665 c 2
 244 662 248 656 251 651 c 0
 254 647 256 642 257 641 c 2
 258 639 260 637 261 635 c 2
 262 634 265 630 266 627 c 2
 268 624 270 619 271 616 c 2
 273 613 276 606 278 600 c 1
 281 594 285 588 287 585 c 1
 290 583 293 579 294 577 c 0
 295 574 296 571 295 568 c 2
 295 565 293 561 290 559 c 2
 288 556 284 553 282 552 c 0
 279 551 275 550 274 550 c 0
 272 550 267 551 263 552 c 0
 259 553 255 555 253 556 c 1
 252 558 250 558 249 558 c 1
 249 558 245 561 242 565 c 1
 224 583 l 2
 218 589 210 597 206 600 c 0
 202 603 197 609 194 613 c 0
 191 618 187 623 184 625 c 0
 181 627 174 633 168 638 c 0
 162 643 155 649 152 652 c 0
 149 655 146 659 146 661 c 2
 146 668 l 2
 146 670 147 672 149 673 c 0
 151 674 157 676 163 676 c 2
EndSplineSet
Validated: 33
EndChar
